<svg xmlns="http://www.w3.org/2000/svg" viewBox="0 0 500 372.61"><defs><style>.cls-1{fill:#ebebeb;}.cls-2,.cls-7{fill:#e0e0e0;}.cls-3{fill:#f5f5f5;}.cls-4{fill:#e6e6e6;}.cls-5,.cls-6{fill:#f0f0f0;}.cls-6{stroke:#e0e0e0;stroke-width:2px;}.cls-19,.cls-20,.cls-25,.cls-26,.cls-6{stroke-linecap:round;stroke-linejoin:round;}.cls-11,.cls-22,.cls-7,.cls-9{opacity:0.2;}.cls-10,.cls-11,.cls-13,.cls-14,.cls-16,.cls-21,.cls-22,.cls-23,.cls-24,.cls-27,.cls-7,.cls-9{isolation:isolate;}.cls-8{fill:#407bff;}.cls-10,.cls-11,.cls-13,.cls-14,.cls-17,.cls-23,.cls-24,.cls-27{fill:#fff;}.cls-10{opacity:0.5;}.cls-12{fill:#263238;}.cls-13{opacity:0.3;}.cls-14{opacity:0.6;}.cls-15{fill:#e4897b;}.cls-16,.cls-27{opacity:0.1;}.cls-18{fill:#de5753;}.cls-19,.cls-20,.cls-25,.cls-26{fill:none;}.cls-19,.cls-20{stroke:#263238;}.cls-19{stroke-width:0.72px;}.cls-20{stroke-width:0.5px;}.cls-21,.cls-24{opacity:0.4;}.cls-23{opacity:0.7;}.cls-25,.cls-26{stroke:#407bff;stroke-width:0.75px;}.cls-26{stroke-dasharray:6.03 6.03;}</style></defs><title>contact</title><g id="Background_Complete" data-name="Background Complete"><rect class="cls-1" y="327.45" width="500" height="0.25"/><rect class="cls-1" x="416.78" y="343.54" width="33.12" height="0.25"/><rect class="cls-1" x="322.53" y="346.26" width="8.69" height="0.25"/><rect class="cls-1" x="396.59" y="334.26" width="19.19" height="0.25"/><rect class="cls-1" x="52.46" y="335.94" width="43.19" height="0.25"/><rect class="cls-1" x="104.56" y="335.94" width="6.33" height="0.25"/><rect class="cls-1" x="131.47" y="340.16" width="93.68" height="0.25"/><path class="cls-1" d="M237,337.8H43.91a5.71,5.71,0,0,1-5.7-5.71V60.66A5.71,5.71,0,0,1,43.91,55H237a5.71,5.71,0,0,1,5.71,5.71V332.09A5.71,5.71,0,0,1,237,337.8ZM43.91,55.2a5.46,5.46,0,0,0-5.45,5.46V332.09a5.46,5.46,0,0,0,5.45,5.46H237a5.47,5.47,0,0,0,5.46-5.46V60.66A5.47,5.47,0,0,0,237,55.2Z" transform="translate(0 -54.95)"/><path class="cls-1" d="M453.31,337.8H260.21a5.72,5.72,0,0,1-5.71-5.71V60.66A5.72,5.72,0,0,1,260.21,55h193.1A5.71,5.71,0,0,1,459,60.66V332.09A5.71,5.71,0,0,1,453.31,337.8ZM260.21,55.2a5.47,5.47,0,0,0-5.46,5.46V332.09a5.47,5.47,0,0,0,5.46,5.46h193.1a5.47,5.47,0,0,0,5.46-5.46V60.66a5.47,5.47,0,0,0-5.46-5.46Z" transform="translate(0 -54.95)"/><rect class="cls-2" x="203.14" y="62.22" width="242.28" height="233.54"/><rect class="cls-3" x="207.03" y="66.46" width="238.39" height="225.22"/><polygon class="cls-4" points="208.79 237.14 208.79 169.4 215.82 169.4 215.82 160.45 231.66 153.04 231.66 143.88 234.3 143.88 234.3 169.4 236.94 169.4 236.94 237.14 240.46 237.14 240.46 201.95 248.38 201.95 248.38 183.48 251.02 183.48 251.02 237.14 257.17 237.14 257.17 216.91 261.57 216.91 261.57 211.63 271.25 211.63 271.25 193.15 276.53 193.15 276.53 180.84 282.69 180.84 282.69 162.36 285.33 162.36 285.33 180.84 291.49 180.84 291.49 193.15 296.76 193.15 296.76 211.63 306.44 211.63 306.44 216.91 310.84 216.91 310.84 237.14 316.12 237.14 316.12 211.63 325.8 211.63 325.8 155.32 328.44 155.32 328.44 149.16 349.55 149.16 349.55 155.32 353.95 155.32 353.95 195.79 371.55 195.79 371.55 200.19 377.7 200.19 377.7 202.83 371.55 202.83 371.55 218.67 390.02 218.67 390.02 165.88 393.54 165.88 393.54 155.32 402.34 155.32 402.34 114.85 404.98 114.85 404.98 155.32 411.14 155.32 411.14 165.88 445.42 165.88 445.42 291.69 207.03 291.69 207.03 237.14 208.79 237.14"/><rect class="cls-5" x="424.61" y="168.64" width="2.49" height="2.49"/><rect class="cls-5" x="424.61" y="172.82" width="2.49" height="2.49"/><rect class="cls-5" x="424.61" y="189.53" width="2.49" height="2.49"/><rect class="cls-5" x="424.61" y="193.71" width="2.49" height="2.49"/><rect class="cls-5" x="424.61" y="197.89" width="2.49" height="2.49"/><rect class="cls-5" x="424.61" y="210.43" width="2.49" height="2.49"/><rect class="cls-5" x="424.61" y="214.61" width="2.49" height="2.49"/><rect class="cls-5" x="420.65" y="185.35" width="2.49" height="2.49"/><rect class="cls-5" x="420.65" y="189.53" width="2.49" height="2.49"/><rect class="cls-5" x="420.65" y="193.71" width="2.49" height="2.49"/><rect class="cls-5" x="420.65" y="197.89" width="2.49" height="2.49"/><rect class="cls-5" x="420.65" y="202.07" width="2.49" height="2.49"/><rect class="cls-5" x="420.65" y="210.43" width="2.49" height="2.49"/><rect class="cls-5" x="420.65" y="214.61" width="2.49" height="2.49"/><rect class="cls-5" x="416.69" y="168.64" width="2.49" height="2.49"/><rect class="cls-5" x="416.69" y="172.82" width="2.49" height="2.49"/><rect class="cls-5" x="416.69" y="177" width="2.49" height="2.49"/><rect class="cls-5" x="416.69" y="181.18" width="2.49" height="2.49"/><rect class="cls-5" x="416.69" y="185.35" width="2.49" height="2.49"/><rect class="cls-5" x="416.69" y="189.53" width="2.49" height="2.49"/><rect class="cls-5" x="416.69" y="193.71" width="2.49" height="2.49"/><rect class="cls-5" x="416.69" y="197.89" width="2.49" height="2.49"/><rect class="cls-5" x="416.69" y="202.07" width="2.49" height="2.49"/><rect class="cls-5" x="416.69" y="206.25" width="2.49" height="2.49"/><rect class="cls-5" x="416.69" y="214.61" width="2.49" height="2.49"/><rect class="cls-5" x="412.73" y="168.64" width="2.49" height="2.49"/><rect class="cls-5" x="412.73" y="172.82" width="2.49" height="2.49"/><rect class="cls-5" x="412.73" y="177" width="2.49" height="2.49"/><rect class="cls-5" x="412.73" y="181.18" width="2.49" height="2.49"/><rect class="cls-5" x="412.73" y="185.35" width="2.49" height="2.49"/><rect class="cls-5" x="412.73" y="189.53" width="2.49" height="2.49"/><rect class="cls-5" x="412.73" y="193.71" width="2.49" height="2.49"/><rect class="cls-5" x="412.73" y="231.32" width="2.49" height="2.49"/><rect class="cls-5" x="408.77" y="168.64" width="2.49" height="2.49"/><rect class="cls-5" x="408.77" y="172.82" width="2.49" height="2.49"/><rect class="cls-5" x="408.77" y="177" width="2.49" height="2.49"/><rect class="cls-5" x="408.77" y="181.18" width="2.49" height="2.49"/><rect class="cls-5" x="408.77" y="185.35" width="2.49" height="2.49"/><rect class="cls-5" x="408.77" y="189.53" width="2.49" height="2.49"/><rect class="cls-5" x="408.77" y="193.71" width="2.49" height="2.49"/><rect class="cls-5" x="408.77" y="197.89" width="2.49" height="2.49"/><rect class="cls-5" x="408.77" y="222.97" width="2.49" height="2.49"/><rect class="cls-5" x="408.77" y="227.14" width="2.49" height="2.49"/><rect class="cls-5" x="408.77" y="231.32" width="2.49" height="2.49"/><rect class="cls-5" x="408.77" y="235.5" width="2.49" height="2.49"/><rect class="cls-5" x="408.77" y="252.22" width="2.49" height="2.49"/><rect class="cls-5" x="404.81" y="168.64" width="2.49" height="2.49"/><rect class="cls-5" x="404.81" y="172.82" width="2.49" height="2.49"/><rect class="cls-5" x="404.81" y="177" width="2.49" height="2.49"/><rect class="cls-5" x="404.81" y="181.18" width="2.49" height="2.49"/><rect class="cls-5" x="404.81" y="185.35" width="2.49" height="2.49"/><rect class="cls-5" x="404.81" y="189.53" width="2.49" height="2.49"/><rect class="cls-5" x="404.81" y="193.71" width="2.49" height="2.49"/><rect class="cls-5" x="404.81" y="197.89" width="2.49" height="2.49"/><rect class="cls-5" x="404.81" y="202.07" width="2.49" height="2.49"/><rect class="cls-5" x="404.81" y="206.25" width="2.49" height="2.49"/><rect class="cls-5" x="404.81" y="218.79" width="2.49" height="2.49"/><rect class="cls-5" x="404.81" y="222.97" width="2.49" height="2.49"/><rect class="cls-5" x="404.81" y="227.14" width="2.49" height="2.49"/><rect class="cls-5" x="404.81" y="231.32" width="2.49" height="2.49"/><rect class="cls-5" x="404.81" y="235.5" width="2.49" height="2.49"/><rect class="cls-5" x="404.81" y="252.22" width="2.49" height="2.49"/><rect class="cls-5" x="400.85" y="168.64" width="2.49" height="2.49"/><rect class="cls-5" x="400.85" y="172.82" width="2.49" height="2.49"/><rect class="cls-5" x="400.85" y="177" width="2.49" height="2.49"/><rect class="cls-5" x="400.85" y="181.18" width="2.49" height="2.49"/><rect class="cls-5" x="400.85" y="185.35" width="2.49" height="2.49"/><rect class="cls-5" x="400.85" y="189.53" width="2.49" height="2.49"/><rect class="cls-5" x="400.85" y="193.71" width="2.49" height="2.49"/><rect class="cls-5" x="400.85" y="197.89" width="2.49" height="2.49"/><rect class="cls-5" x="400.85" y="202.07" width="2.49" height="2.49"/><rect class="cls-5" x="400.85" y="206.25" width="2.49" height="2.49"/><rect class="cls-5" x="400.85" y="210.43" width="2.49" height="2.49"/><rect class="cls-5" x="400.85" y="214.61" width="2.49" height="2.49"/><rect class="cls-5" x="400.85" y="218.79" width="2.49" height="2.49"/><rect class="cls-5" x="400.85" y="222.97" width="2.49" height="2.49"/><rect class="cls-5" x="400.85" y="227.14" width="2.49" height="2.49"/><rect class="cls-5" x="400.85" y="231.32" width="2.49" height="2.49"/><rect class="cls-5" x="400.85" y="235.5" width="2.49" height="2.49"/><rect class="cls-5" x="400.85" y="239.68" width="2.49" height="2.49"/><rect class="cls-5" x="396.89" y="168.64" width="2.49" height="2.49"/><rect class="cls-5" x="396.89" y="172.82" width="2.49" height="2.49"/><rect class="cls-5" x="396.89" y="177" width="2.49" height="2.49"/><rect class="cls-5" x="396.89" y="181.18" width="2.49" height="2.49"/><rect class="cls-5" x="396.89" y="185.35" width="2.49" height="2.49"/><rect class="cls-5" x="396.89" y="189.53" width="2.49" height="2.49"/><rect class="cls-5" x="396.89" y="193.71" width="2.49" height="2.49"/><rect class="cls-5" x="396.89" y="197.89" width="2.49" height="2.49"/><rect class="cls-5" x="396.89" y="202.07" width="2.49" height="2.49"/><rect class="cls-5" x="396.89" y="206.25" width="2.49" height="2.49"/><rect class="cls-5" x="396.89" y="218.79" width="2.49" height="2.49"/><rect class="cls-5" x="396.89" y="222.97" width="2.49" height="2.49"/><rect class="cls-5" x="396.89" y="227.14" width="2.49" height="2.49"/><rect class="cls-5" x="396.89" y="231.32" width="2.49" height="2.49"/><rect class="cls-5" x="392.94" y="168.64" width="2.49" height="2.49"/><rect class="cls-5" x="392.94" y="172.82" width="2.49" height="2.49"/><rect class="cls-5" x="392.94" y="177" width="2.49" height="2.49"/><rect class="cls-5" x="392.94" y="181.18" width="2.49" height="2.49"/><rect class="cls-5" x="392.94" y="185.35" width="2.49" height="2.49"/><rect class="cls-5" x="392.94" y="189.53" width="2.49" height="2.49"/><rect class="cls-5" x="392.94" y="193.71" width="2.49" height="2.49"/><rect class="cls-5" x="392.94" y="197.89" width="2.49" height="2.49"/><rect class="cls-5" x="392.94" y="202.07" width="2.49" height="2.49"/><rect class="cls-5" x="392.94" y="206.25" width="2.49" height="2.49"/><rect class="cls-5" x="392.94" y="218.79" width="2.49" height="2.49"/><rect class="cls-5" x="392.94" y="222.97" width="2.49" height="2.49"/><rect class="cls-5" x="392.94" y="227.14" width="2.49" height="2.49"/><rect class="cls-5" x="348.36" y="157.79" width="2.49" height="2.49"/><rect class="cls-5" x="348.36" y="161.97" width="2.49" height="2.49"/><rect class="cls-5" x="348.36" y="166.15" width="2.49" height="2.49"/><rect class="cls-5" x="348.36" y="170.32" width="2.49" height="2.49"/><rect class="cls-5" x="348.36" y="174.5" width="2.49" height="2.49"/><rect class="cls-5" x="348.36" y="178.68" width="2.49" height="2.49"/><rect class="cls-5" x="348.36" y="182.86" width="2.49" height="2.49"/><rect class="cls-5" x="348.36" y="187.04" width="2.49" height="2.49"/><rect class="cls-5" x="348.36" y="199.58" width="2.49" height="2.49"/><rect class="cls-5" x="348.36" y="203.76" width="2.49" height="2.49"/><rect class="cls-5" x="344.4" y="157.79" width="2.49" height="2.49"/><rect class="cls-5" x="344.4" y="161.97" width="2.49" height="2.49"/><rect class="cls-5" x="344.4" y="166.15" width="2.49" height="2.49"/><rect class="cls-5" x="344.4" y="170.32" width="2.49" height="2.49"/><rect class="cls-5" x="344.4" y="174.5" width="2.49" height="2.49"/><rect class="cls-5" x="344.4" y="178.68" width="2.49" height="2.49"/><rect class="cls-5" x="344.4" y="182.86" width="2.49" height="2.49"/><rect class="cls-5" x="344.4" y="187.04" width="2.49" height="2.49"/><rect class="cls-5" x="344.4" y="203.76" width="2.49" height="2.49"/><rect class="cls-5" x="340.44" y="157.79" width="2.49" height="2.49"/><rect class="cls-5" x="340.44" y="161.97" width="2.49" height="2.49"/><rect class="cls-5" x="340.44" y="166.15" width="2.49" height="2.49"/><rect class="cls-5" x="340.44" y="170.32" width="2.49" height="2.49"/><rect class="cls-5" x="340.44" y="174.5" width="2.49" height="2.49"/><rect class="cls-5" x="340.44" y="178.68" width="2.49" height="2.49"/><rect class="cls-5" x="340.44" y="182.86" width="2.49" height="2.49"/><rect class="cls-5" x="340.44" y="187.04" width="2.49" height="2.49"/><rect class="cls-5" x="336.48" y="157.79" width="2.49" height="2.49"/><rect class="cls-5" x="336.48" y="161.97" width="2.49" height="2.49"/><rect class="cls-5" x="336.48" y="166.15" width="2.49" height="2.49"/><rect class="cls-5" x="336.48" y="170.32" width="2.49" height="2.49"/><rect class="cls-5" x="336.48" y="174.5" width="2.49" height="2.49"/><rect class="cls-5" x="336.48" y="178.68" width="2.49" height="2.49"/><rect class="cls-5" x="336.48" y="187.04" width="2.49" height="2.49"/><rect class="cls-5" x="336.48" y="191.22" width="2.49" height="2.49"/><rect class="cls-5" x="336.48" y="203.76" width="2.49" height="2.49"/><rect class="cls-5" x="336.48" y="207.94" width="2.49" height="2.49"/><rect class="cls-5" x="336.48" y="212.11" width="2.49" height="2.49"/><rect class="cls-5" x="336.48" y="216.29" width="2.49" height="2.49"/><rect class="cls-5" x="336.48" y="220.47" width="2.49" height="2.49"/><rect class="cls-5" x="336.48" y="224.65" width="2.49" height="2.49"/><rect class="cls-5" x="336.48" y="228.83" width="2.49" height="2.49"/><rect class="cls-5" x="332.52" y="157.79" width="2.49" height="2.49"/><rect class="cls-5" x="332.52" y="161.97" width="2.49" height="2.49"/><rect class="cls-5" x="332.52" y="166.15" width="2.49" height="2.49"/><rect class="cls-5" x="332.52" y="170.32" width="2.49" height="2.49"/><rect class="cls-5" x="332.52" y="174.5" width="2.49" height="2.49"/><rect class="cls-5" x="332.52" y="178.68" width="2.49" height="2.49"/><rect class="cls-5" x="332.52" y="191.22" width="2.49" height="2.49"/><rect class="cls-5" x="332.52" y="195.4" width="2.49" height="2.49"/><rect class="cls-5" x="332.52" y="199.58" width="2.49" height="2.49"/><rect class="cls-5" x="332.52" y="203.76" width="2.49" height="2.49"/><rect class="cls-5" x="332.52" y="207.94" width="2.49" height="2.49"/><rect class="cls-5" x="332.52" y="212.11" width="2.49" height="2.49"/><rect class="cls-5" x="332.52" y="216.29" width="2.49" height="2.49"/><rect class="cls-5" x="332.52" y="220.47" width="2.49" height="2.49"/><rect class="cls-5" x="332.52" y="224.65" width="2.49" height="2.49"/><rect class="cls-5" x="332.52" y="228.83" width="2.49" height="2.49"/><rect class="cls-5" x="332.52" y="233.01" width="2.49" height="2.49"/><rect class="cls-5" x="332.52" y="241.37" width="2.49" height="2.49"/><rect class="cls-5" x="328.56" y="157.79" width="2.49" height="2.49"/><rect class="cls-5" x="328.56" y="161.97" width="2.49" height="2.49"/><rect class="cls-5" x="328.56" y="166.15" width="2.49" height="2.49"/><rect class="cls-5" x="328.56" y="170.32" width="2.49" height="2.49"/><rect class="cls-5" x="328.56" y="174.5" width="2.49" height="2.49"/><rect class="cls-5" x="328.56" y="178.68" width="2.49" height="2.49"/><rect class="cls-5" x="328.56" y="191.22" width="2.49" height="2.49"/><rect class="cls-5" x="328.56" y="195.4" width="2.49" height="2.49"/><rect class="cls-5" x="328.56" y="199.58" width="2.49" height="2.49"/><rect class="cls-5" x="328.56" y="203.76" width="2.49" height="2.49"/><rect class="cls-5" x="328.56" y="216.29" width="2.49" height="2.49"/><rect class="cls-5" x="328.56" y="220.47" width="2.49" height="2.49"/><rect class="cls-5" x="328.56" y="224.65" width="2.49" height="2.49"/><rect class="cls-5" x="328.56" y="228.83" width="2.49" height="2.49"/><rect class="cls-5" x="328.56" y="233.01" width="2.49" height="2.49"/><rect class="cls-5" x="328.56" y="241.37" width="2.49" height="2.49"/><rect class="cls-5" x="328.56" y="245.55" width="2.49" height="2.49"/><rect class="cls-5" x="292.64" y="196.64" width="2.49" height="2.49"/><rect class="cls-5" x="292.64" y="200.82" width="2.49" height="2.49"/><rect class="cls-5" x="292.64" y="205" width="2.49" height="2.49"/><rect class="cls-5" x="292.64" y="209.18" width="2.49" height="2.49"/><rect class="cls-5" x="292.64" y="213.36" width="2.49" height="2.49"/><rect class="cls-5" x="292.64" y="217.54" width="2.49" height="2.49"/><rect class="cls-5" x="292.64" y="221.72" width="2.49" height="2.49"/><rect class="cls-5" x="292.64" y="234.26" width="2.49" height="2.49"/><rect class="cls-5" x="292.64" y="238.43" width="2.49" height="2.49"/><rect class="cls-5" x="292.64" y="242.61" width="2.49" height="2.49"/><rect class="cls-5" x="288.68" y="196.64" width="2.49" height="2.49"/><rect class="cls-5" x="288.68" y="200.82" width="2.49" height="2.49"/><rect class="cls-5" x="288.68" y="205" width="2.49" height="2.49"/><rect class="cls-5" x="288.68" y="209.18" width="2.49" height="2.49"/><rect class="cls-5" x="288.68" y="213.36" width="2.49" height="2.49"/><rect class="cls-5" x="288.68" y="217.54" width="2.49" height="2.49"/><rect class="cls-5" x="288.68" y="221.72" width="2.49" height="2.49"/><rect class="cls-5" x="284.72" y="196.64" width="2.49" height="2.49"/><rect class="cls-5" x="284.72" y="200.82" width="2.49" height="2.49"/><rect class="cls-5" x="284.72" y="205" width="2.49" height="2.49"/><rect class="cls-5" x="284.72" y="209.18" width="2.49" height="2.49"/><rect class="cls-5" x="284.72" y="213.36" width="2.49" height="2.49"/><rect class="cls-5" x="284.72" y="217.54" width="2.49" height="2.49"/><rect class="cls-5" x="284.72" y="221.72" width="2.49" height="2.49"/><rect class="cls-5" x="280.76" y="196.64" width="2.49" height="2.49"/><rect class="cls-5" x="280.76" y="200.82" width="2.49" height="2.49"/><rect class="cls-5" x="280.76" y="205" width="2.49" height="2.49"/><rect class="cls-5" x="280.76" y="209.18" width="2.49" height="2.49"/><rect class="cls-5" x="280.76" y="213.36" width="2.49" height="2.49"/><rect class="cls-5" x="280.76" y="217.54" width="2.49" height="2.49"/><rect class="cls-5" x="280.76" y="221.72" width="2.49" height="2.49"/><rect class="cls-5" x="280.76" y="225.9" width="2.49" height="2.49"/><rect class="cls-5" x="280.76" y="230.08" width="2.49" height="2.49"/><rect class="cls-5" x="280.76" y="234.26" width="2.49" height="2.49"/><rect class="cls-5" x="280.76" y="238.43" width="2.49" height="2.49"/><rect class="cls-5" x="276.8" y="196.64" width="2.49" height="2.49"/><rect class="cls-5" x="276.8" y="200.82" width="2.49" height="2.49"/><rect class="cls-5" x="276.8" y="205" width="2.49" height="2.49"/><rect class="cls-5" x="276.8" y="209.18" width="2.49" height="2.49"/><rect class="cls-5" x="276.8" y="213.36" width="2.49" height="2.49"/><rect class="cls-5" x="276.8" y="217.54" width="2.49" height="2.49"/><rect class="cls-5" x="276.8" y="221.72" width="2.49" height="2.49"/><rect class="cls-5" x="276.8" y="225.9" width="2.49" height="2.49"/><rect class="cls-5" x="276.8" y="230.08" width="2.49" height="2.49"/><rect class="cls-5" x="276.8" y="234.26" width="2.49" height="2.49"/><rect class="cls-5" x="276.8" y="238.43" width="2.49" height="2.49"/><rect class="cls-5" x="276.8" y="242.61" width="2.49" height="2.49"/><rect class="cls-5" x="276.8" y="255.15" width="2.49" height="2.49"/><rect class="cls-5" x="276.8" y="259.33" width="2.49" height="2.49"/><rect class="cls-5" x="272.84" y="196.64" width="2.49" height="2.49"/><rect class="cls-5" x="272.84" y="200.82" width="2.49" height="2.49"/><rect class="cls-5" x="272.84" y="205" width="2.49" height="2.49"/><rect class="cls-5" x="272.84" y="217.54" width="2.49" height="2.49"/><rect class="cls-5" x="272.84" y="221.72" width="2.49" height="2.49"/><rect class="cls-5" x="272.84" y="225.9" width="2.49" height="2.49"/><rect class="cls-5" x="272.84" y="230.08" width="2.49" height="2.49"/><rect class="cls-5" x="272.84" y="234.26" width="2.49" height="2.49"/><rect class="cls-5" x="272.84" y="238.43" width="2.49" height="2.49"/><rect class="cls-5" x="272.84" y="242.61" width="2.49" height="2.49"/><rect class="cls-5" x="272.84" y="255.15" width="2.49" height="2.49"/><rect class="cls-5" x="272.84" y="259.33" width="2.49" height="2.49"/><rect class="cls-5" x="272.84" y="263.51" width="2.49" height="2.49"/><rect class="cls-5" x="231.35" y="171.57" width="2.49" height="2.49"/><rect class="cls-5" x="231.35" y="175.75" width="2.49" height="2.49"/><rect class="cls-5" x="231.35" y="179.93" width="2.49" height="2.49"/><rect class="cls-5" x="231.35" y="184.11" width="2.49" height="2.49"/><rect class="cls-5" x="231.35" y="188.29" width="2.49" height="2.49"/><rect class="cls-5" x="231.35" y="192.47" width="2.49" height="2.49"/><rect class="cls-5" x="231.35" y="196.64" width="2.49" height="2.49"/><rect class="cls-5" x="231.35" y="200.82" width="2.49" height="2.49"/><rect class="cls-5" x="231.35" y="205" width="2.49" height="2.49"/><rect class="cls-5" x="231.35" y="209.18" width="2.49" height="2.49"/><rect class="cls-5" x="231.35" y="213.36" width="2.49" height="2.49"/><rect class="cls-5" x="231.35" y="217.54" width="2.49" height="2.49"/><rect class="cls-5" x="231.35" y="221.72" width="2.49" height="2.49"/><rect class="cls-5" x="231.35" y="225.9" width="2.49" height="2.49"/><rect class="cls-5" x="231.35" y="230.08" width="2.49" height="2.49"/><rect class="cls-5" x="231.35" y="234.26" width="2.49" height="2.49"/><rect class="cls-5" x="231.35" y="238.43" width="2.49" height="2.49"/><rect class="cls-5" x="231.35" y="242.61" width="2.49" height="2.49"/><rect class="cls-5" x="231.35" y="246.79" width="2.49" height="2.49"/><rect class="cls-5" x="231.35" y="250.97" width="2.49" height="2.49"/><rect class="cls-5" x="231.35" y="255.15" width="2.49" height="2.49"/><rect class="cls-5" x="231.35" y="259.33" width="2.49" height="2.49"/><rect class="cls-5" x="231.35" y="263.51" width="2.49" height="2.49"/><rect class="cls-5" x="227.39" y="171.57" width="2.49" height="2.49"/><rect class="cls-5" x="227.39" y="175.75" width="2.49" height="2.49"/><rect class="cls-5" x="227.39" y="179.93" width="2.49" height="2.49"/><rect class="cls-5" x="227.39" y="184.11" width="2.49" height="2.49"/><rect class="cls-5" x="227.39" y="188.29" width="2.49" height="2.49"/><rect class="cls-5" x="227.39" y="192.47" width="2.49" height="2.49"/><rect class="cls-5" x="227.39" y="196.64" width="2.49" height="2.49"/><rect class="cls-5" x="227.39" y="200.82" width="2.49" height="2.49"/><rect class="cls-5" x="227.39" y="205" width="2.49" height="2.49"/><rect class="cls-5" x="227.39" y="209.18" width="2.49" height="2.49"/><rect class="cls-5" x="227.39" y="213.36" width="2.49" height="2.49"/><rect class="cls-5" x="227.39" y="217.54" width="2.49" height="2.49"/><rect class="cls-5" x="227.39" y="221.72" width="2.49" height="2.49"/><rect class="cls-5" x="227.39" y="225.9" width="2.49" height="2.49"/><rect class="cls-5" x="227.39" y="230.08" width="2.49" height="2.49"/><rect class="cls-5" x="227.39" y="234.26" width="2.49" height="2.49"/><rect class="cls-5" x="227.39" y="238.43" width="2.49" height="2.49"/><rect class="cls-5" x="227.39" y="242.61" width="2.49" height="2.49"/><rect class="cls-5" x="227.39" y="246.79" width="2.49" height="2.49"/><rect class="cls-5" x="223.43" y="171.57" width="2.49" height="2.49"/><rect class="cls-5" x="223.43" y="175.75" width="2.49" height="2.49"/><rect class="cls-5" x="223.43" y="179.93" width="2.49" height="2.49"/><rect class="cls-5" x="223.43" y="184.11" width="2.49" height="2.49"/><rect class="cls-5" x="223.43" y="188.29" width="2.49" height="2.49"/><rect class="cls-5" x="223.43" y="192.47" width="2.49" height="2.49"/><rect class="cls-5" x="223.43" y="196.64" width="2.49" height="2.49"/><rect class="cls-5" x="223.43" y="200.82" width="2.49" height="2.49"/><rect class="cls-5" x="223.43" y="205" width="2.49" height="2.49"/><rect class="cls-5" x="223.43" y="209.18" width="2.49" height="2.49"/><rect class="cls-5" x="223.43" y="213.36" width="2.49" height="2.49"/><rect class="cls-5" x="223.43" y="217.54" width="2.49" height="2.49"/><rect class="cls-5" x="223.43" y="221.72" width="2.49" height="2.49"/><rect class="cls-5" x="223.43" y="225.9" width="2.49" height="2.49"/><rect class="cls-5" x="223.43" y="230.08" width="2.49" height="2.49"/><rect class="cls-5" x="223.43" y="234.26" width="2.49" height="2.49"/><rect class="cls-5" x="223.43" y="238.43" width="2.49" height="2.49"/><rect class="cls-5" x="223.43" y="242.61" width="2.49" height="2.49"/><rect class="cls-5" x="223.43" y="246.79" width="2.49" height="2.49"/><rect class="cls-5" x="219.47" y="171.57" width="2.49" height="2.49"/><rect class="cls-5" x="219.47" y="175.75" width="2.49" height="2.49"/><rect class="cls-5" x="219.47" y="179.93" width="2.49" height="2.49"/><rect class="cls-5" x="219.47" y="184.11" width="2.49" height="2.49"/><rect class="cls-5" x="219.47" y="188.29" width="2.49" height="2.49"/><rect class="cls-5" x="219.47" y="192.47" width="2.49" height="2.49"/><rect class="cls-5" x="219.47" y="196.64" width="2.49" height="2.49"/><rect class="cls-5" x="219.47" y="200.82" width="2.49" height="2.49"/><rect class="cls-5" x="219.47" y="205" width="2.49" height="2.49"/><rect class="cls-5" x="219.47" y="209.18" width="2.49" height="2.49"/><rect class="cls-5" x="219.47" y="213.36" width="2.49" height="2.49"/><rect class="cls-5" x="219.47" y="217.54" width="2.49" height="2.49"/><rect class="cls-5" x="219.47" y="221.72" width="2.49" height="2.49"/><rect class="cls-5" x="219.47" y="225.9" width="2.49" height="2.49"/><rect class="cls-5" x="219.47" y="230.08" width="2.49" height="2.49"/><rect class="cls-5" x="215.51" y="171.57" width="2.49" height="2.49"/><rect class="cls-5" x="215.51" y="175.75" width="2.49" height="2.49"/><rect class="cls-5" x="215.51" y="179.93" width="2.49" height="2.49"/><rect class="cls-5" x="215.51" y="184.11" width="2.49" height="2.49"/><rect class="cls-5" x="215.51" y="188.29" width="2.49" height="2.49"/><rect class="cls-5" x="215.51" y="192.47" width="2.49" height="2.49"/><rect class="cls-5" x="215.51" y="196.64" width="2.49" height="2.49"/><rect class="cls-5" x="215.51" y="200.82" width="2.49" height="2.49"/><rect class="cls-5" x="215.51" y="205" width="2.49" height="2.49"/><rect class="cls-5" x="215.51" y="209.18" width="2.49" height="2.49"/><rect class="cls-5" x="215.51" y="213.36" width="2.49" height="2.49"/><rect class="cls-5" x="215.51" y="217.54" width="2.49" height="2.49"/><rect class="cls-5" x="215.51" y="221.72" width="2.49" height="2.49"/><rect class="cls-5" x="211.55" y="171.57" width="2.49" height="2.49"/><rect class="cls-5" x="211.55" y="175.75" width="2.49" height="2.49"/><rect class="cls-5" x="211.55" y="179.93" width="2.49" height="2.49"/><rect class="cls-5" x="211.55" y="184.11" width="2.49" height="2.49"/><rect class="cls-5" x="211.55" y="188.29" width="2.49" height="2.49"/><rect class="cls-5" x="211.55" y="192.47" width="2.49" height="2.49"/><rect class="cls-5" x="211.55" y="196.64" width="2.49" height="2.49"/><rect class="cls-5" x="211.55" y="200.82" width="2.49" height="2.49"/><rect class="cls-5" x="211.55" y="205" width="2.49" height="2.49"/><rect class="cls-5" x="211.55" y="209.18" width="2.49" height="2.49"/><rect class="cls-5" x="211.55" y="213.36" width="2.49" height="2.49"/><rect class="cls-5" x="211.55" y="217.54" width="2.49" height="2.49"/><rect class="cls-5" x="442.64" y="170.32" width="2.49" height="2.49"/><rect class="cls-5" x="442.64" y="174.5" width="2.49" height="2.49"/><rect class="cls-5" x="442.64" y="178.68" width="2.49" height="2.49"/><rect class="cls-5" x="442.64" y="182.86" width="2.49" height="2.49"/><rect class="cls-5" x="442.64" y="187.04" width="2.49" height="2.49"/><rect class="cls-5" x="442.64" y="191.22" width="2.49" height="2.49"/><rect class="cls-5" x="442.64" y="195.4" width="2.49" height="2.49"/><rect class="cls-5" x="442.64" y="199.58" width="2.49" height="2.49"/><rect class="cls-5" x="442.64" y="203.76" width="2.49" height="2.49"/><rect class="cls-5" x="442.64" y="207.94" width="2.49" height="2.49"/><rect class="cls-5" x="442.64" y="212.11" width="2.49" height="2.49"/><rect class="cls-5" x="442.64" y="216.29" width="2.49" height="2.49"/><rect class="cls-5" x="442.64" y="220.47" width="2.49" height="2.49"/><rect class="cls-5" x="442.64" y="224.65" width="2.49" height="2.49"/><rect class="cls-5" x="442.64" y="228.83" width="2.49" height="2.49"/><rect class="cls-5" x="442.64" y="233.01" width="2.49" height="2.49"/><rect class="cls-5" x="442.64" y="237.19" width="2.49" height="2.49"/><rect class="cls-5" x="442.64" y="245.55" width="2.49" height="2.49"/><rect class="cls-5" x="442.64" y="249.73" width="2.49" height="2.49"/><rect class="cls-5" x="442.64" y="253.9" width="2.49" height="2.49"/><rect class="cls-5" x="442.64" y="258.08" width="2.49" height="2.49"/><rect class="cls-5" x="442.64" y="262.26" width="2.49" height="2.49"/><rect class="cls-5" x="438.68" y="170.32" width="2.49" height="2.49"/><rect class="cls-5" x="438.68" y="174.5" width="2.49" height="2.49"/><rect class="cls-5" x="438.68" y="178.68" width="2.49" height="2.49"/><rect class="cls-5" x="438.68" y="182.86" width="2.49" height="2.49"/><rect class="cls-5" x="438.68" y="187.04" width="2.49" height="2.49"/><rect class="cls-5" x="438.68" y="191.22" width="2.49" height="2.49"/><rect class="cls-5" x="438.68" y="195.4" width="2.49" height="2.49"/><rect class="cls-5" x="438.68" y="199.58" width="2.49" height="2.49"/><rect class="cls-5" x="438.68" y="203.76" width="2.49" height="2.49"/><rect class="cls-5" x="438.68" y="207.94" width="2.49" height="2.49"/><rect class="cls-5" x="438.68" y="212.11" width="2.49" height="2.49"/><rect class="cls-5" x="438.68" y="216.29" width="2.49" height="2.49"/><rect class="cls-5" x="438.68" y="220.47" width="2.49" height="2.49"/><rect class="cls-5" x="438.68" y="224.65" width="2.49" height="2.49"/><rect class="cls-5" x="438.68" y="228.83" width="2.49" height="2.49"/><rect class="cls-5" x="438.68" y="233.01" width="2.49" height="2.49"/><rect class="cls-5" x="438.68" y="258.08" width="2.49" height="2.49"/><rect class="cls-5" x="438.68" y="262.26" width="2.49" height="2.49"/><rect class="cls-5" x="434.73" y="170.32" width="2.49" height="2.49"/><rect class="cls-5" x="434.73" y="174.5" width="2.49" height="2.49"/><rect class="cls-5" x="434.73" y="178.68" width="2.49" height="2.49"/><rect class="cls-5" x="434.73" y="182.86" width="2.49" height="2.49"/><rect class="cls-5" x="434.73" y="187.04" width="2.49" height="2.49"/><rect class="cls-5" x="434.73" y="191.22" width="2.49" height="2.49"/><rect class="cls-5" x="434.73" y="195.4" width="2.49" height="2.49"/><rect class="cls-5" x="434.73" y="199.58" width="2.49" height="2.49"/><rect class="cls-5" x="434.73" y="203.76" width="2.49" height="2.49"/><rect class="cls-5" x="434.73" y="207.94" width="2.49" height="2.49"/><rect class="cls-5" x="434.73" y="212.11" width="2.49" height="2.49"/><rect class="cls-5" x="434.73" y="216.29" width="2.49" height="2.49"/><rect class="cls-5" x="434.73" y="220.47" width="2.49" height="2.49"/><rect class="cls-5" x="434.73" y="224.65" width="2.49" height="2.49"/><rect class="cls-5" x="434.73" y="228.83" width="2.49" height="2.49"/><rect class="cls-5" x="434.73" y="233.01" width="2.49" height="2.49"/><rect class="cls-5" x="434.73" y="241.37" width="2.49" height="2.49"/><rect class="cls-5" x="434.73" y="245.55" width="2.49" height="2.49"/><rect class="cls-5" x="434.73" y="249.73" width="2.49" height="2.49"/><rect class="cls-5" x="434.73" y="253.9" width="2.49" height="2.49"/><rect class="cls-5" x="434.73" y="262.26" width="2.49" height="2.49"/><rect class="cls-5" x="365.66" y="199.58" width="2.49" height="2.49"/><rect class="cls-5" x="365.66" y="203.76" width="2.49" height="2.49"/><rect class="cls-5" x="365.66" y="207.94" width="2.49" height="2.49"/><rect class="cls-5" x="365.66" y="212.11" width="2.49" height="2.49"/><rect class="cls-5" x="365.66" y="216.29" width="2.49" height="2.49"/><rect class="cls-5" x="365.66" y="220.47" width="2.49" height="2.49"/><rect class="cls-5" x="365.66" y="224.65" width="2.49" height="2.49"/><rect class="cls-5" x="365.66" y="228.83" width="2.49" height="2.49"/><rect class="cls-5" x="365.66" y="233.01" width="2.49" height="2.49"/><rect class="cls-5" x="365.66" y="237.19" width="2.49" height="2.49"/><rect class="cls-5" x="365.66" y="241.37" width="2.49" height="2.49"/><rect class="cls-5" x="365.66" y="245.55" width="2.49" height="2.49"/><rect class="cls-5" x="365.66" y="249.73" width="2.49" height="2.49"/><rect class="cls-5" x="365.66" y="258.08" width="2.49" height="2.49"/><rect class="cls-5" x="365.66" y="262.26" width="2.49" height="2.49"/><rect class="cls-5" x="365.66" y="266.44" width="2.49" height="2.49"/><rect class="cls-5" x="365.66" y="270.62" width="2.49" height="2.49"/><rect class="cls-5" x="365.66" y="278.98" width="2.49" height="2.49"/><rect class="cls-5" x="365.66" y="283.16" width="2.49" height="2.49"/><rect class="cls-5" x="365.66" y="287.34" width="2.49" height="2.49"/><rect class="cls-5" x="361.7" y="199.58" width="2.49" height="2.49"/><rect class="cls-5" x="361.7" y="203.76" width="2.49" height="2.49"/><rect class="cls-5" x="361.7" y="207.94" width="2.49" height="2.49"/><rect class="cls-5" x="361.7" y="212.11" width="2.49" height="2.49"/><rect class="cls-5" x="361.7" y="216.29" width="2.49" height="2.49"/><rect class="cls-5" x="361.7" y="220.47" width="2.49" height="2.49"/><rect class="cls-5" x="361.7" y="224.65" width="2.49" height="2.49"/><rect class="cls-5" x="361.7" y="228.83" width="2.49" height="2.49"/><rect class="cls-5" x="361.7" y="233.01" width="2.49" height="2.49"/><rect class="cls-5" x="361.7" y="237.19" width="2.49" height="2.49"/><rect class="cls-5" x="361.7" y="241.37" width="2.49" height="2.49"/><rect class="cls-5" x="361.7" y="245.55" width="2.49" height="2.49"/><rect class="cls-5" x="361.7" y="249.73" width="2.49" height="2.49"/><rect class="cls-5" x="361.7" y="262.26" width="2.49" height="2.49"/><rect class="cls-5" x="361.7" y="266.44" width="2.49" height="2.49"/><rect class="cls-5" x="361.7" y="274.8" width="2.49" height="2.49"/><rect class="cls-5" x="361.7" y="278.98" width="2.49" height="2.49"/><rect class="cls-5" x="361.7" y="283.16" width="2.49" height="2.49"/><rect class="cls-5" x="361.7" y="287.34" width="2.49" height="2.49"/><rect class="cls-5" x="357.74" y="199.58" width="2.49" height="2.49"/><rect class="cls-5" x="357.74" y="203.76" width="2.49" height="2.49"/><rect class="cls-5" x="357.74" y="207.94" width="2.49" height="2.49"/><rect class="cls-5" x="357.74" y="212.11" width="2.49" height="2.49"/><rect class="cls-5" x="357.74" y="216.29" width="2.49" height="2.49"/><rect class="cls-5" x="357.74" y="220.47" width="2.49" height="2.49"/><rect class="cls-5" x="357.74" y="224.65" width="2.49" height="2.49"/><rect class="cls-5" x="357.74" y="228.83" width="2.49" height="2.49"/><rect class="cls-5" x="357.74" y="233.01" width="2.49" height="2.49"/><rect class="cls-5" x="357.74" y="237.19" width="2.49" height="2.49"/><rect class="cls-5" x="357.74" y="241.37" width="2.49" height="2.49"/><rect class="cls-5" x="357.74" y="245.55" width="2.49" height="2.49"/><rect class="cls-5" x="357.74" y="249.73" width="2.49" height="2.49"/><rect class="cls-5" x="357.74" y="253.9" width="2.49" height="2.49"/><rect class="cls-5" x="357.74" y="262.26" width="2.49" height="2.49"/><rect class="cls-5" x="357.74" y="270.62" width="2.49" height="2.49"/><rect class="cls-5" x="357.74" y="274.8" width="2.49" height="2.49"/><rect class="cls-5" x="357.74" y="278.98" width="2.49" height="2.49"/><rect class="cls-5" x="357.74" y="283.16" width="2.49" height="2.49"/><rect class="cls-5" x="357.74" y="287.34" width="2.49" height="2.49"/><rect class="cls-5" x="381.79" y="223.41" width="2.49" height="2.49"/><rect class="cls-5" x="381.79" y="227.58" width="2.49" height="2.49"/><rect class="cls-5" x="381.79" y="231.76" width="2.49" height="2.49"/><rect class="cls-5" x="381.79" y="235.94" width="2.49" height="2.49"/><rect class="cls-5" x="381.79" y="240.12" width="2.49" height="2.49"/><rect class="cls-5" x="381.79" y="244.3" width="2.49" height="2.49"/><rect class="cls-5" x="381.79" y="256.84" width="2.49" height="2.49"/><rect class="cls-5" x="381.79" y="261.02" width="2.49" height="2.49"/><rect class="cls-5" x="381.79" y="265.19" width="2.49" height="2.49"/><rect class="cls-5" x="381.79" y="269.37" width="2.49" height="2.49"/><rect class="cls-5" x="381.79" y="273.55" width="2.49" height="2.49"/><rect class="cls-5" x="381.79" y="277.73" width="2.49" height="2.49"/><rect class="cls-5" x="381.79" y="281.91" width="2.49" height="2.49"/><rect class="cls-5" x="377.83" y="223.41" width="2.49" height="2.49"/><rect class="cls-5" x="377.83" y="227.58" width="2.49" height="2.49"/><rect class="cls-5" x="377.83" y="231.76" width="2.49" height="2.49"/><rect class="cls-5" x="377.83" y="235.94" width="2.49" height="2.49"/><rect class="cls-5" x="377.83" y="240.12" width="2.49" height="2.49"/><rect class="cls-5" x="377.83" y="244.3" width="2.49" height="2.49"/><rect class="cls-5" x="377.83" y="256.84" width="2.49" height="2.49"/><rect class="cls-5" x="377.83" y="261.02" width="2.49" height="2.49"/><rect class="cls-5" x="377.83" y="265.19" width="2.49" height="2.49"/><rect class="cls-5" x="377.83" y="269.37" width="2.49" height="2.49"/><rect class="cls-5" x="377.83" y="273.55" width="2.49" height="2.49"/><rect class="cls-5" x="377.83" y="277.73" width="2.49" height="2.49"/><rect class="cls-5" x="377.83" y="286.09" width="2.49" height="2.49"/><rect class="cls-5" x="246.3" y="205" width="2.49" height="2.49"/><rect class="cls-5" x="246.3" y="209.18" width="2.49" height="2.49"/><rect class="cls-5" x="246.3" y="213.36" width="2.49" height="2.49"/><rect class="cls-5" x="246.3" y="217.54" width="2.49" height="2.49"/><rect class="cls-5" x="246.3" y="221.72" width="2.49" height="2.49"/><rect class="cls-5" x="246.3" y="225.9" width="2.49" height="2.49"/><rect class="cls-5" x="246.3" y="230.08" width="2.49" height="2.49"/><rect class="cls-5" x="246.3" y="234.26" width="2.49" height="2.49"/><rect class="cls-5" x="246.3" y="238.43" width="2.49" height="2.49"/><rect class="cls-5" x="246.3" y="242.61" width="2.49" height="2.49"/><rect class="cls-5" x="246.3" y="246.79" width="2.49" height="2.49"/><rect class="cls-5" x="246.3" y="255.15" width="2.49" height="2.49"/><rect class="cls-5" x="246.3" y="259.33" width="2.49" height="2.49"/><rect class="cls-5" x="246.3" y="263.51" width="2.49" height="2.49"/><rect class="cls-5" x="246.3" y="267.69" width="2.49" height="2.49"/><rect class="cls-5" x="246.3" y="271.87" width="2.49" height="2.49"/><rect class="cls-5" x="246.3" y="276.05" width="2.49" height="2.49"/><rect class="cls-5" x="246.3" y="280.22" width="2.49" height="2.49"/><rect class="cls-5" x="246.3" y="284.4" width="2.49" height="2.49"/><rect class="cls-5" x="242.35" y="205" width="2.49" height="2.49"/><rect class="cls-5" x="242.35" y="209.18" width="2.49" height="2.49"/><rect class="cls-5" x="242.35" y="213.36" width="2.49" height="2.49"/><rect class="cls-5" x="242.35" y="217.54" width="2.49" height="2.49"/><rect class="cls-5" x="242.35" y="221.72" width="2.49" height="2.49"/><rect class="cls-5" x="242.35" y="225.9" width="2.49" height="2.49"/><rect class="cls-5" x="242.35" y="230.08" width="2.49" height="2.49"/><rect class="cls-5" x="242.35" y="234.26" width="2.49" height="2.49"/><rect class="cls-5" x="242.35" y="238.43" width="2.49" height="2.49"/><rect class="cls-5" x="242.35" y="242.61" width="2.49" height="2.49"/><rect class="cls-5" x="242.35" y="246.79" width="2.49" height="2.49"/><rect class="cls-5" x="242.35" y="250.97" width="2.49" height="2.49"/><rect class="cls-5" x="242.35" y="255.15" width="2.49" height="2.49"/><rect class="cls-5" x="242.35" y="259.33" width="2.49" height="2.49"/><rect class="cls-5" x="242.35" y="263.51" width="2.49" height="2.49"/><rect class="cls-5" x="242.35" y="267.69" width="2.49" height="2.49"/><rect class="cls-5" x="242.35" y="271.87" width="2.49" height="2.49"/><rect class="cls-5" x="242.35" y="276.05" width="2.49" height="2.49"/><rect class="cls-5" x="242.35" y="280.22" width="2.49" height="2.49"/><rect class="cls-5" x="242.35" y="284.4" width="2.49" height="2.49"/><rect class="cls-5" x="265.81" y="221.28" width="2.49" height="2.49"/><rect class="cls-5" x="265.81" y="225.46" width="2.49" height="2.49"/><rect class="cls-5" x="265.81" y="229.64" width="2.49" height="2.49"/><rect class="cls-5" x="265.81" y="233.82" width="2.49" height="2.49"/><rect class="cls-5" x="265.81" y="237.99" width="2.49" height="2.49"/><rect class="cls-5" x="265.81" y="242.17" width="2.49" height="2.49"/><rect class="cls-5" x="265.81" y="246.35" width="2.49" height="2.49"/><rect class="cls-5" x="265.81" y="250.53" width="2.49" height="2.49"/><rect class="cls-5" x="265.81" y="254.71" width="2.49" height="2.49"/><rect class="cls-5" x="265.81" y="258.89" width="2.49" height="2.49"/><rect class="cls-5" x="261.85" y="221.28" width="2.49" height="2.49"/><rect class="cls-5" x="261.85" y="225.46" width="2.49" height="2.49"/><rect class="cls-5" x="261.85" y="229.64" width="2.49" height="2.49"/><rect class="cls-5" x="261.85" y="233.82" width="2.49" height="2.49"/><rect class="cls-5" x="261.85" y="237.99" width="2.49" height="2.49"/><rect class="cls-5" x="261.85" y="242.17" width="2.49" height="2.49"/><rect class="cls-5" x="261.85" y="246.35" width="2.49" height="2.49"/><rect class="cls-5" x="261.85" y="250.53" width="2.49" height="2.49"/><rect class="cls-5" x="261.85" y="254.71" width="2.49" height="2.49"/><rect class="cls-2" x="283.71" y="62.69" width="4.18" height="233.08"/><rect class="cls-2" x="362.42" y="62.69" width="4.18" height="233.08"/><rect class="cls-2" x="441.12" y="62.69" width="4.18" height="233.08"/><path class="cls-5" d="M147.82,273.09H173.6A4.41,4.41,0,0,1,178,277.5v49.83a0,0,0,0,1,0,0H143.42a0,0,0,0,1,0,0V277.5A4.41,4.41,0,0,1,147.82,273.09Z"/><rect class="cls-4" x="143.42" y="280.42" width="34.59" height="3.89"/><path class="cls-2" d="M163.09,320.76h8.62a2.37,2.37,0,0,1,2.37,2.37v4.2a0,0,0,0,1,0,0H160.71a0,0,0,0,1,0,0v-4.2A2.37,2.37,0,0,1,163.09,320.76Z"/><path class="cls-4" d="M174.12,382.28h-9.58a1.54,1.54,0,0,1-1.54-1.54h0a1.54,1.54,0,0,1,1.54-1.53h9.58a1.54,1.54,0,0,1,1.54,1.53h0A1.54,1.54,0,0,1,174.12,382.28Z" transform="translate(0 -54.95)"/><circle class="cls-2" cx="322.3" cy="83.77" r="23.55" transform="translate(-10.62 21.34) rotate(-13.28)"/><circle class="cls-5" cx="322.3" cy="83.77" r="20.03" transform="translate(-9.26 -2.24) rotate(-9.22)"/><polyline class="cls-6" points="323.25 15.07 323.25 29.07 332.52 23.82"/><path class="cls-2" d="M96.93,313.64c-1.8-3-4.76-.39-4.76-.39.42-5.68-4.8-9.56-4.8-9.56s6.07,0,6.91-5.79-2.11-3.1-4.89-3.14-5.69,8.08-2,12.65,2.68,12.37-5.79,19.87a16.64,16.64,0,0,0-4.42,6.9c.64-6.89,1-16.6-1-23.08-3.44-11,3.12-14,5-19.48s-5-10.16-5-10.16,6.51-3,3.33-6.35-9.74-2.93-9.74,1.5,4.45,6.12,4.45,6.12,5.08,5.29,5.08,8-5.08,8.68-5.08,8.68,2.33-5.07-2.33-5.28-6.14,5.92-4.23,8.67,5.08.43,5.08.43a54,54,0,0,0,1.45,9.52c.48,1.59.26,7.8-.14,14.26a16.11,16.11,0,0,0-4.13-6.12c-8.47-7.5-9.45-15.3-5.78-19.87s.76-12.69-2-12.65-5.75-2.66-4.9,3.13,6.92,5.8,6.92,5.8-5.23,3.88-4.81,9.56c0,0-3-2.58-4.76.39-3.21,5.29,4.24,8.57,5.49,6,0,0,15.79,11.18,12,27.27l.88,1.31c-.11,1.3-.18,2.08-.18,2.08l1.23-.53,1.41,2.07a48.41,48.41,0,0,0,.36,7l3.77-5.58c-3.81-16.09,12-27.27,12-27.27C92.7,322.22,100.14,318.93,96.93,313.64Z" transform="translate(0 -54.95)"/><path class="cls-7" d="M96.93,313.64c-1.8-3-4.76-.39-4.76-.39.42-5.68-4.8-9.56-4.8-9.56s6.07,0,6.91-5.79-2.11-3.1-4.89-3.14-5.69,8.08-2,12.65,2.68,12.37-5.79,19.87a16.64,16.64,0,0,0-4.42,6.9c.64-6.89,1-16.6-1-23.08-3.44-11,3.12-14,5-19.48s-5-10.16-5-10.16,6.51-3,3.33-6.35-9.74-2.93-9.74,1.5,4.45,6.12,4.45,6.12,5.08,5.29,5.08,8-5.08,8.68-5.08,8.68,2.33-5.07-2.33-5.28-6.14,5.92-4.23,8.67,5.08.43,5.08.43a54,54,0,0,0,1.45,9.52c.48,1.59.26,7.8-.14,14.26a16.11,16.11,0,0,0-4.13-6.12c-8.47-7.5-9.45-15.3-5.78-19.87s.76-12.69-2-12.65-5.75-2.66-4.9,3.13,6.92,5.8,6.92,5.8-5.23,3.88-4.81,9.56c0,0-3-2.58-4.76.39-3.21,5.29,4.24,8.57,5.49,6,0,0,15.79,11.18,12,27.27l.88,1.31c-.11,1.3-.18,2.08-.18,2.08l1.23-.53,1.41,2.07a48.41,48.41,0,0,0,.36,7l3.77-5.58c-3.81-16.09,12-27.27,12-27.27C92.7,322.22,100.14,318.93,96.93,313.64Z" transform="translate(0 -54.95)"/><polygon class="cls-4" points="93.84 327.33 57.67 327.33 53.77 287.72 97.75 287.72 93.84 327.33"/><rect class="cls-5" x="51.83" y="283.35" width="47.84" height="8.74"/></g><g id="Shadow"><ellipse id="_Path_" data-name="&lt;Path&gt;" class="cls-3" cx="250" cy="361.29" rx="193.89" ry="11.32"/></g><g id="Plant"><path class="cls-8" d="M410.45,384.72c.15-1,3.65-25.17-3.36-33.51a7.59,7.59,0,0,0-5.82-2.87c-14.16-.33-16.09,11-16.11,11.15l1.67.26c.06-.41,1.74-10,14.4-9.72a5.92,5.92,0,0,1,4.57,2.26c6.52,7.77,3,31.93,3,32.18Z" transform="translate(0 -54.95)"/><path class="cls-8" d="M411.3,383.62l1.69-.06c0-.22-.56-22.25,10.29-26.8,10.64-4.45,15.43,4.71,15.62,5.1l1.51-.76c-.05-.11-5.67-11-17.78-5.89C410.71,360.2,411.27,382.66,411.3,383.62Z" transform="translate(0 -54.95)"/><path class="cls-8" d="M411.25,385.35c0-.35.11-35.19,6.9-45.38,6.52-9.79,17-5.18,17.49-5l.69-1.54c-.12-.05-12.26-5.41-19.59,5.58-7.07,10.61-7.17,44.86-7.17,46.32Z" transform="translate(0 -54.95)"/><path class="cls-8" d="M399.24,349.18s6.18,2.28,4.34,7.65-21.37,14.23-21.37,14.23-8.19-7.5-.67-19.7S399.07,345.33,399.24,349.18Z" transform="translate(0 -54.95)"/><path class="cls-8" d="M418.45,338.13s-4.38-.47-4-3.14,17.06-9.55,26.91,1.57c0,0-6.31,10.84-15.43,11S418.45,338.13,418.45,338.13Z" transform="translate(0 -54.95)"/><path class="cls-8" d="M423,356s-3-2.44.24-3.63,19.3-.86,19.46,15c0,0-18.67,3.11-21-2.94S423,356,423,356Z" transform="translate(0 -54.95)"/><path class="cls-9" d="M399.24,349.18s6.18,2.28,4.34,7.65-21.37,14.23-21.37,14.23-8.19-7.5-.67-19.7S399.07,345.33,399.24,349.18Z" transform="translate(0 -54.95)"/><path class="cls-9" d="M418.45,338.13s-4.38-.47-4-3.14,17.06-9.55,26.91,1.57c0,0-6.31,10.84-15.43,11S418.45,338.13,418.45,338.13Z" transform="translate(0 -54.95)"/><path class="cls-9" d="M423,356s-3-2.44.24-3.63,19.3-.86,19.46,15c0,0-18.67,3.11-21-2.94S423,356,423,356Z" transform="translate(0 -54.95)"/><polygon class="cls-8" points="395.92 362.12 424.9 362.12 428.02 330.39 392.8 330.39 395.92 362.12"/><polygon class="cls-10" points="395.92 362.12 424.9 362.12 428.02 330.39 392.8 330.39 395.92 362.12"/><rect class="cls-8" x="391.25" y="381.85" width="38.32" height="7" transform="translate(820.82 715.74) rotate(180)"/><rect class="cls-11" x="391.25" y="381.85" width="38.32" height="7" transform="translate(820.82 715.74) rotate(180)"/></g><g id="Chair"><path class="cls-12" d="M363.12,394.33l-28.81-2.83V351H322.89v40.48L294,394.33a5.61,5.61,0,0,0-5.06,5.58v4.33h79.28v-4.33A5.6,5.6,0,0,0,363.12,394.33Z" transform="translate(0 -54.95)"/><path class="cls-11" d="M363.12,394.33l-28.81-2.83V351H322.89v40.48L294,394.33a5.61,5.61,0,0,0-5.06,5.58v4.33h79.28v-4.33A5.6,5.6,0,0,0,363.12,394.33Z" transform="translate(0 -54.95)"/><circle class="cls-12" cx="291.95" cy="354.65" r="7.47"/><circle class="cls-12" cx="365.14" cy="354.65" r="7.47"/><path class="cls-12" d="M320.93,268.69h15.35a0,0,0,0,1,0,0v31.93a4.13,4.13,0,0,1-4.13,4.13h-7.09a4.13,4.13,0,0,1-4.13-4.13V268.69A0,0,0,0,1,320.93,268.69Z"/><path class="cls-13" d="M320.93,268.69h15.35a0,0,0,0,1,0,0v31.93a4.13,4.13,0,0,1-4.13,4.13h-7.09a4.13,4.13,0,0,1-4.13-4.13V268.69A0,0,0,0,1,320.93,268.69Z"/><path class="cls-12" d="M355.9,260.35s2.18,54-12.86,63.29h17.17s13.3-18.39,9.54-63.29Z" transform="translate(0 -54.95)"/><path class="cls-13" d="M355.9,260.35s2.18,54-12.86,63.29h17.17s13.3-18.39,9.54-63.29Z" transform="translate(0 -54.95)"/><path class="cls-12" d="M289.13,316.09h76.92a0,0,0,0,1,0,0v6.69a5,5,0,0,1-5,5H294.13a5,5,0,0,1-5-5v-6.69A0,0,0,0,1,289.13,316.09Z" transform="translate(655.18 588.92) rotate(180)"/><rect class="cls-12" x="285.93" y="321.94" width="83.33" height="5.84" rx="2.01" transform="translate(655.18 594.77) rotate(180)"/><rect class="cls-14" x="285.93" y="321.94" width="83.33" height="5.84" rx="2.01" transform="translate(655.18 594.77) rotate(180)"/><rect class="cls-12" x="331.88" y="176.45" width="56.66" height="39.92" rx="14.58"/></g><g id="Character"><path class="cls-15" d="M263.05,187.28l-5.49-14.47s2.36-2.18.74-4.39-11.74-8.42-13.58-7.33-5.95,5.21-3.73,7.5,12,6.1,12,6.1l4.86,19Z" transform="translate(0 -54.95)"/><path class="cls-8" d="M301.38,214.79s-25-5.13-27.67-6.36S261,177.77,261,177.77l-7.71,3.6s6.2,29.54,12.54,36.56,33.4,13,33.4,13Z" transform="translate(0 -54.95)"/><path class="cls-9" d="M299.17,230.9l-.46-.11c-1.36-.31-5.63-1.31-10.7-2.8-8.23-2.39-18.61-6-22.23-10.05-6.33-7-12.54-36.57-12.54-36.57l7.7-3.6s10.05,29.44,12.77,30.66,27.67,6.36,27.67,6.36Z" transform="translate(0 -54.95)"/><polygon class="cls-8" points="261.07 122.24 262.66 125.31 252.76 128.72 253.14 124.97 261.07 122.24"/><path class="cls-9" d="M299.36,230.49c-1.38-.2-5.71-.87-10.89-2,2.95-5.1,11.59-7.72,11.59-7.72Z" transform="translate(0 -54.95)"/><path class="cls-12" d="M336.58,194.41s1.47,13.83-3.65,17.23-30.33-.58-33.19-6.15,7.9-20.67,7.9-20.67Z" transform="translate(0 -54.95)"/><polygon class="cls-15" points="234.59 321.44 241.17 323.03 244.5 313.95 247.52 305.69 240.03 302.5 237.15 312.52 234.59 321.44"/><polygon class="cls-9" points="237.15 312.52 244.5 313.95 247.52 305.69 240.03 302.5 237.15 312.52"/><path class="cls-8" d="M237.81,362.68l9.12,3.39s24.33-60.83,29.33-61,55.91,23.19,68.67,10.21S339.24,271,339.24,271s-30.69-4.38-33,2.55a48.61,48.61,0,0,0-1.3,6.22c-.35,2.12-.59,3.9-.59,3.9h0c-.95-.24-31.76-8.19-43.9,0C248.1,292,237.81,362.68,237.81,362.68Z" transform="translate(0 -54.95)"/><path class="cls-14" d="M237.81,362.68l9.12,3.39s24.33-60.83,29.33-61,55.91,23.19,68.67,10.21S339.24,271,339.24,271s-30.69-4.38-33,2.55a48.61,48.61,0,0,0-1.3,6.22c-.35,2.12-.59,3.9-.59,3.9h0c-.95-.24-31.76-8.19-43.9,0C248.1,292,237.81,362.68,237.81,362.68Z" transform="translate(0 -54.95)"/><polygon class="cls-15" points="290.27 347.39 296.82 345.71 295.56 336.31 294.39 327.69 286.29 328.42 288.39 338.46 290.27 347.39"/><polygon class="cls-9" points="288.44 338.67 295.6 336.49 294.41 327.78 286.3 328.46 288.44 338.67"/><polygon class="cls-8" points="250.7 307.74 237.41 303.23 236.84 308.67 246.92 312.23 250.7 307.74"/><path class="cls-8" d="M322.89,318.36s-2.08.05-34.27-1.45c0,0,4.81,40.24,7.44,70.37l-9.63,1.64s-23-64.51-22.75-74.76,12-13.25,12-13.25S298.61,314.16,322.89,318.36Z" transform="translate(0 -54.95)"/><path class="cls-14" d="M322.89,318.36s-2.08.05-34.27-1.45c0,0,4.81,40.24,7.44,70.37l-9.63,1.64s-23-64.51-22.75-74.76,12-13.25,12-13.25S298.61,314.16,322.89,318.36Z" transform="translate(0 -54.95)"/><path class="cls-16" d="M322.89,318.36s-2.08.05-34.27-1.45c0,0,4.81,40.24,7.44,70.37l-9.63,1.64s-23-64.51-22.75-74.76,12-13.25,12-13.25S298.61,314.16,322.89,318.36Z" transform="translate(0 -54.95)"/><polygon class="cls-8" points="297.46 329.41 284.23 330.91 286.79 336.1 297.5 334.73 297.46 329.41"/><path class="cls-16" d="M304.35,283.67l17.95,3.74s-9.92-5.48-17.36-7.64C304.59,281.89,304.35,283.67,304.35,283.67Z" transform="translate(0 -54.95)"/><polygon class="cls-12" points="338.5 211.27 339.24 216.05 306.24 218.59 305.37 212.95 338.5 211.27"/><polygon class="cls-9" points="338.5 211.27 339.24 216.05 306.24 218.59 305.37 212.95 338.5 211.27"/><rect class="cls-8" x="327.66" y="265.81" width="1.64" height="8.35" transform="translate(682.85 450) rotate(174.13)"/><rect class="cls-17" x="313.25" y="267.66" width="7.24" height="5.49" transform="translate(650.44 464.98) rotate(176.32)"/><rect class="cls-8" x="307.4" y="266.7" width="1.64" height="8.35" transform="translate(642.54 453.83) rotate(174.13)"/><rect class="cls-14" x="327.66" y="265.81" width="1.64" height="8.35" transform="translate(682.85 450) rotate(174.13)"/><rect class="cls-14" x="307.4" y="266.7" width="1.64" height="8.35" transform="translate(642.54 453.83) rotate(174.13)"/><path class="cls-8" d="M300.78,214.34a60,60,0,0,0,19,2.09C330.38,215.89,343,221,343,221l-4.54,45.2-33.14,1.67S294.23,230.16,300.78,214.34Z" transform="translate(0 -54.95)"/><path class="cls-12" d="M306.11,188.81s1.86-21.94,20.2-14c23,10,4.72,36.74-6.53,31.26S306.11,188.81,306.11,188.81Z" transform="translate(0 -54.95)"/><path class="cls-9" d="M311.25,217.66l.53,12.4,4.11-5.83s-1.47,13.71-.61,21.18c0,0,.79-13.39,2.65-21.18l4.37,5.83,6.27-12.32S318.42,214.09,311.25,217.66Z" transform="translate(0 -54.95)"/><path class="cls-15" d="M316.93,220l9.49-2.68c-5.85-4-2.9-13-2.9-13l-9.4,3.3a27.67,27.67,0,0,1,1,4c1,5.86-1.66,6.33-1.66,6.33Z" transform="translate(0 -54.95)"/><path class="cls-9" d="M314.12,207.57a27.67,27.67,0,0,1,1,4c4.5-1.81,8.39-7.32,8.39-7.32Z" transform="translate(0 -54.95)"/><path class="cls-15" d="M320.26,179.45c-8.33-1.84-12,2-14.5,10.46-3.13,10.55-2.44,18.69,8.47,18.71C329.05,208.64,334.08,182.51,320.26,179.45Z" transform="translate(0 -54.95)"/><path class="cls-18" d="M311.24,190.64a17.72,17.72,0,0,1-3.18,2.91,2.34,2.34,0,0,0,2,1.43Z" transform="translate(0 -54.95)"/><path class="cls-12" d="M316.49,191.08c-.17.68.06,1.33.52,1.44s.95-.35,1.12-1-.06-1.32-.52-1.44S316.66,190.4,316.49,191.08Z" transform="translate(0 -54.95)"/><path class="cls-12" d="M317.79,190.13l-1.33-.94S316.89,190.62,317.79,190.13Z" transform="translate(0 -54.95)"/><path class="cls-12" d="M308.07,188.86c-.17.68.06,1.33.52,1.44s1-.35,1.12-1-.06-1.32-.52-1.44S308.24,188.18,308.07,188.86Z" transform="translate(0 -54.95)"/><path class="cls-12" d="M309.37,187.91,308,187S308.47,188.39,309.37,187.91Z" transform="translate(0 -54.95)"/><path class="cls-19" d="M317.84,185.36a4.45,4.45,0,0,1,3.34,2" transform="translate(0 -54.95)"/><path class="cls-19" d="M311.87,183.67a4,4,0,0,0-3.47,0" transform="translate(0 -54.95)"/><path class="cls-12" d="M326.25,195.49s-2.38-7.7-.62-12.85c0,0-15-10.39-19.52,6.17,0,0,1.67-15.22,16.06-12.38s9.68,23.75.91,28.35C323.08,204.78,327.71,200.3,326.25,195.49Z" transform="translate(0 -54.95)"/><path class="cls-15" d="M324.5,197a3.74,3.74,0,0,1,4.67-2.47c2.52.85,2.57,6.42-4.12,6.27C324.08,200.73,323.76,199.72,324.5,197Z" transform="translate(0 -54.95)"/><path class="cls-12" d="M308.55,198.14a21.29,21.29,0,0,1,.44,3.1l.54,0c2.49.21,3.71-.52,4.31-1.38a3.17,3.17,0,0,0,.52-1.43,3,3,0,0,0,0-.87,11.84,11.84,0,0,1-5,.59C308.88,198.18,308.55,198.14,308.55,198.14Z" transform="translate(0 -54.95)"/><path class="cls-17" d="M309.4,198.2l.15.91c2.34.19,4,0,4.81-.63a3,3,0,0,0,0-.87A11.84,11.84,0,0,1,309.4,198.2Z" transform="translate(0 -54.95)"/><path class="cls-18" d="M309.53,201.29c2.49.21,3.71-.52,4.31-1.38a8.07,8.07,0,0,0-2.8.31A3,3,0,0,0,309.53,201.29Z" transform="translate(0 -54.95)"/><path class="cls-12" d="M320.29,180.12s.32,14.43,9,16.17-.8-18.56-.8-18.56-12.9-8.42-21.5-2.48-.86,13.56-.86,13.56S307.92,178.09,320.29,180.12Z" transform="translate(0 -54.95)"/><path class="cls-20" d="M320.59,179.16s-3.09,9.13,3,13.92" transform="translate(0 -54.95)"/><path class="cls-8" d="M331.8,199.25c-1.1,2.94-3.93,4.59-6.32,3.7s-3.43-4-2.33-6.94,3.93-4.59,6.32-3.69S332.9,196.32,331.8,199.25Z" transform="translate(0 -54.95)"/><path class="cls-21" d="M331.8,199.25c-1.1,2.94-3.93,4.59-6.32,3.7s-3.43-4-2.33-6.94,3.93-4.59,6.32-3.69S332.9,196.32,331.8,199.25Z" transform="translate(0 -54.95)"/><path class="cls-8" d="M329,194.44s3.59-16.07-4.46-20.28a22.24,22.24,0,0,1,2.72.53c1,.3,7.47,6.82,4.22,21.26Z" transform="translate(0 -54.95)"/><path class="cls-9" d="M329,194.44s3.59-16.07-4.46-20.28a22.24,22.24,0,0,1,2.72.53c1,.3,7.47,6.82,4.22,21.26Z" transform="translate(0 -54.95)"/><path class="cls-8" d="M314,203.64l-.6-.09.16-1a18.34,18.34,0,0,0,12.69-2.69l.59.8A18.85,18.85,0,0,1,314,203.64Z" transform="translate(0 -54.95)"/><g class="cls-22"><path d="M314,203.64l-.6-.09.16-1a18.34,18.34,0,0,0,12.69-2.69l.59.8A18.85,18.85,0,0,1,314,203.64Z" transform="translate(0 -54.95)"/></g><path class="cls-8" d="M331.46,198.85c-.72,1.94-2.6,3-4.17,2.44s-2.27-2.64-1.54-4.58,2.6-3,4.17-2.44S332.19,196.91,331.46,198.85Z" transform="translate(0 -54.95)"/><path class="cls-8" d="M313.06,204l-.81-.11a1.08,1.08,0,0,1-.93-1.22h0a1.08,1.08,0,0,1,1.22-.94l.8.11a1.1,1.1,0,0,1,.94,1.22h0A1.1,1.1,0,0,1,313.06,204Z" transform="translate(0 -54.95)"/><path class="cls-21" d="M313.06,204l-.81-.11a1.08,1.08,0,0,1-.93-1.22h0a1.08,1.08,0,0,1,1.22-.94l.8.11a1.1,1.1,0,0,1,.94,1.22h0A1.1,1.1,0,0,1,313.06,204Z" transform="translate(0 -54.95)"/><polygon class="cls-8" points="323.87 158.9 317.93 164.73 320.31 171.88 328.57 162.78 323.87 158.9"/><polygon class="cls-8" points="315.28 160.12 316.24 164.61 313.17 170.96 311.25 162.71 315.28 160.12"/><path class="cls-15" d="M322.6,218.91l3.45-12.63s-1.67-3.14-1.31-3.8,2.16-9.14,3.44-10.06,6.55.65,7.08,1.51-5.05,12.35-5.05,12.35l-2,13.69Z" transform="translate(0 -54.95)"/><path class="cls-8" d="M343,221c9.5,9.72-9.53,31.74-20.44,30.8s.28-40.86.28-40.86l7,1.15s-2.45,17.28-1.68,18.63S339.85,217.77,343,221Z" transform="translate(0 -54.95)"/><path class="cls-9" d="M343,221c9.5,9.72-9.53,31.74-20.44,30.8s.28-40.86.28-40.86l7,1.15s-2.45,17.28-1.68,18.63S339.85,217.77,343,221Z" transform="translate(0 -54.95)"/><polygon class="cls-8" points="322.3 154.74 321.27 158.04 331 158.9 331 156.02 322.3 154.74"/><rect class="cls-14" x="302.82" y="180.85" width="5.52" height="9.02" rx="0.79"/><rect class="cls-9" x="303.15" y="181.44" width="4.48" height="6.13"/><rect class="cls-12" x="305" y="178.67" width="0.99" height="3.61"/><path class="cls-8" d="M223.71,389.17a8.88,8.88,0,0,1,3.17-.81h0s3.8-2.23,7.56-10.92l4.23,0a3.48,3.48,0,0,1,3.26,2.33,1.87,1.87,0,0,1,.12.58,26.08,26.08,0,0,1-.33,3.05,84.35,84.35,0,0,1-2.47,10l-.72-.18,1.3-6.32c.44-2.14-1.82-.07-2.86,2.09s-2.65,4.35-7.33,3.28C224.19,390.93,222,390.15,223.71,389.17Z" transform="translate(0 -54.95)"/><path class="cls-15" d="M235.21,375.17s-5.29,11.06-8.33,13.19c0,0,4.08,2.43,8.33-3,5.49-7,6.84-5.05,6.84-5.05a20.1,20.1,0,0,0-.67-3.57C240.56,374.5,235.21,375.17,235.21,375.17Z" transform="translate(0 -54.95)"/><path class="cls-8" d="M281.93,415.52a9.25,9.25,0,0,1,2.89-1.54h0s3.16-3.07,4.75-12.4l4.11-1a3.49,3.49,0,0,1,3.71,1.5,2.07,2.07,0,0,1,.26.54,23.88,23.88,0,0,1,.41,3,84.1,84.1,0,0,1-.05,10.26h-.74l-.23-6.44c-.09-2.19-1.78.36-2.29,2.71s-1.54,4.84-6.34,4.91C282.82,417.12,280.5,416.88,281.93,415.52Z" transform="translate(0 -54.95)"/><path class="cls-15" d="M289.78,399.19s-2.51,12-5,14.79c0,0,4.54,1.4,7.38-4.87,3.68-8.1,5.45-6.52,5.45-6.52a20,20,0,0,0-1.49-3.31C294.82,397.28,289.78,399.19,289.78,399.19Z" transform="translate(0 -54.95)"/></g><g id="Speech_bubble" data-name="Speech bubble"><rect class="cls-8" x="342.78" y="102.19" width="45.05" height="25.07" rx="5.07"/><polygon class="cls-8" points="354.85 124.41 344.33 138.71 361.3 125.37 354.85 124.41"/><path class="cls-17" d="M355.24,169.68a1.48,1.48,0,1,1-1.47-1.47A1.47,1.47,0,0,1,355.24,169.68Z" transform="translate(0 -54.95)"/><path class="cls-17" d="M362.93,169.68a1.48,1.48,0,1,1-1.47-1.47A1.47,1.47,0,0,1,362.93,169.68Z" transform="translate(0 -54.95)"/><path class="cls-17" d="M370.62,169.68a1.48,1.48,0,1,1-1.47-1.47A1.47,1.47,0,0,1,370.62,169.68Z" transform="translate(0 -54.95)"/><path class="cls-17" d="M378.31,169.68a1.48,1.48,0,1,1-1.47-1.47A1.47,1.47,0,0,1,378.31,169.68Z" transform="translate(0 -54.95)"/></g><g id="Bird"><rect class="cls-8" x="219.08" y="137.45" width="31.05" height="19.52" rx="1.38" transform="translate(97.86 -148.6) rotate(28.31)"/><rect class="cls-23" x="219.08" y="137.45" width="31.05" height="19.52" rx="1.38" transform="translate(97.86 -148.6) rotate(28.31)"/><path class="cls-9" d="M224.25,133.69,232,148.24a3.18,3.18,0,0,0,3.12,1.66l16.21-1.6-16.5,2.43a3.38,3.38,0,0,1-3.56-1.92Z" transform="translate(0 -54.95)"/><path class="cls-8" d="M205.34,131c.27-5.56,4.39-16.77,9.4-20.2s1.71,1.32,1.71,1.32,4.75-4.62,7.25-4.48,0,3,0,3,5.15-3.17,7.52-3,0,2.91,0,2.91,4.22-3,5.93-1.59-21.89,17-24.52,23.34S205.07,136.61,205.34,131Z" transform="translate(0 -54.95)"/><path class="cls-24" d="M205.34,131c.27-5.56,4.39-16.77,9.4-20.2s1.71,1.32,1.71,1.32,4.75-4.62,7.25-4.48,0,3,0,3,5.15-3.17,7.52-3,0,2.91,0,2.91,4.22-3,5.93-1.59-21.89,17-24.52,23.34S205.07,136.61,205.34,131Z" transform="translate(0 -54.95)"/><path class="cls-8" d="M225.62,130.16l3.15,2a.26.26,0,0,1-.16.48l-3.31-.26.28,2.54a.28.28,0,0,1-.49.22L223.18,133Z" transform="translate(0 -54.95)"/><path class="cls-13" d="M225.62,130.16l3.15,2a.26.26,0,0,1-.16.48l-3.31-.26.28,2.54a.28.28,0,0,1-.49.22L223.18,133Z" transform="translate(0 -54.95)"/><path class="cls-8" d="M181.37,117.64s4.36-3,10.95-1.06c0,0,1.89,8.71,7.08,11.61,2.85,1.59,9.82,1.45,15.34-.33,6.55-2.12,9.75-2.12,10.94.33s-.13,5-5.14,6.19-9,9.89-18.07,10-13.89-9-11.6-17A24.16,24.16,0,0,0,181.37,117.64Z" transform="translate(0 -54.95)"/><path class="cls-10" d="M181.37,117.64s4.36-3,10.95-1.06c0,0,1.89,8.71,7.08,11.61,2.85,1.59,9.82,1.45,15.34-.33,6.55-2.12,9.75-2.12,10.94.33s-.13,5-5.14,6.19-9,9.89-18.07,10-13.89-9-11.6-17A24.16,24.16,0,0,0,181.37,117.64Z" transform="translate(0 -54.95)"/><path class="cls-12" d="M223.18,129.84a.45.45,0,1,1-.45-.45A.45.45,0,0,1,223.18,129.84Z" transform="translate(0 -54.95)"/><path class="cls-8" d="M200.36,137.16c-5.37,1.46-17.31,1-22.11-2.7s.72-2,.72-2-5.85-3.09-6.5-5.51,2.88-.94,2.88-.94-4.6-3.91-5.2-6.21,2.76-.9,2.76-.9-4.19-3.08-3.34-5.15,22.94,15.57,29.77,16.12S205.8,135.68,200.36,137.16Z" transform="translate(0 -54.95)"/><path class="cls-24" d="M200.36,137.16c-5.37,1.46-17.31,1-22.11-2.7s.72-2,.72-2-5.85-3.09-6.5-5.51,2.88-.94,2.88-.94-4.6-3.91-5.2-6.21,2.76-.9,2.76-.9-4.19-3.08-3.34-5.15,22.94,15.57,29.77,16.12S205.8,135.68,200.36,137.16Z" transform="translate(0 -54.95)"/><path class="cls-25" d="M165.16,112.46c-.94-.34-1.89-.65-2.85-.94" transform="translate(0 -54.95)"/><path class="cls-26" d="M156.47,110a79.81,79.81,0,0,0-10.61-1.46c-9.72-.67-25-1.64-30.92,8.05-5.43,8.83,3.91,23.9,7.22,32.09,4.06,10,8.89,22.46,4.09,33.08-9.85,21.84-52,10.5-66.28-9.61" transform="translate(0 -54.95)"/><path class="cls-25" d="M58.36,169.64A26.94,26.94,0,0,1,57,167" transform="translate(0 -54.95)"/></g><g id="Desk"><rect class="cls-17" x="141.85" y="194.09" width="37.96" height="7.78"/><rect class="cls-16" x="141.85" y="194.09" width="37.96" height="7.78"/><rect class="cls-16" x="141.85" y="194.09" width="15.99" height="7.78"/><polygon class="cls-16" points="141.85 195.21 175.64 195.21 141.85 196.17 141.85 195.21"/><polygon class="cls-16" points="179.81 196.56 150.52 197.29 179.81 197.29 179.81 196.56"/><polygon class="cls-16" points="143.4 198.74 157.84 198.15 179.07 198.74 157.84 199.07 143.4 198.74"/><polygon class="cls-16" points="141.85 200.39 166.87 200.39 141.85 200.98 141.85 200.39"/><polygon class="cls-16" points="179.75 200.98 163.04 201.29 179.81 201.29 179.75 200.98"/><rect class="cls-17" x="136.57" y="186.3" width="37.96" height="7.78"/><rect class="cls-16" x="136.57" y="186.3" width="37.96" height="7.78"/><rect class="cls-16" x="136.57" y="186.3" width="15.99" height="7.78"/><polygon class="cls-16" points="136.57 187.43 170.36 187.43 136.57 188.38 136.57 187.43"/><polygon class="cls-16" points="174.53 188.78 145.24 189.5 174.53 189.5 174.53 188.78"/><polygon class="cls-16" points="138.11 190.95 152.55 190.36 173.78 190.95 152.55 191.28 138.11 190.95"/><polygon class="cls-16" points="136.57 192.6 161.59 192.6 136.57 193.19 136.57 192.6"/><polygon class="cls-16" points="174.47 193.19 157.76 193.5 174.53 193.5 174.47 193.19"/><rect class="cls-17" x="140.9" y="178.52" width="37.96" height="7.78"/><rect class="cls-16" x="140.9" y="178.52" width="37.96" height="7.78"/><rect class="cls-16" x="140.9" y="178.52" width="15.99" height="7.78"/><polygon class="cls-16" points="140.9 179.64 174.69 179.64 140.9 180.6 140.9 179.64"/><polygon class="cls-16" points="178.86 180.99 149.57 181.72 178.86 181.72 178.86 180.99"/><polygon class="cls-16" points="142.45 183.17 156.89 182.57 178.12 183.17 156.89 183.5 142.45 183.17"/><polygon class="cls-16" points="140.9 184.82 165.92 184.82 140.9 185.41 140.9 184.82"/><polygon class="cls-16" points="178.81 185.41 162.1 185.72 178.86 185.72 178.81 185.41"/><polygon class="cls-12" points="204.15 201.71 205.13 197.98 245.69 197.98 264.36 199.85 265.07 201.71 204.15 201.71"/><polygon class="cls-21" points="245.69 197.98 245.69 201.71 204.15 201.71 205.13 197.98 245.69 197.98"/><path class="cls-12" d="M237.54,235.08a3.19,3.19,0,0,1-3.22,3.57H172.2a4,4,0,0,1-3.89-3.57l-3.69-39.77a3.41,3.41,0,0,1,.08-1.16,3.17,3.17,0,0,1,3.14-2.41H230a4,4,0,0,1,3.89,3.57Z" transform="translate(0 -54.95)"/><path class="cls-21" d="M234.1,238.65H172.2a4,4,0,0,1-3.89-3.57l-3.69-39.77a3.41,3.41,0,0,1,.08-1.16h61.9a4,4,0,0,1,3.89,3.57l3.69,39.77A3.41,3.41,0,0,1,234.1,238.65Z" transform="translate(0 -54.95)"/><polygon class="cls-12" points="191.42 159.3 204.27 159.3 200.85 196.1 221.17 199.15 221.17 201.71 178.37 201.71 178.37 199.15 187.14 196.1 191.42 159.3"/><polygon class="cls-27" points="204.27 159.3 194.75 201.13 187.14 200.9 191.42 159.3 204.27 159.3"/><polygon class="cls-12" points="204.21 362.12 198.09 362.12 187.08 208.87 195.21 208.87 204.21 362.12"/><polygon class="cls-24" points="204.22 362.12 198.09 362.12 187.62 216.48 187.08 209.12 195.21 209.12 195.65 216.48 204.22 362.12"/><polygon class="cls-9" points="195.65 216.12 187.62 216.12 187.08 209.12 195.21 209.12 195.65 216.12"/><polygon class="cls-12" points="249.17 362.12 243.05 362.12 242.05 208.87 250.17 208.87 249.17 362.12"/><polygon class="cls-10" points="250.18 209.12 250.02 233.84 249.18 362.12 243.05 362.12 242.21 233.84 242.05 209.12 250.18 209.12"/><polygon class="cls-9" points="250.18 209.12 250.02 234.12 242.21 234.12 242.05 209.12 250.18 209.12"/><polygon class="cls-12" points="314.21 362.12 308.09 362.12 297.08 208.87 305.21 208.87 314.21 362.12"/><polygon class="cls-10" points="314.22 362.12 308.09 362.12 297.62 216.48 297.08 209.12 305.21 209.12 305.65 216.48 314.22 362.12"/><polygon class="cls-9" points="305.65 216.12 297.62 216.12 297.08 209.12 305.21 209.12 305.65 216.12"/><polygon class="cls-12" points="134.13 362.12 128.01 362.12 137.01 208.87 145.14 208.87 134.13 362.12"/><polygon class="cls-10" points="145.14 209.12 144.6 216.48 134.13 362.12 128.01 362.12 136.57 216.48 137.01 209.12 145.14 209.12"/><polygon class="cls-9" points="137.01 209.12 145.14 209.12 144.6 216.12 136.57 216.12 137.01 209.12"/><path class="cls-8" d="M130.57,205H311.65a0,0,0,0,1,0,0v5.51a2.16,2.16,0,0,1-2.16,2.16H132.73a2.16,2.16,0,0,1-2.16-2.16V205A0,0,0,0,1,130.57,205Z"/><path class="cls-14" d="M130.57,205H311.65a0,0,0,0,1,0,0v5.51a2.16,2.16,0,0,1-2.16,2.16H132.73a2.16,2.16,0,0,1-2.16-2.16V205A0,0,0,0,1,130.57,205Z"/><rect class="cls-9" x="130.57" y="205.03" width="181.08" height="3.84"/><path class="cls-8" d="M315.45,261H126.77a2.16,2.16,0,0,1-2.16-2.16h0a2.17,2.17,0,0,1,2.16-2.17H315.45a2.17,2.17,0,0,1,2.16,2.17h0A2.16,2.16,0,0,1,315.45,261Z" transform="translate(0 -54.95)"/><path class="cls-14" d="M315.45,261H126.77a2.16,2.16,0,0,1-2.16-2.16h0a2.17,2.17,0,0,1,2.16-2.17H315.45a2.17,2.17,0,0,1,2.16,2.17h0A2.16,2.16,0,0,1,315.45,261Z" transform="translate(0 -54.95)"/><path class="cls-8" d="M270.81,250l2.32-3.48a2.5,2.5,0,0,1,2.08-1.11h2.94a2.46,2.46,0,0,1,.72.11l10.49,3.18a2.47,2.47,0,0,1,1.42,1.11l1.51,2.53Z" transform="translate(0 -54.95)"/><path class="cls-9" d="M292.29,252.34,277,250.68l-6.21-.68,2.32-3.48a2.5,2.5,0,0,1,2.08-1.11h2.94a2.58,2.58,0,0,1,.73.11l.23.07,10.25,3.11a2.48,2.48,0,0,1,1.43,1.11Z" transform="translate(0 -54.95)"/><path class="cls-9" d="M292.29,252.34,277,250.68l2.09-5.09,10.25,3.11a2.48,2.48,0,0,1,1.43,1.11Z" transform="translate(0 -54.95)"/><path class="cls-8" d="M299.55,256.33v.33H267.13l1.2-4.69a4,4,0,0,1,3.89-3H286.6a3.94,3.94,0,0,1,1.4.25l1.8.67,7.14,2.66A4,4,0,0,1,299.55,256.33Z" transform="translate(0 -54.95)"/><path class="cls-9" d="M299.55,256.33v.33H286.24l.71-5.07a2.13,2.13,0,0,1,2.85-1.69l7.14,2.66A4,4,0,0,1,299.55,256.33Z" transform="translate(0 -54.95)"/><path class="cls-12" d="M288.31,253.22l4.24-12.71a.93.93,0,0,1,1.32-.54h0a1,1,0,0,1,.48,1.08l-3.57,13.56S288.41,255.57,288.31,253.22Z" transform="translate(0 -54.95)"/><polygon class="cls-9" points="270.81 200.66 268.93 200.66 269.29 198.81 271.17 198.81 270.81 200.66"/><polygon class="cls-9" points="273.61 200.58 271.73 200.58 272.09 198.74 273.97 198.74 273.61 200.58"/></g></svg>