<svg id="Layer_1" data-name="Layer 1" xmlns="http://www.w3.org/2000/svg" xmlns:xlink="http://www.w3.org/1999/xlink" viewBox="0 0 292 292"><defs><style>.cls-1{fill:#fff;}.cls-2{fill:url(#linear-gradient);}.cls-3{fill:url(#linear-gradient-2);}.cls-4{fill:url(#linear-gradient-3);}.cls-5{fill:url(#linear-gradient-4);}</style><linearGradient id="linear-gradient" x1="209.47" y1="241.32" x2="554.15" y2="181.06" gradientUnits="userSpaceOnUse"><stop offset="0" stop-color="#ee2b77"/><stop offset="1" stop-color="#fe8f68"/></linearGradient><linearGradient id="linear-gradient-2" x1="231.18" y1="365.5" x2="575.86" y2="305.24" xlink:href="#linear-gradient"/><linearGradient id="linear-gradient-3" x1="231.4" y1="366.76" x2="576.08" y2="306.5" xlink:href="#linear-gradient"/><linearGradient id="linear-gradient-4" x1="219.24" y1="297.21" x2="563.92" y2="236.95" xlink:href="#linear-gradient"/></defs><title>fav</title><circle class="cls-1" cx="146" cy="146" r="146"/><path class="cls-2" d="M357.4,239c.74-19.68,4.64-38.54,14.42-55.88A59,59,0,0,1,383,168.54c15.81-14.6,35.24-13.48,49.55,2.83,11.05,12.6,16.67,27.74,20.09,43.85a155.93,155.93,0,0,1,2.61,19.25c-.65,3,1,5.63,1.5,8.45a4.43,4.43,0,0,1-1.92,4.4,2.84,2.84,0,0,1-3.73-1.09,7.62,7.62,0,0,1-.66-3.22c-.1-2.07.08-4.17-.6-6.19-1.4-11.38-2.68-22.8-6.46-33.69-4.29-12.36-9.87-24-20.34-32.51-11-9-24.8-8.19-35.28,1.58a63.91,63.91,0,0,0-14.45,20.69c-6.62,14.57-9.33,30.05-10.2,45.92,0,1.34,0,2.67,0,4-.16,1.7-.5,3.31-2,4.37a2.83,2.83,0,0,1-2.43.06c-1.86-1.24-2.05-3.15-2.06-5.14A13.32,13.32,0,0,1,357.4,239Z" transform="translate(-257 -112)"/><path class="cls-3" d="M416.53,328.69c2.3,2.27.45,6.15,3.19,8.24-1.09-.68-2.19-1.35-3.28-2C413.14,332.78,413.34,330.71,416.53,328.69Z" transform="translate(-257 -112)"/><path class="cls-4" d="M488.76,317.87h0a6.49,6.49,0,0,0-4-1h0c-1.23-.76-2.48-1.44-4-1h0c-1.84.12-2.17-2.27-3.89-2.34h0c-2.8-1.11-2.81,1.92-4.24,2.86h0l-6.07,4.3h0l-8.16,3c-2.26.38-4.68-.16-6.81,1.08h0l-2.73,0h0c-1.57-1-3.33-.73-5.06-.73h0l-4-1h0l-3-1.19-3-1.75h0l-4.86-3.58c-2.8-3.43-2.8-3.43-4.05-1.55h0l-8.31,13.85c-.36,3.3.08,6.29,3.19,8.24a8.74,8.74,0,0,0,4.78,3h0a6.7,6.7,0,0,0,4.19,2h0l2,.86a10.83,10.83,0,0,0,6.07,2l.31.2.38,0h0c1.5,1.08,3.25.9,5,1,2.7,1.28,5.56.78,8.38.72h0c2.71.13,5.45.51,8-.91h0a21.08,21.08,0,0,0,9-1.8,8,8,0,0,0,5-1.9,5.75,5.75,0,0,0,3.92-2.19c1.41-.88,3.11-1.34,4.05-2.87,2.58-.32,2.93-3.22,4.92-4.22,2.82-.54,2.89-3.81,5-5,3.07-2,4.72-5,6-8.61Z" transform="translate(-257 -112)"/><path class="cls-5" d="M502.15,278.2c-4.47-16.22-14.6-27.62-29.41-35.15-4.19-1.69-8.34-3.74-12.89-3.87-3.48-.1-4.39-1.85-4.6-4.72-.21,2.76-1,5.57.42,8.27h0l-1,4.06c-1.13,0-2.37.45-3.17-.82-.09-1.1-.17-2.21-.26-3.31h0c.4-1.87.8-3.74-.31-5.52h0c-3.09,2.55-7,1.14-10.37,2-1.72.44-3.39,1.05-5.08,1.59-3.48.93-7.07,1.62-10,4a18.84,18.84,0,0,0-8,5,22,22,0,0,0-7.58,7.08,22.24,22.24,0,0,0-7,10c-5.65,8.85-6.21,18.94-7,29-.19,2.3-.35,4.6-.53,6.91a33.43,33.43,0,0,1-6.89,13l-5.89,4.69h0c0,.09,0,.18.05.27l-.38-.11-6.57,3.22a50.75,50.75,0,0,1-16,1.13l-7-2.05c-2.26-1.87-4.95-2.93-7.58-4.11l-.36.09c0-.08,0-.16,0-.24h0l-5-5-5-8.87c.67-4.68-1.32-9.21-.88-13.88.55-6.95,2.47-13.42,6.77-19L345,268a29.57,29.57,0,0,0,7.81-4.09L358,262l-.09-.16c.07,0,.13.08.21.12h0c3.65-2.83,7.89-1,11.84-1.49a21.06,21.06,0,0,1,8.52,2.27,48.5,48.5,0,0,1,5.71,3.32c1.24,1,2.6,1.9,3.8,2.95,2.45,2.16,3.26.77,3.68-1.61.84-3.93,3.63-6.65,5.95-9.68,3.12-4.05,2.87-5.27-1.62-7.59a26.17,26.17,0,0,1-5.54-3.34,24.26,24.26,0,0,0-5.91-3.18,32.62,32.62,0,0,0-3.35-1.07,79.31,79.31,0,0,0-8.89-1.87c-3.36-1.12-7.23.68-10.35-1.77,0,1.32,0,2.65,0,4h0l-1.14,3.94h-2c-1.36-1.42-.95-3.26-1.21-4.95h0c0-1-.09-1.91-.13-2.87l-5.65,2h0c-2.35.59-4.86.6-7,2a16.3,16.3,0,0,0-6.9,3.23h0l-3,.63V210.44c0-6.83,0-6.83-7.06-6.44h-11c-4.28-1.11-5.3.69-5.28,4.85.18,27.94.09,55.87.13,83.81,0,2.8-.19,5.66,1.06,8.31a9.7,9.7,0,0,0,1.08,5.84A23.66,23.66,0,0,0,317.45,317h0c1.4,3.19,2.86,6.33,5.48,8.76a16.75,16.75,0,0,0,5.55,6.21,12.68,12.68,0,0,0,5.39,4.79c1.14,2.53,3.48,3.46,5.82,4.39a6,6,0,0,0,3.83,1.83h0a8.94,8.94,0,0,0,6.12,1.88,17.63,17.63,0,0,0,8.95,2,1.07,1.07,0,0,0,.94.22,26.29,26.29,0,0,0,13.24-.28h0a20.75,20.75,0,0,0,10-2.19,14.45,14.45,0,0,0,7-2.88h0a24.5,24.5,0,0,0,9.09-5.76h0c2.22-1.8,5.12-2.94,5.93-6.12h0a21.81,21.81,0,0,0,8.1-10.83h0c2.65-3.34,3.75-7.34,4.85-11.32,2.4-8.7,1.48-17.8,3.13-26.59A48.92,48.92,0,0,1,428.8,269l9-6h0l11-2.31h0c7.84,0,14.92,2.59,21.64,6.39h0c3.59,2.71,4.85,7.77,8.66,9.86a43.6,43.6,0,0,0,20.1,5C502.18,282,503,281.27,502.15,278.2Z" transform="translate(-257 -112)"/></svg>