<svg id="Layer_1" data-name="Layer 1" xmlns="http://www.w3.org/2000/svg" viewBox="0 0 556.58 189.49"><defs><style>.cls-1{fill:#fff;}</style></defs><title>logo</title><path class="cls-1" d="M353.64,240.18c.74-19.68,4.64-38.53,14.42-55.88a59,59,0,0,1,11.18-14.58c15.81-14.6,35.24-13.48,49.55,2.83,11,12.6,16.67,27.74,20.09,43.86a157.43,157.43,0,0,1,2.61,19.24c-.65,3,1,5.63,1.5,8.45a4.42,4.42,0,0,1-1.92,4.4c-1.51.53-2.81.35-3.73-1.09a7.47,7.47,0,0,1-.66-3.22c-.1-2.07.08-4.17-.6-6.19-1.4-11.38-2.68-22.8-6.46-33.69-4.29-12.36-9.87-24-20.35-32.51-11-9-24.8-8.18-35.27,1.58a63.91,63.91,0,0,0-14.45,20.69c-6.63,14.57-9.33,30.05-10.2,45.92,0,1.34,0,2.67-.05,4-.15,1.7-.49,3.31-2,4.37a2.83,2.83,0,0,1-2.43.06c-1.86-1.24-2.05-3.15-2.06-5.14A13.45,13.45,0,0,1,353.64,240.18Z" transform="translate(-307.77 -159.5)"/><path class="cls-1" d="M412.77,329.87c2.3,2.27.45,6.15,3.19,8.25l-3.28-2.05C409.38,334,409.58,331.89,412.77,329.87Z" transform="translate(-307.77 -159.5)"/><path class="cls-1" d="M485,319.06h0a6.43,6.43,0,0,0-4-1h0c-1.23-.76-2.48-1.44-4-1h0c-1.84.12-2.17-2.26-3.89-2.34h0c-2.8-1.11-2.81,1.92-4.24,2.86h0l-6.07,4.3h0l-8.16,3c-2.26.39-4.68-.16-6.81,1.08h0l-2.73,0h0c-1.57-1-3.34-.73-5.06-.73h0l-4-1.05h0l-3-1.19-3-1.75h0l-4.86-3.58c-2.81-3.43-2.81-3.43-4.05-1.55h0l-8.31,13.85c-.36,3.3.08,6.29,3.19,8.25a8.85,8.85,0,0,0,4.78,3h0a6.69,6.69,0,0,0,4.19,2h0l2,.86a10.8,10.8,0,0,0,6.07,2l.31.2.38,0h0c1.5,1.08,3.25.9,5,1,2.7,1.29,5.56.78,8.38.72h0c2.71.13,5.45.51,8-.91h0a21.11,21.11,0,0,0,9-1.8,8,8,0,0,0,5-1.9A5.71,5.71,0,0,0,473,341c1.41-.88,3.11-1.34,4.05-2.87,2.57-.32,2.93-3.22,4.92-4.22,2.81-.54,2.88-3.81,5-5,3.07-2.05,4.72-5.05,6-8.61Z" transform="translate(-307.77 -159.5)"/><path class="cls-1" d="M498.39,279.39c-4.47-16.23-14.6-27.63-29.41-35.16-4.19-1.68-8.35-3.74-12.89-3.87-3.49-.1-4.39-1.85-4.6-4.72-.21,2.77-1,5.58.42,8.27h0l-1,4.06c-1.13,0-2.37.45-3.17-.82-.09-1.1-.17-2.21-.26-3.31h0c.4-1.87.8-3.74-.32-5.52h0c-3.1,2.55-7,1.14-10.37,2-1.72.44-3.39,1.05-5.08,1.59-3.48.93-7.07,1.62-10,4a18.93,18.93,0,0,0-8,5,22,22,0,0,0-7.58,7.08,22.3,22.3,0,0,0-7,10c-5.65,8.85-6.21,18.94-7,29-.19,2.3-.36,4.6-.53,6.91a33.43,33.43,0,0,1-6.89,13l-5.89,4.69h0c0,.09,0,.18.05.27l-.38-.11L372,325a51,51,0,0,1-16,1.14l-7-2.06a32.16,32.16,0,0,0-7.58-4.11l-.36.09a1.93,1.93,0,0,0,0-.24h0q-2.49-2.51-5-5l-5-8.87c.66-4.68-1.32-9.2-.88-13.88.55-6.95,2.47-13.42,6.76-19l4.34-3.88a29.57,29.57,0,0,0,7.81-4.09l5.11-1.84a.86.86,0,0,0-.1-.16,2.39,2.39,0,0,1,.22.12h0c3.65-2.84,7.89-1,11.84-1.5a21.14,21.14,0,0,1,8.52,2.27,48.5,48.5,0,0,1,5.71,3.32c1.24,1,2.59,1.9,3.8,3,2.44,2.15,3.26.76,3.68-1.61.84-3.93,3.63-6.66,5.95-9.69,3.12-4.05,2.86-5.27-1.63-7.59a26.68,26.68,0,0,1-5.54-3.34,24,24,0,0,0-5.9-3.18,30.28,30.28,0,0,0-3.35-1.06,75.09,75.09,0,0,0-8.89-1.87c-3.36-1.13-7.23.67-10.36-1.78l0,4h0L357,248h-2c-1.36-1.41-1-3.26-1.21-4.94h0c0-.95-.09-1.91-.13-2.86l-5.65,2h0c-2.35.6-4.87.6-7,2a16.32,16.32,0,0,0-6.89,3.23h0l-3,.63q0-18.18,0-36.37c0-6.83,0-6.83-7.06-6.44h-11c-4.28-1.1-5.3.69-5.28,4.85.18,27.94.09,55.87.13,83.81,0,2.8-.19,5.66,1.06,8.32A9.61,9.61,0,0,0,310,308a23.61,23.61,0,0,0,3.65,10.17h0c1.4,3.19,2.85,6.33,5.47,8.76a16.89,16.89,0,0,0,5.56,6.22,12.72,12.72,0,0,0,5.39,4.78c1.13,2.54,3.48,3.46,5.82,4.39a6,6,0,0,0,3.82,1.83h0a9,9,0,0,0,6.13,1.87,17.74,17.74,0,0,0,8.95,2,1.14,1.14,0,0,0,.94.22A26.52,26.52,0,0,0,369,348h0a20.87,20.87,0,0,0,10-2.2,14.45,14.45,0,0,0,7-2.88h0a24.39,24.39,0,0,0,9.09-5.77h0c2.22-1.8,5.12-2.94,5.93-6.12h0a21.81,21.81,0,0,0,8.1-10.83h0c2.64-3.34,3.75-7.34,4.85-11.32,2.4-8.7,1.48-17.8,3.13-26.59A48.64,48.64,0,0,1,425,270.13l9-6h0l11-2.31h0c7.84,0,14.92,2.59,21.64,6.39h0c3.59,2.71,4.85,7.77,8.65,9.86a43.54,43.54,0,0,0,20.11,5C498.42,283.17,499.24,282.45,498.39,279.39Z" transform="translate(-307.77 -159.5)"/><path class="cls-1" d="M550.07,264.79a6,6,0,0,0,1.84,1.25,5.48,5.48,0,0,0,2.24.46,5.63,5.63,0,0,0,2.28-.46,6,6,0,0,0,1.84-1.25,6.18,6.18,0,0,0,1.25-1.84,5.63,5.63,0,0,0,.46-2.23,5.73,5.73,0,0,0-.46-2.28,6.05,6.05,0,0,0-1.25-1.84,5.61,5.61,0,0,0-1.84-1.23,6,6,0,0,0-2.28-.44,5.81,5.81,0,0,0-2.24.44,5.61,5.61,0,0,0-1.84,1.23,5.82,5.82,0,0,0-1.23,1.84,5.9,5.9,0,0,0-.43,2.28,5.79,5.79,0,0,0,.43,2.23A5.94,5.94,0,0,0,550.07,264.79Z" transform="translate(-307.77 -159.5)"/><path class="cls-1" d="M563.13,264.79A6,6,0,0,0,565,266a5.48,5.48,0,0,0,2.24.46,5.55,5.55,0,0,0,2.27-.46,5.77,5.77,0,0,0,1.84-1.25,5.82,5.82,0,0,0,1.25-1.84,5.46,5.46,0,0,0,.46-2.23,5.56,5.56,0,0,0-.46-2.28,5.71,5.71,0,0,0-1.25-1.84,5.41,5.41,0,0,0-1.84-1.23,5.89,5.89,0,0,0-2.27-.44,5.81,5.81,0,0,0-2.24.44,5.61,5.61,0,0,0-1.84,1.23,5.51,5.51,0,0,0-1.23,1.84,5.9,5.9,0,0,0-.44,2.28,5.8,5.8,0,0,0,.44,2.23A5.61,5.61,0,0,0,563.13,264.79Z" transform="translate(-307.77 -159.5)"/><path class="cls-1" d="M583.64,264.79a5.51,5.51,0,0,0,1.84,1.23,5.76,5.76,0,0,0,2.23.44A5.9,5.9,0,0,0,590,266a5.51,5.51,0,0,0,1.84-1.23,6,6,0,0,0,1.25-1.84,5.46,5.46,0,0,0,.46-2.23,5.56,5.56,0,0,0-.46-2.28,5.88,5.88,0,0,0-1.25-1.84,5.51,5.51,0,0,0-1.84-1.23,5.9,5.9,0,0,0-2.28-.44,5.76,5.76,0,0,0-2.23.44,5.68,5.68,0,0,0-3.07,3.07,5.9,5.9,0,0,0-.44,2.28,5.8,5.8,0,0,0,.44,2.23A5.61,5.61,0,0,0,583.64,264.79Z" transform="translate(-307.77 -159.5)"/><path class="cls-1" d="M646.39,298.45H638.5V272.59H627.68v25.86h-7.85V272.59H608.92v25.86h-8.06v-.18h-7.8V272.59H582.24v25.86H566.55V272.59H555.72v25.86H541.53c0-.91.05-1.66.06-2.26s0-1.35,0-2.26c0-2.72-.05-5.42-.17-8.13s-.19-5.34-.22-7.91l.09-.83H530.4q0,4,.15,8.19t.15,8.33q0,3.07-.15,6.18a43.69,43.69,0,0,1-.7,6,27.06,27.06,0,0,1-1.6,5.37,14,14,0,0,1-2.83,4.34,12.68,12.68,0,0,1-4.38,2.91,16.41,16.41,0,0,1-6.29,1.08V330.3A28.87,28.87,0,0,0,525,328.66a22,22,0,0,0,7.36-4.49,23.39,23.39,0,0,0,4.91-6.66,37.54,37.54,0,0,0,2.89-8.2H574.3l25.6-.12v.12h51.88a5.57,5.57,0,0,0,2.1-.41,5.11,5.11,0,0,0,1.73-1.16,6,6,0,0,0,1.17-1.74,5.15,5.15,0,0,0,.43-2.12V272.59H646.39Z" transform="translate(-307.77 -159.5)"/><path class="cls-1" d="M714,316.89a5.74,5.74,0,0,0-1.84-1.22,6,6,0,0,0-2.28-.44,5.81,5.81,0,0,0-2.24.44,5.74,5.74,0,0,0-1.84,1.22,5.67,5.67,0,0,0-1.66,4.12,5.8,5.8,0,0,0,.43,2.24,5.94,5.94,0,0,0,1.23,1.84,6.18,6.18,0,0,0,1.84,1.25,5.65,5.65,0,0,0,2.24.46,5.8,5.8,0,0,0,2.28-.46,6.18,6.18,0,0,0,1.84-1.25,6,6,0,0,0,1.24-1.84,5.48,5.48,0,0,0,.46-2.24,5.6,5.6,0,0,0-.46-2.28A6,6,0,0,0,714,316.89Z" transform="translate(-307.77 -159.5)"/><path class="cls-1" d="M701,316.89a5.74,5.74,0,0,0-1.84-1.22,5.9,5.9,0,0,0-2.28-.44,5.81,5.81,0,0,0-2.24.44,5.7,5.7,0,0,0-3.5,5.34,5.63,5.63,0,0,0,.44,2.24,5.74,5.74,0,0,0,1.22,1.84,6.18,6.18,0,0,0,1.84,1.25,5.65,5.65,0,0,0,2.24.46,5.73,5.73,0,0,0,2.28-.46,5.93,5.93,0,0,0,3.09-3.09,5.65,5.65,0,0,0,.46-2.24,5.77,5.77,0,0,0-.46-2.28A6.18,6.18,0,0,0,701,316.89Z" transform="translate(-307.77 -159.5)"/><path class="cls-1" d="M747.35,264.79a6,6,0,0,0,1.84,1.25,5.78,5.78,0,0,0,4.52,0,6,6,0,0,0,1.84-1.25A6.18,6.18,0,0,0,756.8,263a5.63,5.63,0,0,0,.46-2.23,5.73,5.73,0,0,0-.46-2.28,6.05,6.05,0,0,0-1.25-1.84,5.61,5.61,0,0,0-1.84-1.23,6,6,0,0,0-4.52,0,5.62,5.62,0,0,0-3.06,3.07,5.72,5.72,0,0,0-.44,2.28,5.62,5.62,0,0,0,.44,2.23A5.74,5.74,0,0,0,747.35,264.79Z" transform="translate(-307.77 -159.5)"/><path class="cls-1" d="M768.61,256.6a5.61,5.61,0,0,0-1.84-1.23,6,6,0,0,0-2.28-.44,5.81,5.81,0,0,0-2.24.44,5.62,5.62,0,0,0-3.06,3.07,5.72,5.72,0,0,0-.44,2.28,5.62,5.62,0,0,0,.44,2.23,5.74,5.74,0,0,0,1.22,1.84,6,6,0,0,0,1.84,1.25,5.48,5.48,0,0,0,2.24.46,5.63,5.63,0,0,0,2.28-.46,6,6,0,0,0,1.84-1.25,6.18,6.18,0,0,0,1.25-1.84,5.63,5.63,0,0,0,.46-2.23,5.73,5.73,0,0,0-.46-2.28A6.05,6.05,0,0,0,768.61,256.6Z" transform="translate(-307.77 -159.5)"/><path class="cls-1" d="M767.25,272.59H756.42v25.86H738.85V276.93a5.57,5.57,0,0,0-.41-2.1,5.77,5.77,0,0,0-1.14-1.78,5.87,5.87,0,0,0-1.69-1.23,4.89,4.89,0,0,0-2.1-.46l-7.8-.17a19.93,19.93,0,0,0-6.75,1.05,12.78,12.78,0,0,0-8.07,8,20.06,20.06,0,0,0-1,6.73v11.44l-10.43,0a11.61,11.61,0,0,1-3.83-.53,5.26,5.26,0,0,1-2.26-1.44,5.07,5.07,0,0,1-1.07-2.15,13.39,13.39,0,0,1-.33-2.59,17.55,17.55,0,0,1,.68-4.73,21.79,21.79,0,0,1,1.6-4.16l-9.6-5a29.45,29.45,0,0,0-1.33,3,34.46,34.46,0,0,0-1.14,3.43,30.17,30.17,0,0,0-.79,3.66,24.61,24.61,0,0,0-.29,3.71,21.9,21.9,0,0,0,1,6.46,15,15,0,0,0,3.13,5.65,15.73,15.73,0,0,0,5.67,4,21.66,21.66,0,0,0,8.59,1.51h15.87a5.43,5.43,0,0,0,2.28-.46,4.85,4.85,0,0,0,1.7-1.25,5.36,5.36,0,0,0,1.08-1.86,6.78,6.78,0,0,0,.37-2.26l0-16.47a9.71,9.71,0,0,1,.24-2.35,3.43,3.43,0,0,1,.79-1.53,3.07,3.07,0,0,1,1.49-.85,8.6,8.6,0,0,1,2.34-.27l1.25,0,1.25.07v21.78a5.33,5.33,0,0,0,5.39,5.43h28.44a5.49,5.49,0,0,0,2.12-.41,5.42,5.42,0,0,0,2.9-2.9,5.49,5.49,0,0,0,.41-2.12v-.22a.75.75,0,0,0,0-.26Z" transform="translate(-307.77 -159.5)"/><path class="cls-1" d="M826.45,316.89a5.74,5.74,0,0,0-1.84-1.22,5.9,5.9,0,0,0-2.28-.44,5.76,5.76,0,0,0-2.23.44,5.62,5.62,0,0,0-3.07,3.06,5.94,5.94,0,0,0-.44,2.28,5.81,5.81,0,0,0,.44,2.24,5.61,5.61,0,0,0,1.23,1.84,6.05,6.05,0,0,0,1.84,1.25,5.6,5.6,0,0,0,2.23.46,5.73,5.73,0,0,0,2.28-.46,6.18,6.18,0,0,0,1.84-1.25,6,6,0,0,0,1.25-1.84,5.48,5.48,0,0,0,.46-2.24,5.6,5.6,0,0,0-.46-2.28A6,6,0,0,0,826.45,316.89Z" transform="translate(-307.77 -159.5)"/><path class="cls-1" d="M839.51,316.89a5.74,5.74,0,0,0-1.84-1.22,6,6,0,0,0-4.52,0,5.7,5.7,0,0,0-3.5,5.34,5.63,5.63,0,0,0,.44,2.24,5.74,5.74,0,0,0,1.22,1.84,6.18,6.18,0,0,0,1.84,1.25,5.78,5.78,0,0,0,4.52,0,5.93,5.93,0,0,0,3.09-3.09,5.65,5.65,0,0,0,.46-2.24,5.77,5.77,0,0,0-.46-2.28A6.18,6.18,0,0,0,839.51,316.89Z" transform="translate(-307.77 -159.5)"/><path class="cls-1" d="M864.31,303.4V272.59H853.49v25.86H834.78V272.59H824v25.86H809.89c0-.76.05-1.52.06-2.26s0-1.5,0-2.26c0-1.52,0-3.07-.08-4.64s-.12-3.07-.18-4.47-.1-2.5-.13-3.64,0-2.24,0-3.29a6.64,6.64,0,0,0-.53-2.63,6.77,6.77,0,0,0-1.43-2.12,6.57,6.57,0,0,0-2.1-1.43,6.44,6.44,0,0,0-2.61-.52H791.52a17.43,17.43,0,0,0-7,1.42,18.15,18.15,0,0,0-5.72,3.88,18.39,18.39,0,0,0-3.83,5.74,17.76,17.76,0,0,0-1.4,7,29.83,29.83,0,0,0,.83,9.51,16.3,16.3,0,0,0,3.07,6.14A12.06,12.06,0,0,0,782,308.3a19.16,19.16,0,0,0,5.32,1.43,25.81,25.81,0,0,0,5.41.09c1.78-.16,3.39-.35,4.82-.55a11,11,0,0,1-4.4,7.67q-3.57,2.49-10.1,2.5V330.3a28.81,28.81,0,0,0,10.25-1.64,21.91,21.91,0,0,0,7.36-4.49,23.16,23.16,0,0,0,4.91-6.68,37.59,37.59,0,0,0,2.89-8.18h50.4a5.49,5.49,0,0,0,2.12-.41,5.42,5.42,0,0,0,1.73-1.16,5.85,5.85,0,0,0,1.19-1.74,5.15,5.15,0,0,0,.43-2.12v-.22A.75.75,0,0,0,864.31,303.4Zm-65.55-6.51a3.49,3.49,0,0,1-1,2,4.32,4.32,0,0,1-2.22.9,29.62,29.62,0,0,1-3.81.26,13.36,13.36,0,0,1-3.68-.65,4.92,4.92,0,0,1-2.37-1.74,7.15,7.15,0,0,1-1.16-3.24,27.81,27.81,0,0,1-.11-5.15,6.89,6.89,0,0,1,.57-2.76,7.43,7.43,0,0,1,1.56-2.3,7.63,7.63,0,0,1,2.28-1.58,6.54,6.54,0,0,1,2.73-.59l3.64,0c1.2,0,2.41,0,3.64,0l.22,11.35A18.69,18.69,0,0,1,798.76,296.89Z" transform="translate(-307.77 -159.5)"/><path class="cls-1" d="M855.68,316.89a5.74,5.74,0,0,0-1.84-1.22,6,6,0,0,0-4.52,0,5.7,5.7,0,0,0-3.5,5.34,5.63,5.63,0,0,0,.44,2.24,5.74,5.74,0,0,0,1.22,1.84,6.18,6.18,0,0,0,1.84,1.25,5.78,5.78,0,0,0,4.52,0,5.93,5.93,0,0,0,3.09-3.09,5.65,5.65,0,0,0,.46-2.24,5.77,5.77,0,0,0-.46-2.28A6.18,6.18,0,0,0,855.68,316.89Z" transform="translate(-307.77 -159.5)"/></svg>