<svg id="Layer_1" data-name="Layer 1" xmlns="http://www.w3.org/2000/svg" viewBox="0 0 153.11 268.51"><defs><style>.cls-1{fill:pink;}</style></defs><title>q</title><path class="cls-1" d="M645.05,672.12a30.29,30.29,0,0,0-3.87-7.63,28,28,0,0,0-6-6.18,26.11,26.11,0,0,0-7.38-3.94,25.23,25.23,0,0,0-8.41-1.24c-1.25,0-2.5.12-3.74.25a2.74,2.74,0,0,0-2.63-2h0a18.18,18.18,0,0,0-5.49.78c-.62.2-1.23.45-1.84.7s-1.5.63-2.23,1a23.84,23.84,0,0,0-3.82,2.49A27.17,27.17,0,0,0,596.7,659a50.55,50.55,0,0,0-7.51,10.86,38.45,38.45,0,0,0-1.69,4,19.68,19.68,0,0,0-1.07,4.19,36.8,36.8,0,0,0-.18,9,33.22,33.22,0,0,0,2,8.4,29.47,29.47,0,0,0,1.87,3.93,27.84,27.84,0,0,0,2.66,3.8,31.38,31.38,0,0,0,6.2,5.76,30.25,30.25,0,0,0,7.74,4,27.14,27.14,0,0,0,8.52,1.47,26.28,26.28,0,0,0,4.25-.33,34.2,34.2,0,0,0,4.23-.89,29,29,0,0,0,17-11.89,41.08,41.08,0,0,0,2.32-3.75,31.71,31.71,0,0,0,3-8.05,38.47,38.47,0,0,0,.74-4.4,22.66,22.66,0,0,0,0-4.51A35.15,35.15,0,0,0,645.05,672.12Zm-46.68.41a39,39,0,0,1,4.7-8.45,25.49,25.49,0,0,1,3.24-3.41c1.83.21,3.67.4,5.51.59l.92,0,1.79.09c.63,0,1.25,0,1.87,0l2.74,0c1,0,2,0,3,.08s2.17.14,3.24.28a23.9,23.9,0,0,1,5.51,1.49,25.73,25.73,0,0,1,5,2.92,20.92,20.92,0,0,1,3.26,3.19,14.69,14.69,0,0,1,1.57,2.68,18.23,18.23,0,0,1,.92,3.72c.09.72.16,1.45.19,2.19l.09,2a36.47,36.47,0,0,1-.22,5.82,25.85,25.85,0,0,1-1.62,6,27.28,27.28,0,0,1-3.17,5.46,19.67,19.67,0,0,1-2.9,2.94,41.77,41.77,0,0,1-7.62,4l-2.87,1.16c-.93.37-1.88.68-2.83,1a28,28,0,0,1-4.13.93,26.13,26.13,0,0,1-6.06.07,18,18,0,0,1-3.94-1.08,22.83,22.83,0,0,1-4.17-2.55,23.62,23.62,0,0,1-3.75-3.73,19.92,19.92,0,0,1-2.28-3.85,20.69,20.69,0,0,1-1.26-4.75,29.32,29.32,0,0,1-.19-3.5,32.92,32.92,0,0,1,.29-3.71A48,48,0,0,1,598.37,672.53Zm29.29-14.43c.62.28,1.22.59,1.82.91-.78-.24-1.57-.44-2.36-.6-1.18-.24-2.38-.38-3.57-.51s-2.38-.19-3.58-.24l-3-.14c-.67,0-1.35,0-2-.09l-2.54-.19q.92-.18,1.83-.3a34.91,34.91,0,0,1,8.36-.2A24.2,24.2,0,0,1,627.66,658.1Zm-35.91,21.25a21.86,21.86,0,0,1,.54-2.5,25.36,25.36,0,0,1,1-2.65,42.43,42.43,0,0,1,5-8.47c.69-.88,1.39-1.74,2.16-2.56A24,24,0,0,1,603,660.8l.46-.32c-.46.43-.91.88-1.34,1.33a29.88,29.88,0,0,0-3.9,5.38,53.51,53.51,0,0,0-3,6.09A46.62,46.62,0,0,0,592,686.83q-.08.87-.09,1.74c-.05-.29-.1-.58-.14-.87A35.34,35.34,0,0,1,591.75,679.35Z" transform="translate(-541.85 -445.81)"/><path class="cls-1" d="M694.85,503.05c-.1-2-.31-3.93-.5-5.9-.1-1-.21-2-.32-3-.13-1.18-.33-2.35-.51-3.52-.14-.94-.39-1.88-.59-2.81-.09-.41-.22-.8-.33-1.2s-.29-1-.43-1.52c-.28-1-.62-2-.92-3s-.62-2-.93-2.94-.61-1.83-.91-2.75c-.13-.38-.28-.75-.41-1.13s-.31-.87-.48-1.3c-.45-1.08-.88-2.18-1.41-3.22-.26-.52-.52-1-.79-1.56s-.43-.75-.65-1.12c-.52-.9-1.06-1.78-1.63-2.65s-1.1-1.59-1.66-2.37c-.38-.53-.81-1-1.22-1.55s-1-1.28-1.59-1.89a20.57,20.57,0,0,0-2.76-2.6,25.38,25.38,0,0,0-3.9-2.59,37.87,37.87,0,0,0-5.62-2.25c-1-.33-1.95-.62-2.94-.91s-1.76-.46-2.64-.68c-.48-.12-1-.19-1.45-.28s-.88-.19-1.33-.26c-4-.64-8-1.22-11.93-1.87-1.92-.32-3.84-.66-5.76-1q-1.62-.25-3.24-.45c-.77-.14-1.54-.27-2.31-.34l-3.7-.35c-.71-.07-1.42-.14-2.13-.17l-4-.12c-.45,0-.89,0-1.33,0a45.26,45.26,0,0,0-4.8.26,59.33,59.33,0,0,0-8.78,1.65c-1.38.36-2.73.79-4.09,1.22l-1.94.63c-.28.09-.58.17-.85.28l-3.27,1.3c-2.1.84-4.16,1.76-6.22,2.68-1.7.75-3.34,1.63-5,2.45-.31.16-.62.35-.93.52l-1.93,1.08c-.67.37-1.31.75-1.95,1.17l-3,2c-.22.14-.43.32-.65.48l-1.75,1.3c-.8.59-1.59,1.17-2.35,1.8l-2.78,2.3-.59.55-1.62,1.5c-.58.53-1.16,1.06-1.71,1.62-.9.91-1.81,1.82-2.71,2.74-.64.65-1.23,1.35-1.84,2s-1.12,1.22-1.63,1.87L562,480c-.77,1-1.45,2-2.16,3-.49.7-1,1.39-1.42,2.1s-1,1.58-1.51,2.39-1.12,1.82-1.62,2.76l-1.64,3c-.45.85-.85,1.72-1.26,2.57s-.75,1.58-1.11,2.39c-.47,1.07-1,2.13-1.4,3.22s-.81,1.95-1.17,2.95l-1.08,3c-.69,1.94-1.26,3.91-1.85,5.88s-1,3.81-1.52,5.73c-.22.89-.41,1.79-.61,2.69-.1.42-.17.86-.25,1.29s-.21,1-.28,1.47c-.34,2.16-.68,4.32-.84,6.5s-.28,4.28-.34,6.42c0,1,0,1.94,0,2.91a35.05,35.05,0,0,0,.17,4.1,53.49,53.49,0,0,0,1.53,7.3,44.31,44.31,0,0,0,1.63,5.41c.14.37.3.73.47,1.08a7,7,0,0,0-.9.55,5.46,5.46,0,0,0-1.21,1l-.34.45a2.12,2.12,0,0,0-.3,1.1,2.19,2.19,0,0,0,.64,1.54,2.15,2.15,0,0,0,1.54.64,2.11,2.11,0,0,0,1.54-.64,2.94,2.94,0,0,1,.34-.36c.25-.17.51-.33.77-.48a2.35,2.35,0,0,0,.53.41,2.55,2.55,0,0,0,3.49-.91,1.51,1.51,0,0,0,.09-.18h0l1.77-.23c.7,0,1.4-.07,2.1-.08.85.33,1.71.64,2.56,1,1.9.7,3.81,1.35,5.73,2s3.61,1.16,5.42,1.73l2.94.94c.87.27,1.75.57,2.63.75a20.53,20.53,0,0,0,2.33.37,6.71,6.71,0,0,0,4-1.28,30.4,30.4,0,0,0,4.56-3.61c.69-.61,1.35-1.26,2-1.92a20,20,0,0,0,3.91-5.7,24.76,24.76,0,0,0,2.16-8,40.2,40.2,0,0,0,.06-6c-.1-2-.25-4-.41-6-.05-.72-.11-1.45-.17-2.17.27-1,.57-2,.88-2.93.48-1.51,1-3,1.5-4.51s1.13-3.09,1.72-4.63c.52-1.33,1.06-2.64,1.61-4,.91-2,1.79-3.94,2.87-5.81l1.13-1.93c.2-.36.45-.7.68-1.05,1-1.43,1.93-2.87,3-4.25a37.83,37.83,0,0,1,2.47-2.88,27.9,27.9,0,0,1,3.16-2.79,46.44,46.44,0,0,1,7.85-4.82l1.29-.6,1.63.31a17.34,17.34,0,0,1,2.5.81,35.73,35.73,0,0,1,4.26,2.2,1.8,1.8,0,0,0,1.82-3.11,32,32,0,0,0-2.84-1.63c-.47-.24-.95-.47-1.43-.69l.7-.14a20.91,20.91,0,0,1,4.81.08,21.94,21.94,0,0,1,2.81.61c.52.34,1,.69,1.54,1.06a38.62,38.62,0,0,1,6.15,6.37,38,38,0,0,1,4.55,7.61,34.56,34.56,0,0,1,1.58,4.9c.44,1.83.76,3.68,1,5.55.18,1.43.3,2.86.43,4.3.1,1.1.1,2.21.13,3.31,0,.49,0,1,0,1.47s0,1,0,1.5c0,.74-.05,1.48-.07,2.23,0,1.07-.15,2.14-.28,3.21-.12.81-.27,1.62-.43,2.42-.13.41-.28.81-.42,1.21s-.32,1-.51,1.45-.44,1.09-.67,1.64c-.35.73-.71,1.46-1.07,2.18-.18.37-.42.73-.63,1.08l-.72,1.22c-.43.73-.95,1.43-1.42,2.14s-1,1.36-1.44,2L642.13,550a29.66,29.66,0,0,1-2,2.3,26.31,26.31,0,0,1-2,1.85c-.73.62-1.45,1.26-2.2,1.85l-1.1.86c-.63.34-1.26.7-1.91,1l-2.55,1.18c-1.58.65-3.17,1.27-4.75,1.92-1.06.44-2.14.85-3.19,1.32-.9.4-1.82.77-2.69,1.22-1.75.91-3.53,1.79-5.2,2.84s-3.44,2.21-5.15,3.34l-2.56,1.69c-.82.55-1.62,1.11-2.42,1.7a46,46,0,0,0-6.63,5.74,29.22,29.22,0,0,0-2.65,3.32c-.09.13-.18.28-.27.42l-.37.44a20.86,20.86,0,0,0-1.46,2,11.1,11.1,0,0,0-.87,1.72,19.22,19.22,0,0,0-.83,2.23,28.53,28.53,0,0,0-.9,4.67c0,.17,0,.34,0,.51s0,.12,0,.18c-.12.57-.25,1.14-.38,1.71s-.15.9-.22,1.34c-.18,1.14-.34,2.26-.45,3.41-.18,1.89-.36,3.78-.44,5.68-.16,4.1-.27,8.2-.39,12.3-.05,1.85-.13,3.69-.2,5.53l-.09,2.67c0,.43,0,.86,0,1.28a7.68,7.68,0,0,0,.21,1.79,3.08,3.08,0,0,0,.74,1.3,2.93,2.93,0,0,0,1.19.73,5,5,0,0,0,1.63.07l1-.14a5.86,5.86,0,0,0,2.4.92,16.57,16.57,0,0,0,4,.12l1.88-.18c1-.09,2-.22,3-.35,1.91-.24,3.82-.48,5.73-.67.92-.09,1.84-.18,2.76-.23s2-.15,3-.14h.87c.71,0,1.42,0,2.12.05,1,.08,1.94.14,2.91.26a111.53,111.53,0,0,0,12.09,1.24c1,0,2,0,3,0a5.24,5.24,0,0,0,2.27-.52,3.6,3.6,0,0,0,.88-.67,3.43,3.43,0,0,0,.76-1.32,6.45,6.45,0,0,0,.14-1.24,6.91,6.91,0,0,0-.17-1.28c-.09-.53-.23-1.06-.37-1.58-.5-1.89-1-3.78-1.4-5.69-.8-3.67-1.33-7.39-1.85-11.1-.21-1.77-.41-3.53-.58-5.3-.08-.87-.12-1.74-.18-2.61a31,31,0,0,1,0-5.53,18.35,18.35,0,0,1,1-3.86,24.91,24.91,0,0,1,3.06-4.87,30.32,30.32,0,0,1,2.56-2.87c.13-.11.26-.22.4-.32a45.94,45.94,0,0,1,4.2-2.68c1-.57,1.92-1.11,2.89-1.65l1.38-.75.41-.14,1.92-.61c.9-.29,1.84-.51,2.75-.76,1.81-.49,3.62-1,5.39-1.58,2-.68,3.92-1.38,5.87-2.13,1-.39,2-.82,3-1.28.7-.33,1.39-.68,2.06-1.06a19.87,19.87,0,0,0,3.56-2.7,25.74,25.74,0,0,0,2.84-3.24,31.88,31.88,0,0,0,5.11-9.64c.32-.94.64-1.88.93-2.84s.55-1.85.82-2.78c1.08-3.73,2.19-7.46,3.12-11.24,1-4,1.94-8.05,2.75-12.11.78-3.89,1.39-7.82,2-11.74.31-2.13.5-4.28.68-6.43.08-1,.08-2,.09-3S694.9,504,694.85,503.05Zm-39.36,69.89c-.88.26-1.78.48-2.65.78-1.4.49-2.79,1-4.16,1.56a31.78,31.78,0,0,0-3.7,1.83,26.14,26.14,0,0,0-3.72,2.73,34.89,34.89,0,0,0-5.62,6.45,23.33,23.33,0,0,0-2.14,3.56,19.28,19.28,0,0,0-1.42,4.16,22.3,22.3,0,0,0-.49,4.23,2.38,2.38,0,0,1-.05.26,42.16,42.16,0,0,0-.79,5.71,32.27,32.27,0,0,0,.45,6.29c.15,1,.33,2.07.51,3.11.33,1.92.73,3.83,1.11,5.75s.68,3.68,1,5.54a15.88,15.88,0,0,1,.12,2.39c-.85-.15-1.69-.32-2.54-.46s-1.88-.3-2.82-.44l-6.17-.88a45.23,45.23,0,0,0-10.06-.57c-2.18.16-4.35.36-6.52.57-2.36.23-4.71.54-7,.88-.74.11-1.48.25-2.22.4-.11-1.56-.21-3.12-.31-4.68-.14-2-.26-4.05-.35-6.08q-.25-5.65-.32-11.33a86.39,86.39,0,0,1,.42-11.26c.1-.68.23-1.34.38-2,.13-.38.26-.77.4-1.16.27-.81.6-1.59.93-2.38a14,14,0,0,1,.79-1.21,16.71,16.71,0,0,1,2.28-2.25c1.68-1.23,3.42-2.37,5.15-3.5s3.28-2.16,5-3.17,3.38-2,5.11-3,3.6-1.89,5.37-2.88l2.79-1.56c.92-.5,1.8-1.07,2.7-1.6,1.75-1,3.43-2.18,5.11-3.31s3.22-2.29,4.79-3.47,2.82-2.23,4.18-3.4a31.73,31.73,0,0,0,2.78-2,29.25,29.25,0,0,0,3.47-3c3.64-3.82,5.62-8.85,6.89-13.91.68-1.77,1.22-3.6,1.72-5.43a42.92,42.92,0,0,0,1.23-5.92c.19-1.47.38-2.92.46-4.39a40.09,40.09,0,0,0-.58-8.75,35.8,35.8,0,0,0-2.26-8,28.72,28.72,0,0,0-1.22-2.71c-.32-.6-.64-1.19-.95-1.79a50.47,50.47,0,0,0-2.93-4.83,30.5,30.5,0,0,0-5.62-6.32,22.82,22.82,0,0,0-3.43-2.34,13.72,13.72,0,0,0-2.15-.94,23.15,23.15,0,0,0-6.78-3.05,25.06,25.06,0,0,0-4.13-.68,28.14,28.14,0,0,0-4.59.13c-1.67.14-3.32.41-5,.69a39.65,39.65,0,0,0-5.39,1.22,26.75,26.75,0,0,0-4,1.62,28.94,28.94,0,0,0-3.78,2.34,39.52,39.52,0,0,0-3.13,2.51c-.43.38-.83.79-1.25,1.2l-1,1c-.37.37-.71.79-1.06,1.17l-.94,1c-.34.38-.65.81-1,1.21-.69.86-1.35,1.72-2,2.61-.28.4-.57.79-.85,1.18a32.52,32.52,0,0,0-2.2,3.68,24.08,24.08,0,0,0-1.56,3.71,20.25,20.25,0,0,0-.8,4.3,41.4,41.4,0,0,0,0,6.1c0,1,.11,2,.17,3.07,0,.61.09,1.22.14,1.83-.06.19-.13.38-.19.57-.27.79-.47,1.59-.7,2.38s-.55,1.8-.78,2.71c-.29,1.19-.59,2.38-.88,3.58-.46,1.85-.82,3.73-1.22,5.6-.21,1-.36,2-.54,3-.15.83-.3,1.65-.44,2.47-.17,1.1-.35,2.2-.53,3.31-.15.92-.31,1.85-.5,2.76-.06.26-.12.53-.17.8l-.16,0c-1.9.33-3.82.64-5.7,1.06s-4,.87-5.93,1.36-3.87,1-5.82,1.44l-1.39.34c-2.68,0-5.36,0-8,.05-1,0-1.93.06-2.9.13a19.42,19.42,0,0,1-2.15-1.29,7.44,7.44,0,0,1-.58-.55l.12-.26a2,2,0,0,0,0-1c-.25-1.87-.42-3.76-.52-5.65-.12-2.08-.13-4.16-.14-6.24,0-3.92,0-7.84.11-11.76,0-.82,0-1.65.07-2.47s.06-1.94.14-2.91.11-2,.23-2.92.21-1.78.31-2.67.32-2,.51-3c.4-1.43.81-2.86,1.27-4.27.31-.94.61-1.89.94-2.82s.67-2,1.06-2.94.77-1.95,1.15-2.93l0-.1.52-1c.74-1.46,1.58-2.89,2.43-4.3.4-.68.8-1.36,1.23-2s1-1.57,1.49-2.33,1.06-1.61,1.64-2.38l1.53-2,1.83-2.24c.25-.31.53-.59.79-.88l1.21-1.36c.68-.75,1.41-1.45,2.11-2.18s1.46-1.45,2.19-2.17c1.33-1.31,2.7-2.57,4.08-3.81s2.83-2.49,4.32-3.66l1.41-1.11c1.56-1.16,3.13-2.3,4.71-3.44s3.35-2.2,5.06-3.25c.87-.54,1.8-1,2.69-1.51s1.83-.95,2.75-1.42c1.8-.93,3.64-1.8,5.47-2.68,1.17-.57,2.37-1.1,3.56-1.64s2.39-1,3.61-1.47l2.64-.94c.26-.09.52-.16.78-.24l1.82-.54c.62-.18,1.24-.34,1.86-.5s1.54-.41,2.32-.58c2.41-.54,4.81-1.11,7.26-1.46a34.64,34.64,0,0,1,3.94-.29,43,43,0,0,1,4.68.26l1.26.15,1.17.18c.76.11,1.52.21,2.27.37l3.76.82c.78.16,1.54.38,2.31.58l3,.78c1,.26,2,.6,3,.89s1.68.47,2.5.76l3.41,1.19c.94.34,1.87.68,2.79,1a36.69,36.69,0,0,1,7.31,4.21,33,33,0,0,1,2.86,2.57,31.07,31.07,0,0,1,2.36,2.75c.9,1.26,1.85,2.5,2.69,3.82.58.92,1.16,1.84,1.75,2.76a39.53,39.53,0,0,1,2.85,5.48,65.18,65.18,0,0,1,3.24,12.79c.1.88.21,1.77.31,2.65s.25,1.69.3,2.54c.09,2,.2,4,.28,5.94.15,4.15.33,8.3.42,12.45,0,1.34.07,2.67,0,4s0,2.91-.13,4.36l-.19,2.89c0,.6,0,1.21-.12,1.81l-.48,4.19c-.25,1.51-.5,3-.74,4.53-.1.58-.25,1.15-.38,1.73-.21.93-.41,1.86-.62,2.79-.13.59-.34,1.17-.51,1.75l-.72,2.49c-.18.64-.46,1.27-.69,1.9-.3.82-.6,1.65-.93,2.47a45.31,45.31,0,0,1-2.33,4.68,43.37,43.37,0,0,1-3.2,4.75,30.46,30.46,0,0,1-2.71,3.08,34.66,34.66,0,0,1-2.9,2.52,33.93,33.93,0,0,1-3.65,2.42c-.68.38-1.35.79-2.06,1.14s-1.4.72-2.11,1l-1,.44C658.66,572,657.07,572.46,655.49,572.94Zm-73.26-16.5c-.1.19-.19.38-.3.56-.71,0-1.43,0-2.14-.09l-1.6-.07c-.86,0-1.72-.06-2.58-.09l-.75,0,2.9-.58c1.59-.33,3.21-.57,4.82-.8C582.47,555.72,582.36,556.08,582.23,556.44Zm10.2-40.08c0-1,.08-2,.2-3,.11-.67.24-1.33.41-2a19.09,19.09,0,0,1,.72-2.09c.44-1,.94-1.9,1.46-2.83a26.4,26.4,0,0,1,1.46-2.31l1.53-2.14,1.45-1.8c.5-.63,1.06-1.21,1.6-1.8a36.58,36.58,0,0,1,4.39-4.14,28.78,28.78,0,0,1,5.67-3.44c.44-.18.88-.34,1.33-.5a25.84,25.84,0,0,0-2.38,1.58,35.64,35.64,0,0,0-3.41,2.84c-1.2,1.13-2.27,2.36-3.35,3.6l-1.1,1.27c-.33.38-.62.79-.93,1.19-.59.77-1.23,1.53-1.79,2.34s-1.31,1.9-2,2.86c-.18.26-.33.55-.5.83l-1.1,1.84c-.48.79-.87,1.63-1.29,2.46s-.75,1.48-1.08,2.24C593.32,514.37,592.88,515.37,592.43,516.36Zm-3.55,32.32c0,.71,0,1.42-.1,2.13,0,.2-.08.4-.13.6l-.18,0c.1-.68.21-1.35.3-2C588.81,549.18,588.85,548.93,588.88,548.68Zm30.32-59.85,1.48-.23c1.09-.13,2.19-.24,3.29-.3-.69.27-1.37.56-2.05.86C621,489,620.11,488.9,619.2,488.83Zm-40.63,75.75a4.31,4.31,0,0,1-.59.16,5.61,5.61,0,0,1-.71,0,34.12,34.12,0,0,1-5.23-1.46c-1.77-.58-3.53-1.14-5.31-1.69l-1.28-.39,1.36.05c4.12.22,8.25.47,12.37.82l1.31.12a14.68,14.68,0,0,0,1.48.08h.11c-.25.22-.5.43-.76.63A16,16,0,0,1,578.57,564.58Zm8.9-7.89c.13-.49.24-1,.33-1.48,0-.2.08-.4.11-.59l.8-.13A20.67,20.67,0,0,1,587.47,556.69Z" transform="translate(-541.85 -445.81)"/><path class="cls-1" d="M618.79,667.38a12.08,12.08,0,0,1,1.71.11,14.22,14.22,0,0,1,3,.87,16.65,16.65,0,0,1,3.08,1.8,12.11,12.11,0,0,1,1.88,1.84,16.05,16.05,0,0,1,1.62,2.74,21,21,0,0,1,1.08,4.14s0,.09,0,.13l.06.45a1.78,1.78,0,0,0,.43.74,1.69,1.69,0,0,0,2.38,0,1.64,1.64,0,0,0,.49-1.19A24.25,24.25,0,0,0,634,676a14.16,14.16,0,0,0-2.69-5.48,11.94,11.94,0,0,0-2.46-2.46,18.16,18.16,0,0,0-2.9-1.83,15.52,15.52,0,0,0-6.93-1.76h-.2a1.48,1.48,0,0,0,0,3Z" transform="translate(-541.85 -445.81)"/><path class="cls-1" d="M606.16,464.23a4.1,4.1,0,0,0-1-.13,3.54,3.54,0,0,0-.46,0,7.62,7.62,0,0,0-1.06.2c-.37.1-.74.2-1.1.33l-2.31.84c-1.59.59-3.14,1.28-4.69,1.95a38.27,38.27,0,0,0-5.06,2.69,46.7,46.7,0,0,0-5.24,3.85,81.89,81.89,0,0,0-9.42,9.39q-1.24,1.45-2.46,2.94c-.87,1.06-1.7,2.15-2.54,3.23l.2-.25-.17.21a1.42,1.42,0,0,0-.37.9,1.26,1.26,0,0,0,1.27,1.27,1.25,1.25,0,0,0,.9-.37l1.2-1.56c1-1.34,2.14-2.64,3.24-3.94s2.39-2.74,3.65-4a71.62,71.62,0,0,1,7.4-6.75,41.82,41.82,0,0,1,3.94-2.66,43.24,43.24,0,0,1,4.56-2.3l2.16-.85c.7-.27,1.41-.51,2.12-.75s1.3-.44,2-.65a24.34,24.34,0,0,1,2.88-.85h.07a1.44,1.44,0,0,0,.7-.19,1.38,1.38,0,0,0-.33-2.53Z" transform="translate(-541.85 -445.81)"/><path class="cls-1" d="M665.16,559.34c.83-.91,1.6-1.88,2.35-2.85l.13-.13a33,33,0,0,0,3.49-4.23,33.63,33.63,0,0,0,2.77-4.75,48.3,48.3,0,0,0,2.27-5.77,1,1,0,0,0-.73-1.27.84.84,0,0,0-.27,0,1.08,1.08,0,0,0-1,.76c-.37,1.15-.78,2.29-1.24,3.41a1.34,1.34,0,0,0-1.35.64c-.56,1-1,2-1.57,2.94s-1,1.73-1.5,2.58c-1,1.64-2.18,3.17-3.34,4.71l-.71.87c-.42.34-.83.69-1.24,1l-.72.54c-.26.19-.51.39-.78.57-.67.44-1.34.88-2,1.3s-1.24.74-1.87,1.1l-1,.58-.85.49a2.07,2.07,0,0,0-.71.67,1.73,1.73,0,0,0-.19.89,1.29,1.29,0,0,0,1,1.25c.22,0,.43.09.66.11a2.87,2.87,0,0,0,.71,0,5.89,5.89,0,0,0,1.23-.33,10.75,10.75,0,0,0,2.47-1.34A24.36,24.36,0,0,0,665.16,559.34Zm-8.51,2.82h0Z" transform="translate(-541.85 -445.81)"/><path class="cls-1" d="M647.2,624.26c-.08-.34-.18-.69-.25-1-.16-.73-.35-1.47-.48-2.21s-.28-1.63-.43-2.45c-.11-.67-.2-1.34-.29-2s-.15-1.28-.2-1.92,0-1.52,0-2.28c0-1.4.18-2.8.34-4.2.08-.6.17-1.21.25-1.81s.2-1.21.31-1.81a20.39,20.39,0,0,1,1-3.78,1,1,0,0,0-.45-1.09.89.89,0,0,0-.48-.13,1.09,1.09,0,0,0-.26,0,.94.94,0,0,0-.58.45,18.81,18.81,0,0,0-.92,2.61,1.17,1.17,0,0,0-.43-.22,1.26,1.26,0,0,0-.95.12,1.2,1.2,0,0,0-.56.73,58.84,58.84,0,0,0-1,9.54,34.56,34.56,0,0,0,.35,4.77,29.58,29.58,0,0,0,.64,3,28.3,28.3,0,0,0,.89,2.84l.6,1.59a12.2,12.2,0,0,0,.86,1.87,1.35,1.35,0,0,0,1.51.62,1.31,1.31,0,0,0,.6-.35,1.42,1.42,0,0,0,.39-.94,4,4,0,0,0-.26-1.33C647.3,624.64,647.25,624.45,647.2,624.26Z" transform="translate(-541.85 -445.81)"/><path class="cls-1" d="M618.44,618.45c-.73-.11-1.47-.2-2.22-.25s-1.22-.06-1.84-.08l-3.21-.1c-2.91-.11-5.82-.27-8.73-.43h-.08a1.77,1.77,0,0,0-1.67,1.76,1.8,1.8,0,0,0,.51,1.24,1.87,1.87,0,0,0,1.24.51c2.86.16,5.72.31,8.58.43a58.39,58.39,0,0,0,7,.07,1.54,1.54,0,0,0,.81-.22,1.64,1.64,0,0,0,.73-1,1.6,1.6,0,0,0-1.12-2Z" transform="translate(-541.85 -445.81)"/><path class="cls-1" d="M598.66,691.51a7.65,7.65,0,0,0,.42,1.25,13.35,13.35,0,0,0,.74,1.52,10,10,0,0,0,.8,1.13c.34.44.68.86,1,1.27a8.4,8.4,0,0,0,2.3,1.75,16.11,16.11,0,0,0,7,1.67,1.66,1.66,0,1,0,0-3.31,7.09,7.09,0,0,0-.8,0h-.68l-1.3-.09a12.66,12.66,0,0,1-2.53-.69,8,8,0,0,1-1.37-.77,11.22,11.22,0,0,1-1.5-1.58,10,10,0,0,1-1.09-1.84,7.36,7.36,0,0,1-.41-1.46c-.07-.54-.12-1.08-.18-1.63a1.43,1.43,0,0,0-.41-1,1.39,1.39,0,0,0-2,0,1.33,1.33,0,0,0-.41,1A26.1,26.1,0,0,0,598.66,691.51Z" transform="translate(-541.85 -445.81)"/></svg>