<svg xmlns="http://www.w3.org/2000/svg" viewBox="0 0 447.72 419.72"><defs><style>.cls-1{fill:#263238;}.cls-2{fill:#455a64;}.cls-3{fill:#fff;}.cls-4{fill:#4c9ae4;}.cls-5{opacity:0.3;}.cls-6{fill:#e0e0e0;}.cls-7{opacity:0.6;}.cls-8{fill:#ffbf9d;}.cls-9{fill:#ff9a6c;}</style></defs><title>stock</title><g id="Floor"><path class="cls-1" d="M471.34,465c0,.14-98.21.26-219.33.26S32.66,465.12,32.66,465s98.19-.26,219.35-.26S471.34,464.83,471.34,465Z" transform="translate(-32.66 -46.6)"/></g><g id="Device"><path class="cls-2" d="M375.47,380.38l-118.31-.07c-14.23,0-25.76-11.06-25.76-24.7l.06-284.31c0-13.65,11.55-24.7,25.79-24.7l118.31.07c14.23,0,25.76,11.07,25.75,24.71l-.05,284.3C401.25,369.33,389.71,380.39,375.47,380.38Z" transform="translate(-32.66 -46.6)"/><path class="cls-3" d="M375.43,56.73l-22.94,0-67,0H257.36c-10,0-18.06,7.74-18.06,17.3l-.06,277.5c0,9.55,8.08,17.3,18,17.3l118.08.07c10,0,18.05-7.74,18.05-17.3L393.47,74C393.47,64.48,385.4,56.73,375.43,56.73Z" transform="translate(-32.66 -46.6)"/><rect class="cls-4" x="248.76" y="139" width="93.02" height="85.27"/><g class="cls-5"><rect x="248.76" y="139" width="93.02" height="85.27"/></g><rect class="cls-4" x="225.61" y="139" width="78.38" height="85.27"/><path class="cls-1" d="M336.65,271c-.14,0-.26-19.13-.26-42.71s.12-42.72.26-42.72.26,19.12.26,42.72S336.8,271,336.65,271Z" transform="translate(-32.66 -46.6)"/><path class="cls-1" d="M374.44,228.32c0,.14-8.68.26-19.4.26s-19.41-.12-19.41-.26,8.69-.27,19.41-.27S374.44,228.17,374.44,228.32Z" transform="translate(-32.66 -46.6)"/><path class="cls-3" d="M365.72,265.39h-4.9a.38.38,0,1,1,0-.75h4.52v-4.5a.38.38,0,0,1,.75,0V265A.38.38,0,0,1,365.72,265.39Z" transform="translate(-32.66 -46.6)"/><path class="cls-3" d="M365.72,254.55a.38.38,0,0,1-.38-.38v-5.1h-4.65a.37.37,0,0,1-.38-.37.38.38,0,0,1,.38-.38h5a.38.38,0,0,1,.37.38v5.47A.38.38,0,0,1,365.72,254.55Z" transform="translate(-32.66 -46.6)"/><path class="cls-3" d="M349.4,254.68a.38.38,0,0,1-.38-.38v-5.6a.38.38,0,0,1,.38-.38h5a.37.37,0,0,1,.37.38.36.36,0,0,1-.37.37h-4.63v5.23A.37.37,0,0,1,349.4,254.68Z" transform="translate(-32.66 -46.6)"/><path class="cls-3" d="M354.27,265.39H349.4A.38.38,0,0,1,349,265V260.4a.38.38,0,0,1,.38-.38.37.37,0,0,1,.37.38v4.24h4.5a.38.38,0,0,1,0,.75Z" transform="translate(-32.66 -46.6)"/><path class="cls-3" d="M360.69,261.91h-6.16a.38.38,0,0,1-.38-.38V252a.38.38,0,0,1,.38-.38h6.16a.38.38,0,0,1,.37.38v9.49A.38.38,0,0,1,360.69,261.91Zm-5.79-.75h5.41v-8.75H354.9Z" transform="translate(-32.66 -46.6)"/><path class="cls-3" d="M358.21,260a.53.53,0,0,1-.53.53.54.54,0,1,1,.53-.53Z" transform="translate(-32.66 -46.6)"/><path class="cls-3" d="M358.3,253.85h-1.38a.38.38,0,1,1,0-.75h1.38a.38.38,0,1,1,0,.75Z" transform="translate(-32.66 -46.6)"/><path class="cls-3" d="M311.93,232.74H272.39a2.39,2.39,0,0,1-2.39-2.4h0a2.39,2.39,0,0,1,2.39-2.39h39.54a2.4,2.4,0,0,1,2.4,2.39h0A2.4,2.4,0,0,1,311.93,232.74Z" transform="translate(-32.66 -46.6)"/><rect class="cls-3" x="237.34" y="188.74" width="15.46" height="4.79" rx="2.4"/><path class="cls-3" d="M281.42,248.46a45.55,45.55,0,0,1-9.72,0,45.55,45.55,0,0,1,9.72,0Z" transform="translate(-32.66 -46.6)"/><rect class="cls-3" x="276.03" y="213.2" width="5.49" height="5.49" rx="2.01"/><rect class="cls-3" x="283.71" y="213.2" width="5.49" height="5.49" rx="2.01"/><rect class="cls-3" x="291.39" y="213.13" width="5.49" height="5.49" rx="2.01"/><rect class="cls-3" x="237.58" y="154.61" width="30.44" height="12.28"/><path class="cls-6" d="M469.75,152.71H429.67a3.28,3.28,0,0,1-3.28-3.29h0a3.28,3.28,0,0,1,3.28-3.28h40.08a3.28,3.28,0,0,1,3.28,3.28h0A3.28,3.28,0,0,1,469.75,152.71Z" transform="translate(-32.66 -46.6)"/><path class="cls-6" d="M469.75,165.61H429.67a3.28,3.28,0,0,1-3.28-3.29h0a3.28,3.28,0,0,1,3.28-3.28h40.08a3.28,3.28,0,0,1,3.28,3.28h0A3.28,3.28,0,0,1,469.75,165.61Z" transform="translate(-32.66 -46.6)"/><path class="cls-6" d="M441.74,178.23H429.67a3.28,3.28,0,0,1-3.28-3.29h0a3.28,3.28,0,0,1,3.28-3.28h12.07a3.28,3.28,0,0,1,3.28,3.28h0A3.28,3.28,0,0,1,441.74,178.23Z" transform="translate(-32.66 -46.6)"/><path class="cls-1" d="M419.39,137.56c.11.1-10.26,11.18-23.16,24.75S372.8,186.8,372.69,186.7,383,175.52,395.86,162,419.29,137.47,419.39,137.56Z" transform="translate(-32.66 -46.6)"/><path class="cls-1" d="M378.57,186.39a4.13,4.13,0,1,1-4.13-4.12A4.13,4.13,0,0,1,378.57,186.39Z" transform="translate(-32.66 -46.6)"/><circle class="cls-1" cx="225.61" cy="186.21" r="4.13"/><circle class="cls-1" cx="343.3" cy="212.82" r="4.13"/><path class="cls-6" d="M365,110H273.13a5,5,0,0,1-5-5h0a5,5,0,0,1,5-5H365a5,5,0,0,1,5,5h0A5,5,0,0,1,365,110Z" transform="translate(-32.66 -46.6)"/><path class="cls-6" d="M346.11,130.5H292a5,5,0,0,1-5-5h0a5,5,0,0,1,5-5h54.13a5,5,0,0,1,5,5h0A5,5,0,0,1,346.11,130.5Z" transform="translate(-32.66 -46.6)"/><rect class="cls-4" x="393.73" y="77.29" width="11.39" height="11.39"/><path class="cls-6" d="M219.43,140.85H179.36a3.29,3.29,0,0,1-3.29-3.29h0a3.28,3.28,0,0,1,3.29-3.28h40.07a3.28,3.28,0,0,1,3.28,3.28h0A3.28,3.28,0,0,1,219.43,140.85Z" transform="translate(-32.66 -46.6)"/><path class="cls-6" d="M219.43,153.75H179.36a3.28,3.28,0,0,1-3.29-3.28h0a3.29,3.29,0,0,1,3.29-3.29h40.07a3.28,3.28,0,0,1,3.28,3.29h0A3.28,3.28,0,0,1,219.43,153.75Z" transform="translate(-32.66 -46.6)"/><path class="cls-6" d="M191.43,166.37H179.36a3.28,3.28,0,0,1-3.29-3.28h0a3.29,3.29,0,0,1,3.29-3.29h12.07a3.28,3.28,0,0,1,3.28,3.29h0A3.28,3.28,0,0,1,191.43,166.37Z" transform="translate(-32.66 -46.6)"/><rect class="cls-4" x="143.41" y="65.43" width="11.39" height="11.39"/><path class="cls-6" d="M477.1,277H437a3.28,3.28,0,0,1-3.29-3.28h0a3.29,3.29,0,0,1,3.29-3.29H477.1a3.3,3.3,0,0,1,3.29,3.29h0A3.29,3.29,0,0,1,477.1,277Z" transform="translate(-32.66 -46.6)"/><rect class="cls-6" x="401.08" y="236.76" width="46.64" height="6.57" rx="3.28"/><path class="cls-6" d="M449.1,302.55H437a3.28,3.28,0,0,1-3.29-3.28h0A3.28,3.28,0,0,1,437,296H449.1a3.28,3.28,0,0,1,3.28,3.28h0A3.28,3.28,0,0,1,449.1,302.55Z" transform="translate(-32.66 -46.6)"/><rect class="cls-4" x="401.08" y="204.4" width="11.39" height="11.39"/><path class="cls-1" d="M424.79,259.42a10.32,10.32,0,0,1-1.68.11l-4.61.08c-3.89.05-9.26.07-15.2.07s-11.3,0-15.19-.07l-4.61-.08a10.39,10.39,0,0,1-1.69-.11,11.41,11.41,0,0,1,1.69-.1l4.61-.08c3.89-.05,9.26-.08,15.19-.08s11.31,0,15.2.08l4.61.08A11.34,11.34,0,0,1,424.79,259.42Z" transform="translate(-32.66 -46.6)"/><path class="cls-1" d="M204.1,178.81c.1-.1,12.31,11.95,27.27,26.9s27,27.17,26.9,27.28S246,221,231,206.08,204,178.92,204.1,178.81Z" transform="translate(-32.66 -46.6)"/><path class="cls-4" d="M249.55,171.84a.5.5,0,0,1-.5-.5V156.58a.5.5,0,0,1,.5-.5h14.78a.5.5,0,0,1,.5.5.5.5,0,0,1-.5.5H250.05v14.26A.5.5,0,0,1,249.55,171.84Z" transform="translate(-32.66 -46.6)"/><path class="cls-4" d="M380.08,171.85a.5.5,0,0,1-.5-.5V157.07H365.33a.5.5,0,0,1-.5-.5.5.5,0,0,1,.5-.5h14.75a.5.5,0,0,1,.5.5v14.78A.5.5,0,0,1,380.08,171.85Z" transform="translate(-32.66 -46.6)"/><path class="cls-4" d="M380.08,295.57H365.3a.51.51,0,0,1-.5-.5.5.5,0,0,1,.5-.5h14.28V280.31a.5.5,0,0,1,.5-.5.5.5,0,0,1,.5.5v14.76A.5.5,0,0,1,380.08,295.57Z" transform="translate(-32.66 -46.6)"/><path class="cls-4" d="M264.31,295.4H249.55a.5.5,0,0,1-.5-.5V280.12a.5.5,0,0,1,1,0V294.4h14.26a.5.5,0,1,1,0,1Z" transform="translate(-32.66 -46.6)"/><circle class="cls-6" cx="314.33" cy="345.54" r="12.19" transform="translate(-141.58 101.3) rotate(-22.68)"/><path class="cls-6" d="M256.5,82.43l8.24-8.1a1.87,1.87,0,0,0-2.65-2.65l-8.24,8.1a1.9,1.9,0,0,0,0,2.65,1.91,1.91,0,0,0,2.65,0Z" transform="translate(-32.66 -46.6)"/><path class="cls-6" d="M264.67,79.85l-8.1-8.24a1.87,1.87,0,0,0-2.65,2.65L262,82.5a1.87,1.87,0,1,0,2.65-2.65Z" transform="translate(-32.66 -46.6)"/><path class="cls-1" d="M393.73,270.87c0,.15-34.64.26-77.37.26S239,271,239,270.87s34.64-.26,77.38-.26S393.73,270.73,393.73,270.87Z" transform="translate(-32.66 -46.6)"/></g><g id="Box"><rect class="cls-4" x="173.05" y="272.37" width="159" height="145.74"/><g class="cls-5"><rect x="173.05" y="272.37" width="159" height="145.74"/></g><rect class="cls-4" x="133.49" y="272.37" width="133.97" height="145.74"/><path class="cls-1" d="M300.11,465c-.14,0-.26-32.69-.26-73s.12-73,.26-73,.26,32.68.26,73S300.26,465,300.11,465Z" transform="translate(-32.66 -46.6)"/><path class="cls-1" d="M364.71,392c0,.14-14.85.26-33.17.26s-33.17-.12-33.17-.26,14.85-.27,33.17-.27S364.71,391.83,364.71,392Z" transform="translate(-32.66 -46.6)"/><path class="cls-3" d="M349.79,455.71h-8.37a1,1,0,0,1,0-2h7.37v-7.34a1,1,0,0,1,2,0v8.34A1,1,0,0,1,349.79,455.71Z" transform="translate(-32.66 -46.6)"/><path class="cls-3" d="M349.79,437.17a1,1,0,0,1-1-1v-8.36H341.2a1,1,0,0,1,0-2h8.59a1,1,0,0,1,1,1v9.36A1,1,0,0,1,349.79,437.17Z" transform="translate(-32.66 -46.6)"/><path class="cls-3" d="M321.9,437.39a1,1,0,0,1-1-1v-9.58a1,1,0,0,1,1-1h8.54a1,1,0,0,1,0,2H322.9v8.58A1,1,0,0,1,321.9,437.39Z" transform="translate(-32.66 -46.6)"/><path class="cls-3" d="M330.22,455.71H321.9a1,1,0,0,1-1-1v-7.9a1,1,0,0,1,2,0v6.9h7.32a1,1,0,0,1,0,2Z" transform="translate(-32.66 -46.6)"/><path class="cls-3" d="M341.19,449.75H330.67a1,1,0,0,1-1-1V432.52a1,1,0,0,1,1-1h10.52a1,1,0,0,1,1,1v16.23A1,1,0,0,1,341.19,449.75Zm-9.52-2h8.52V433.52h-8.52Z" transform="translate(-32.66 -46.6)"/><circle class="cls-3" cx="303.4" cy="399.45" r="0.91"/><path class="cls-3" d="M337.11,436h-2.36a1,1,0,0,1,0-2h2.36a1,1,0,0,1,0,2Z" transform="translate(-32.66 -46.6)"/><path class="cls-3" d="M257.86,399.54H190.28a4.1,4.1,0,0,1-4.09-4.1h0a4.1,4.1,0,0,1,4.09-4.1h67.58a4.1,4.1,0,0,1,4.09,4.1h0A4.1,4.1,0,0,1,257.86,399.54Z" transform="translate(-32.66 -46.6)"/><path class="cls-3" d="M208.51,412.18H190.28a4.1,4.1,0,0,1-4.09-4.1h0a4.09,4.09,0,0,1,4.09-4.09h18.23a4.09,4.09,0,0,1,4.09,4.09h0A4.1,4.1,0,0,1,208.51,412.18Z" transform="translate(-32.66 -46.6)"/><path class="cls-3" d="M205.71,426.41a65.17,65.17,0,0,1-8.31.26,65.17,65.17,0,0,1-8.31-.26,67.46,67.46,0,0,1,8.31-.26A67.46,67.46,0,0,1,205.71,426.41Z" transform="translate(-32.66 -46.6)"/><rect class="cls-3" x="219.67" y="399.19" width="9.39" height="9.39" rx="2.01"/><rect class="cls-3" x="232.79" y="399.19" width="9.39" height="9.39" rx="2.01"/><rect class="cls-3" x="245.91" y="399.07" width="9.39" height="9.39" rx="2.01"/><rect class="cls-3" x="154.99" y="307.4" width="61.95" height="21.22"/><path class="cls-4" d="M381.36,417c6.26,4.51,6.56,14,1.37,19.29-2.25,2.3,1.29,5.84,3.54,3.53a18,18,0,0,0,5.05-13.89,17.79,17.79,0,0,0-7.43-13.24,2.52,2.52,0,0,0-3.42.89,2.56,2.56,0,0,0,.89,3.42Z" transform="translate(-32.66 -46.6)"/><path class="cls-4" d="M389.14,410.65c10,7.16,10.74,22.38,2.31,31-2.26,2.29,1.28,5.83,3.54,3.53a26.24,26.24,0,0,0,3.63-31.43,25.29,25.29,0,0,0-7-7.39,2.52,2.52,0,0,0-3.42.9,2.56,2.56,0,0,0,.9,3.42Z" transform="translate(-32.66 -46.6)"/><path class="cls-4" d="M397.57,403.29c10.65,7.6,13.94,22.19,9.09,34a27.77,27.77,0,0,1-5.83,8.74c-2.27,2.29,1.27,5.83,3.53,3.53A34.16,34.16,0,0,0,409,408.41a32.47,32.47,0,0,0-8.91-9.44,2.5,2.5,0,0,0-2.52,4.32Z" transform="translate(-32.66 -46.6)"/></g><g id="Character"><path class="cls-2" d="M124.64,433.77,124,464l39.85.94c-.14-3.61-20.56-11.31-20.56-11.31l1.25-19.38Z" transform="translate(-32.66 -46.6)"/><g class="cls-7"><path class="cls-3" d="M131,451.74a1.54,1.54,0,0,0-1.17,1.73,1.58,1.58,0,0,0,1.8,1.12,1.62,1.62,0,0,0,1.23-1.84,1.65,1.65,0,0,0-2-1" transform="translate(-32.66 -46.6)"/></g><g class="cls-7"><path class="cls-3" d="M124,464l.19-3.05,38.14,2s1.75.77,1.52,2Z" transform="translate(-32.66 -46.6)"/></g><path class="cls-1" d="M143.94,453.49c0,.18-1,.24-2,.81s-1.5,1.33-1.68,1.26.14-1.14,1.33-1.81S144,453.32,143.94,453.49Z" transform="translate(-32.66 -46.6)"/><path class="cls-1" d="M148.07,455.22c0,.18-.81.47-1.49,1.24s-.89,1.58-1.09,1.56-.29-1,.58-2S148.07,455.05,148.07,455.22Z" transform="translate(-32.66 -46.6)"/><path class="cls-1" d="M150.32,460c-.17,0-.42-.89.11-1.89s1.44-1.37,1.52-1.22-.5.68-.92,1.5S150.52,460,150.32,460Z" transform="translate(-32.66 -46.6)"/><path class="cls-1" d="M143.7,449c-.08.17-1-.11-2.07-.06s-2,.35-2.06.19.74-.8,2-.83S143.8,448.9,143.7,449Z" transform="translate(-32.66 -46.6)"/><path class="cls-1" d="M142.87,444.55a3.93,3.93,0,0,1-2-.05,9.24,9.24,0,0,1-2.07-.66,10.43,10.43,0,0,1-1.14-.6,2.5,2.5,0,0,1-.59-.46.76.76,0,0,1-.06-1,1.11,1.11,0,0,1,.86-.4,2.68,2.68,0,0,1,.75.12,7.41,7.41,0,0,1,1.23.43,7,7,0,0,1,1.81,1.18c.9.83,1.2,1.53,1.13,1.56s-.52-.53-1.44-1.22a7.8,7.8,0,0,0-2.9-1.35c-.42-.11-.77-.12-.89.05s0,.1,0,.21a2.17,2.17,0,0,0,.44.34,10.83,10.83,0,0,0,1,.59,11.4,11.4,0,0,0,1.92.75A15,15,0,0,1,142.87,444.55Z" transform="translate(-32.66 -46.6)"/><path class="cls-1" d="M142.61,444.81a2.86,2.86,0,0,1-.48-1.83,6,6,0,0,1,.33-2.06,5.88,5.88,0,0,1,.54-1.14,1.65,1.65,0,0,1,1.3-.92,1,1,0,0,1,.82.55,2.61,2.61,0,0,1,.18.69,3.58,3.58,0,0,1,0,1.27,4.18,4.18,0,0,1-.9,1.93c-.81,1-1.62,1.16-1.64,1.1s.63-.43,1.25-1.36a4.18,4.18,0,0,0,.67-1.76,3.62,3.62,0,0,0,0-1.09c-.06-.4-.21-.72-.37-.69s-.54.29-.71.6a7.47,7.47,0,0,0-.52,1,6.74,6.74,0,0,0-.44,1.88C142.53,444.09,142.72,444.78,142.61,444.81Z" transform="translate(-32.66 -46.6)"/><path class="cls-2" d="M94.43,436.28l-3.8,30-39.56-4.91c.67-3.54,22-8.18,22-8.18l1.6-19.35Z" transform="translate(-32.66 -46.6)"/><g class="cls-7"><path class="cls-3" d="M85.5,453.13a1.53,1.53,0,0,1,.9,1.88,1.56,1.56,0,0,1-1.94.84,1.62,1.62,0,0,1-.95-2,1.65,1.65,0,0,1,2.13-.65" transform="translate(-32.66 -46.6)"/></g><g class="cls-7"><path class="cls-3" d="M90.63,466.32l.26-3-38-3.57s-1.85.5-1.79,1.7Z" transform="translate(-32.66 -46.6)"/></g><path class="cls-1" d="M72.45,453c0,.19.94.39,1.82,1.1s1.29,1.53,1.48,1.48,0-1.14-1-2S72.43,452.79,72.45,453Z" transform="translate(-32.66 -46.6)"/><path class="cls-1" d="M68.11,454.07c-.07.17.73.59,1.29,1.44s.65,1.7.85,1.71.44-1-.28-2.05S68.13,453.9,68.11,454.07Z" transform="translate(-32.66 -46.6)"/><path class="cls-1" d="M65.18,458.47c.17.06.55-.81.18-1.88S64.13,455,64,455.16s.39.75.68,1.63S65,458.43,65.18,458.47Z" transform="translate(-32.66 -46.6)"/><path class="cls-1" d="M73.33,448.6c.06.18,1,0,2.06.24s1.9.64,2,.49-.62-.89-1.9-1.12S73.26,448.44,73.33,448.6Z" transform="translate(-32.66 -46.6)"/><path class="cls-1" d="M74.81,444.28a4.12,4.12,0,0,0,2,.24,9.78,9.78,0,0,0,2.14-.35,8.79,8.79,0,0,0,1.21-.43,2.7,2.7,0,0,0,.65-.36.78.78,0,0,0,.21-1,1.09,1.09,0,0,0-.8-.52,2.64,2.64,0,0,0-.75,0,6.93,6.93,0,0,0-1.28.24,7.09,7.09,0,0,0-2,.91c-1,.69-1.41,1.33-1.35,1.38s.6-.45,1.61-1a8.12,8.12,0,0,1,1.88-.72,8.55,8.55,0,0,1,1.18-.19c.43,0,.79,0,.88.18s0,.1-.07.21a2.59,2.59,0,0,1-.48.26,11.26,11.26,0,0,1-1.12.44,10.35,10.35,0,0,1-2,.45A14,14,0,0,0,74.81,444.28Z" transform="translate(-32.66 -46.6)"/><path class="cls-1" d="M75,444.57c.07,0,.53-.57.75-1.74a5.91,5.91,0,0,0,0-2.09,5.82,5.82,0,0,0-.36-1.2,1.67,1.67,0,0,0-1.15-1.1.94.94,0,0,0-.89.42,2.47,2.47,0,0,0-.29.66,4,4,0,0,0-.15,1.26,4.1,4.1,0,0,0,.61,2c.65,1.07,1.43,1.39,1.46,1.33s-.56-.52-1-1.53a4.22,4.22,0,0,1-.41-1.83,3.38,3.38,0,0,1,.17-1.08c.11-.39.3-.69.46-.63s.49.36.62.7a5.86,5.86,0,0,1,.36,1.07,6.32,6.32,0,0,1,.16,1.92C75.22,443.87,74.93,444.53,75,444.57Z" transform="translate(-32.66 -46.6)"/><path class="cls-1" d="M145.85,451.21" transform="translate(-32.66 -46.6)"/><path class="cls-1" d="M159.2,273l-65.7,2.1S78.88,372.73,79.28,379.51l-9,70.83,26.24.92s4.13-23,7-38.69c1.92-10.46,5.41-25.8,6.36-34.54s14-68.85,14-68.85S125,379.11,125.05,382s-3,69.19-3,69.19h26.06c1.34-12,4.54-59.84,5.23-69.51,1.24-17.47,7.35-67.72,7.92-80.33S159.2,273,159.2,273Z" transform="translate(-32.66 -46.6)"/><path class="cls-2" d="M103.47,283.46a10.64,10.64,0,0,1-.32-3,10.13,10.13,0,0,1,.14-3.05,10.5,10.5,0,0,1,.32,3A10.13,10.13,0,0,1,103.47,283.46Z" transform="translate(-32.66 -46.6)"/><path class="cls-2" d="M105.87,282.75a7.43,7.43,0,0,1,0-2.6,7.86,7.86,0,0,1,.47-2.55,7.73,7.73,0,0,1,0,2.6A7.86,7.86,0,0,1,105.87,282.75Z" transform="translate(-32.66 -46.6)"/><ellipse class="cls-2" cx="113.3" cy="233.93" rx="0.23" ry="2.23"/><path class="cls-2" d="M148.54,283.93a8.43,8.43,0,0,1,.47-5.63,21.14,21.14,0,0,1-.27,2.81A20.79,20.79,0,0,1,148.54,283.93Z" transform="translate(-32.66 -46.6)"/><path class="cls-2" d="M127.61,307.62a6.26,6.26,0,0,1,.15-1.15l.53-3.08c.43-2.61.94-6.23,1.27-10.25s.4-7.67.4-10.31c0-1.26,0-2.31,0-3.14a4.51,4.51,0,0,1,0-1.15,5.81,5.81,0,0,1,.14,1.15c.06.73.12,1.81.17,3.13a97.51,97.51,0,0,1-.27,10.36,95.26,95.26,0,0,1-1.4,10.26c-.26,1.3-.49,2.35-.67,3.07A5.66,5.66,0,0,1,127.61,307.62Z" transform="translate(-32.66 -46.6)"/><path class="cls-2" d="M125.36,279.28a2.35,2.35,0,0,0-1.31.73,1.83,1.83,0,0,0-.43,1.47,1.57,1.57,0,0,0,1.32,1.18,1.59,1.59,0,0,0,1.66-.62,1.83,1.83,0,0,0,.14-1.52,2.26,2.26,0,0,0-1-1.16s.18,0,.44.11a1.92,1.92,0,0,1,.82.93,2.12,2.12,0,0,1-.09,1.86,2.09,2.09,0,0,1-3.74-.71,2.14,2.14,0,0,1,.6-1.76,1.93,1.93,0,0,1,1.11-.57C125.21,279.19,125.37,279.26,125.36,279.28Z" transform="translate(-32.66 -46.6)"/><path class="cls-2" d="M96.76,387a56.91,56.91,0,0,1-6.64-2.49,54.14,54.14,0,0,1-6.48-2.9,55.42,55.42,0,0,1,6.65,2.48A54.42,54.42,0,0,1,96.76,387Z" transform="translate(-32.66 -46.6)"/><path class="cls-4" d="M162.67,277.37c-.23-.84-5.46-44.19-5.46-44.19l2.72-56.26-23.42-8.21-3.7-2.83-23.53.27-2.67,4L84.33,180.26l6.21,46.1,1.74,38.57,1.65,14.28,66,3.94Z" transform="translate(-32.66 -46.6)"/><g class="cls-5"><path d="M159.08,248.45l-24.71,3a4.38,4.38,0,0,0,2.86,4.29,10.36,10.36,0,0,0,5.45.34,24.33,24.33,0,0,1,5.5-.5c1.84.16,3.63.89,5.48.78a6.07,6.07,0,0,0,5.42-7.88Z" transform="translate(-32.66 -46.6)"/></g><path class="cls-4" d="M159.93,176.92s5.48.77,8.68,10.37,10.72,44.48,11.2,46.88-1.61,10.06-10,13.49a29,29,0,0,1-14.37,2.25V232.25l3.52-3.84-1.37-6.23Z" transform="translate(-32.66 -46.6)"/><path class="cls-1" d="M174.81,229.35A5.34,5.34,0,0,1,174,229c-.53-.23-1.3-.57-2.28-.93a22.58,22.58,0,0,0-3.5-1,15.88,15.88,0,0,0-2.13-.27,8.48,8.48,0,0,0-2.29.14,11.91,11.91,0,0,0-6.83,4,8.36,8.36,0,0,0-1.19,2.13,6.65,6.65,0,0,1-.27.87s0-.08,0-.24.06-.37.14-.66a7.35,7.35,0,0,1,1.14-2.2,11.77,11.77,0,0,1,6.93-4.14,8.88,8.88,0,0,1,2.34-.14,15.87,15.87,0,0,1,2.16.29,21.57,21.57,0,0,1,3.52,1.06c1,.38,1.74.75,2.26,1,.27.13.46.24.6.32Z" transform="translate(-32.66 -46.6)"/><path class="cls-1" d="M169.85,226.06c0,.05-.66-.25-1.77-.48a9.77,9.77,0,0,0-8.23,2.06c-.87.72-1.3,1.29-1.33,1.26a1.68,1.68,0,0,1,.28-.41,7.73,7.73,0,0,1,.93-1,9.27,9.27,0,0,1,8.39-2.1,7.5,7.5,0,0,1,1.29.42A2.29,2.29,0,0,1,169.85,226.06Z" transform="translate(-32.66 -46.6)"/><path class="cls-1" d="M158.12,191.31c.07,0,0,8.59-.1,19.18s-.29,19.19-.36,19.19,0-8.59.1-19.19S158.05,191.31,158.12,191.31Z" transform="translate(-32.66 -46.6)"/><path class="cls-1" d="M158.55,230.4l-13.16-.17a2.49,2.49,0,0,0-2.18,1.25l-9,19.49.34,1.31h15.29l8.95-20.09Z" transform="translate(-32.66 -46.6)"/><path class="cls-8" d="M158.43,233l-.48,1.1-2.67,5.39s-6.89-.62-8-.76-1.66,1-1.73,1.69a2.4,2.4,0,0,0,.57,1.46,31.36,31.36,0,0,1-5.71-2.36c-1.44-1-2.17-.37-2.17-.37a2,2,0,0,0-3,.37,24.22,24.22,0,0,0,2.09,5.08c.58.89,3.76,4,4,4.32s2.68,1,5.49,2.56a4.18,4.18,0,0,0,4.89-.5l.39,0c.65-.07,2.39-1.74,2.82-1.68s.8-.06,1.67-1a28.76,28.76,0,0,0,3.81-7.21c.51-1.72.21-2.16.07-2.28a7.86,7.86,0,0,0,2.55.76c1.81.29,2.75-1,2.89-3.47S160.46,233.63,158.43,233Z" transform="translate(-32.66 -46.6)"/><path class="cls-9" d="M157.5,244.22a1.87,1.87,0,0,1-.46.11,10.48,10.48,0,0,1-1.27.16,15.18,15.18,0,0,1-4.21-.31,15,15,0,0,1-4-1.46,12.67,12.67,0,0,1-1.1-.67,4,4,0,0,1-.37-.29s.58.34,1.54.82a16.56,16.56,0,0,0,8.09,1.75C156.83,244.29,157.49,244.18,157.5,244.22Z" transform="translate(-32.66 -46.6)"/><path class="cls-9" d="M157.63,239.29a3.48,3.48,0,0,1-1.61.37,3.58,3.58,0,0,1-1.64-.22c0-.07.74,0,1.63,0S157.61,239.23,157.63,239.29Z" transform="translate(-32.66 -46.6)"/><path class="cls-9" d="M160.9,239.06c0,.06-1-.36-2.26-.7s-2.3-.5-2.29-.57a7.52,7.52,0,0,1,2.35.35A7.34,7.34,0,0,1,160.9,239.06Z" transform="translate(-32.66 -46.6)"/><path class="cls-9" d="M160.26,234.42c.07,0-.18.77-.19,1.73a4,4,0,0,0,.12,1.19,1,1,0,0,0,.28.39s-.06,0-.15,0a.58.58,0,0,1-.27-.3,2.9,2.9,0,0,1-.2-1.26A3.16,3.16,0,0,1,160.26,234.42Z" transform="translate(-32.66 -46.6)"/><path class="cls-9" d="M153.63,248.41h-.22l-.61,0c-.53,0-1.3-.07-2.25-.18a16.37,16.37,0,0,1-3.28-.69,11,11,0,0,1-1.82-.79c-.61-.33-1.2-.71-1.82-1.1-2.74-1.76-5.19-3.34-6.77-4.38l0,0v0a2.4,2.4,0,0,1,.87-1.57,2.55,2.55,0,0,1,.41-.26l.16-.05a3,3,0,0,0-.52.37,2.31,2.31,0,0,0-.78,1.52l0-.06c1.6,1,4.07,2.55,6.81,4.3.62.39,1.21.78,1.8,1.1a11.12,11.12,0,0,0,1.79.79,17.24,17.24,0,0,0,3.23.72c.94.13,1.71.2,2.24.25l.61.07Z" transform="translate(-32.66 -46.6)"/><path class="cls-9" d="M151.3,250.76a4.18,4.18,0,0,1-.65-.07c-.41-.06-1-.17-1.74-.33a33.14,33.14,0,0,1-5.59-1.72,11.9,11.9,0,0,1-2.78-1.66,15.77,15.77,0,0,1-1.88-1.84c-.5-.56-.88-1-1.13-1.37a4.51,4.51,0,0,1-.39-.52,3.28,3.28,0,0,1,.45.47c.28.31.67.77,1.18,1.31a18.79,18.79,0,0,0,1.9,1.79,11.71,11.71,0,0,0,2.74,1.61,37.7,37.7,0,0,0,5.53,1.78c.73.18,1.32.3,1.72.39A3.59,3.59,0,0,1,151.3,250.76Z" transform="translate(-32.66 -46.6)"/><path class="cls-1" d="M86.92,191.54a37.7,37.7,0,0,1-1.38-4,34.86,34.86,0,0,1-1.15-4.06,36.32,36.32,0,0,1,1.39,4A33.55,33.55,0,0,1,86.92,191.54Z" transform="translate(-32.66 -46.6)"/><path class="cls-1" d="M159.72,179.6a5.64,5.64,0,0,1-.12,1.19c-.11.82-.24,1.78-.38,2.85s-.24,2-.33,2.85a5.35,5.35,0,0,1-.18,1.18,5.45,5.45,0,0,1,0-1.2c0-.73.12-1.75.26-2.87s.31-2.12.45-2.84A5.94,5.94,0,0,1,159.72,179.6Z" transform="translate(-32.66 -46.6)"/><path class="cls-1" d="M136.75,245.72a5.7,5.7,0,0,1-1,.79c-.64.48-1.61,1.15-2.82,1.94a95.47,95.47,0,0,1-20.21,10c-1.36.48-2.48.85-3.25,1.07a6.51,6.51,0,0,1-1.22.31,5.22,5.22,0,0,1,1.16-.49l3.19-1.21c2.69-1,6.36-2.58,10.31-4.53s7.38-4,9.84-5.46l2.9-1.81A6,6,0,0,1,136.75,245.72Z" transform="translate(-32.66 -46.6)"/><g class="cls-5"><path d="M86.81,250.06a37,37,0,0,0-7.49-3.3,12.66,12.66,0,0,0-8,.19c-.28.12-.6.31-.62.61s.5.62.92.69c5,.8,10.33,1.17,15.36,1.9" transform="translate(-32.66 -46.6)"/></g><path class="cls-8" d="M114.55,293.43s-5.15-4.19-6.64-6.09-2.47-3-2.47-3-6.17-1.84-8.43-4.45-6-6.37-6-6.37l-7.31,7.66s4.22,6.83,4.56,9.09,2.92,8.46,2.92,8.46l14-8.39s3,4.18,4.91,4.64C111.68,295.35,114.43,296.49,114.55,293.43Z" transform="translate(-32.66 -46.6)"/><path class="cls-4" d="M84.33,180.26s-5.06,1.29-10.07,20.14c-4.52,17-10.68,49.89-10.47,53.19s19.76,33,19.76,33l4.22,1.5,9.09-7.55s3-4.92,2.11-6.12-4.61-3.71-4.61-3.71l-7.43-20.52L91.06,223Z" transform="translate(-32.66 -46.6)"/><path class="cls-1" d="M79.27,248.87a1.92,1.92,0,0,1,.55,0l1.54.21L87,250l.11,0,0,.11c1.18,3.2,2.65,7.22,4.26,11.59l3.19,8.91-.06-.09c.61.51,1.21.95,1.76,1.49a6.17,6.17,0,0,1,1.2,1.74,6.1,6.1,0,0,1,.51,3.36,8.69,8.69,0,0,1-.64,2.1,3.71,3.71,0,0,1-.32.7,2.6,2.6,0,0,1,.19-.75,9.69,9.69,0,0,0,.52-2.08,6,6,0,0,0-.58-3.18A5.85,5.85,0,0,0,96,272.27c-.49-.48-1.13-.93-1.74-1.43l0,0,0-.06-3.25-8.89-4.16-11.63.15.12-5.57-1L79.8,249A2.08,2.08,0,0,1,79.27,248.87Z" transform="translate(-32.66 -46.6)"/><path class="cls-1" d="M88.91,200.66c.14,0,1,13.86,1.91,31s1.55,31,1.42,31-1-13.86-1.91-31S88.78,200.66,88.91,200.66Z" transform="translate(-32.66 -46.6)"/><path class="cls-1" d="M125.93,181.71a2.35,2.35,0,0,1-.81.13,15.37,15.37,0,0,1-2.23,0,18,18,0,0,1-12.78-6.55,13.44,13.44,0,0,1-1.29-1.82,2.29,2.29,0,0,1-.36-.73c.07-.05.66.95,1.9,2.34a19.27,19.27,0,0,0,12.56,6.42C124.77,181.72,125.93,181.63,125.93,181.71Z" transform="translate(-32.66 -46.6)"/><path class="cls-1" d="M136.36,169.69a4.47,4.47,0,0,1,.48,1.89,9.36,9.36,0,0,1-3.65,8.39,4.47,4.47,0,0,1-1.71.94c0-.07.61-.42,1.5-1.2a10.07,10.07,0,0,0,3.53-8.1C136.47,170.43,136.28,169.71,136.36,169.69Z" transform="translate(-32.66 -46.6)"/><path class="cls-1" d="M144,124.7a4.66,4.66,0,0,0,2.12-9,4.84,4.84,0,0,0-4.09-8.24,5.8,5.8,0,0,0-8.67-4.9,6.51,6.51,0,0,0-8-.3,4.65,4.65,0,0,0-4.23,7.81" transform="translate(-32.66 -46.6)"/><path class="cls-8" d="M144.65,125.36a19.77,19.77,0,0,0-19.38-18.52h-1c-11,.45-16.84,10.08-16.08,21.11l1,38.76c2.49,5.91,6.56,10.7,14.07,12a10,10,0,0,0,8.45-2.31,8.32,8.32,0,0,0,2.84-6l.11-7.69s10.63-1.46,10.95-12.07C145.8,145.5,145.25,134.93,144.65,125.36Z" transform="translate(-32.66 -46.6)"/><path class="cls-9" d="M134.77,162.68A25.76,25.76,0,0,1,121,158.36s3.13,7.69,13.73,6.92Z" transform="translate(-32.66 -46.6)"/><path class="cls-1" d="M141.79,134.61a1.52,1.52,0,0,1-1.49,1.51,1.45,1.45,0,0,1-1.53-1.4,1.51,1.51,0,0,1,1.48-1.5A1.44,1.44,0,0,1,141.79,134.61Z" transform="translate(-32.66 -46.6)"/><path class="cls-1" d="M142.28,130.52c-.19.19-1.32-.68-2.95-.7s-2.84.77-3,.56.11-.44.63-.81a4.17,4.17,0,0,1,2.42-.7,4,4,0,0,1,2.35.8C142.21,130.07,142.38,130.43,142.28,130.52Z" transform="translate(-32.66 -46.6)"/><path class="cls-1" d="M127.55,135a1.51,1.51,0,0,1-1.49,1.5,1.44,1.44,0,0,1-1.53-1.39,1.51,1.51,0,0,1,1.48-1.5A1.44,1.44,0,0,1,127.55,135Z" transform="translate(-32.66 -46.6)"/><path class="cls-1" d="M126.25,130.54c-.19.19-1.32-.68-3-.7s-2.84.77-3,.56.11-.44.64-.81a4.16,4.16,0,0,1,2.41-.7,4,4,0,0,1,2.35.81C126.18,130.09,126.35,130.45,126.25,130.54Z" transform="translate(-32.66 -46.6)"/><path class="cls-1" d="M132,142.73a10.86,10.86,0,0,1,2.65-.43c.42,0,.81-.11.89-.4a2.06,2.06,0,0,0-.26-1.23l-1.17-3.2c-1.63-4.54-2.8-8.27-2.62-8.33s1.65,3.56,3.28,8.1c.39,1.12.77,2.19,1.13,3.21a2.44,2.44,0,0,1,.18,1.64,1,1,0,0,1-.69.6,3.27,3.27,0,0,1-.71.08A10.85,10.85,0,0,1,132,142.73Z" transform="translate(-32.66 -46.6)"/><path class="cls-1" d="M125.94,125.09c-.09.45-1.57.4-3.25.81s-3,1.07-3.28.7c-.12-.18.07-.62.59-1.1a5.06,5.06,0,0,1,2.35-1.22,5.14,5.14,0,0,1,2.62.06C125.63,124.56,126,124.87,125.94,125.09Z" transform="translate(-32.66 -46.6)"/><path class="cls-1" d="M142.23,126c-.34.35-1.53-.13-3-.27s-2.74,0-3-.38c-.11-.2.11-.55.69-.86a4.71,4.71,0,0,1,4.84.53C142.25,125.42,142.39,125.82,142.23,126Z" transform="translate(-32.66 -46.6)"/><path class="cls-1" d="M143.72,120.48s-2.68-6.69-5.86-8.29c-3.84-2-5.59,2.28-9.26,1.18s-7.35-3-11.18-.18c-4.19,3.06-2.29,5.29-2.63,10-1.37,19.06-5,24.39-5.78,15.39-.09-1-2.81-1.82-3.14-6-.43-5.4-.52-12,.75-15.76,1.07-3.21,2.95-5.41,6.29-7.81,5.28-3.78,12.43-3.74,17.28-3.17S144.31,112.17,143.72,120.48Z" transform="translate(-32.66 -46.6)"/><path class="cls-8" d="M109.69,138.29a2.89,2.89,0,0,0-3.06-2.83c-2,.16-4.2,1.24-4.14,5.33.1,7.26,7.36,5.66,7.37,5.45S109.76,141.33,109.69,138.29Z" transform="translate(-32.66 -46.6)"/><path class="cls-9" d="M108.24,143.53s-.12.09-.33.19a1.26,1.26,0,0,1-1,0,3.1,3.1,0,0,1-1.48-2.78,4.28,4.28,0,0,1,.32-1.82,1.48,1.48,0,0,1,.94-1,.64.64,0,0,1,.75.34c.1.2.06.34.1.35s.15-.12.09-.42a.83.83,0,0,0-.29-.45.94.94,0,0,0-.71-.17,1.78,1.78,0,0,0-1.3,1.14,4.32,4.32,0,0,0-.41,2c.07,1.46.84,2.82,1.89,3.11a1.39,1.39,0,0,0,1.15-.21C108.23,143.71,108.27,143.54,108.24,143.53Z" transform="translate(-32.66 -46.6)"/><path class="cls-1" d="M110.08,124.24a7,7,0,0,0,3,1.48,2.37,2.37,0,0,0,2.65-1.62c.09-.5,0-1.09.32-1.48s1.13-.3,1.74-.22a4.63,4.63,0,0,0,4.86-3.23,2,2,0,0,0,2.6.29,10.23,10.23,0,0,0,2-2.08,3,3,0,0,1,2.51-1.2,7.3,7.3,0,0,0,1.57.37c.95-.06,1.44-1.17,1.6-2.11s.29-2,1.11-2.55a3.77,3.77,0,0,1,2.59,0c.87.14,2,0,2.25-.9a1.76,1.76,0,0,0-.3-1.32,4.7,4.7,0,0,0-5.51-1.87,6.37,6.37,0,0,0-11.68-1.44,6.46,6.46,0,0,0-10.37,2.17,4.68,4.68,0,0,0-5.4,6.72,4.46,4.46,0,0,0-2.51,3.5c-.05,1.5,1.39,3,2.84,2.65a2.59,2.59,0,0,0,4.44,2.66" transform="translate(-32.66 -46.6)"/><path class="cls-2" d="M133.64,109.92a1.16,1.16,0,0,1,0,.13c0,.09,0,.22,0,.39a4.66,4.66,0,0,1-.55,1.39,5.18,5.18,0,0,1-1.64,1.68,4.84,4.84,0,0,1-3,.8l.13-.16a2.65,2.65,0,0,1-.18,2,7.63,7.63,0,0,1-1.27,1.76,5.38,5.38,0,0,1-.83.82,2.48,2.48,0,0,1-1.16.4,2.65,2.65,0,0,1-2.32-.87l.28-.08a5.46,5.46,0,0,1-2.38,3.73,4,4,0,0,1-2.39.74,7.43,7.43,0,0,1-2.34-.56l.2-.08a5.72,5.72,0,0,1-1.76,2.2,3,3,0,0,1-2.54.65,4,4,0,0,1-3-3.18l.16.08a3.79,3.79,0,0,1-2.49.32,4,4,0,0,1-1.73-.81,3.28,3.28,0,0,1-.79-.9,1.63,1.63,0,0,1-.18-.38,4.25,4.25,0,0,0,1,1.19,4,4,0,0,0,1.68.73,3.6,3.6,0,0,0,2.36-.35l.13-.07,0,.15a3.77,3.77,0,0,0,2.86,3,2.75,2.75,0,0,0,2.3-.61,5.37,5.37,0,0,0,1.65-2.1l.06-.13.14,0a6.86,6.86,0,0,0,2.24.53,3.68,3.68,0,0,0,2.21-.69,5.13,5.13,0,0,0,2.24-3.5l.05-.35.22.27a2.36,2.36,0,0,0,2,.78,2.3,2.3,0,0,0,1-.35,5.14,5.14,0,0,0,.78-.77,7.65,7.65,0,0,0,1.24-1.68,2.37,2.37,0,0,0,.19-1.81l-.06-.18.19,0a4.72,4.72,0,0,0,2.86-.72,5.12,5.12,0,0,0,1.62-1.59A6.09,6.09,0,0,0,133.64,109.92Z" transform="translate(-32.66 -46.6)"/><path class="cls-9" d="M127.14,144.83a25.12,25.12,0,0,1,5.72,1.9l0,.05c-.25,1.35-.67,2.83-1.84,3.53a2.88,2.88,0,0,1-2.92-.05,3.24,3.24,0,0,1-1.57-2.35A6.57,6.57,0,0,1,127.14,144.83Z" transform="translate(-32.66 -46.6)"/><path class="cls-1" d="M129.84,150.53A3.18,3.18,0,0,1,128,150a2.88,2.88,0,0,1-1.11-1.68,4.72,4.72,0,0,1,.16-2.53,3.16,3.16,0,0,1,.23-.59s0,0,0,0l.3.1,1.25.39,2.12.63a7.93,7.93,0,0,0,2,.45,8.49,8.49,0,0,0-1.89-.8l-2.08-.74-1.24-.42c-.12,0-.19-.07-.35-.11a.54.54,0,0,0-.57.23,3.39,3.39,0,0,0-.29.72,4.85,4.85,0,0,0-.13,2.81,3.2,3.2,0,0,0,1.36,1.87,2.5,2.5,0,0,0,1.5.4A.94.94,0,0,0,129.84,150.53Z" transform="translate(-32.66 -46.6)"/></g></svg>