<svg id="Layer_1" data-name="Layer 1" xmlns="http://www.w3.org/2000/svg" viewBox="0 0 672.44 695.92"><defs><style>.cls-1{fill:#fc8b8b;}.cls-1,.cls-2,.cls-3{fill-rule:evenodd;}.cls-2{fill:#f97373;}.cls-3,.cls-4{fill:#053c48;}</style></defs><title>store</title><path class="cls-1" d="M1076.06,1591.89H695l-107.8,187.77-.36,67.36c0,22.19,9.71,37.94,23.51,47.29.08,206.07.06,157.89,0,272.88,0,24,22.05,43.49,46.82,43.5,114.26,0,153.88,0,456.62,0,24.78,0,46.83-19.49,46.83-43.5,0-115,0-66.81,0-272.88,13.79-9.35,23.51-25.1,23.51-47.29l-2.61-75.51Z" transform="translate(-549.32 -1554.04)"/><path class="cls-2" d="M1076.06,1591.89H995c-67.83,64.61-124.69,156.1-158,264.58-39.11,127.49-38.11,253.83-4.9,354.22h281.76c24.78,0,46.83-19.49,46.83-43.5,0-115,0-66.81,0-272.88,13.79-9.35,23.51-25.1,23.51-47.29l-2.61-75.51Z" transform="translate(-549.32 -1554.04)"/><path class="cls-3" d="M1104.62,1570c-7.33-12.61-14.77-16-29.27-16H695.72c-14.5,0-21.94,3.37-29.27,16L556.52,1759.13c-4.92,8.46-7.2,16-7.2,25.8V1847a99.11,99.11,0,0,0,21.87,62.12l.55,253.82c0,48.05,40.17,87,89.71,87h448.17c49.54,0,89.71-38.94,89.71-87l.55-253.82a99.11,99.11,0,0,0,21.87-62.12V1789.1c0-14.17-.69-18.77-7.7-30.84ZM1156.44,2163c0,24-22,43.49-46.82,43.49H870.22v-207.7A25.34,25.34,0,0,0,845,1973.49H734.9a25.34,25.34,0,0,0-25.27,25.27v207.7H661.45c-24.77,0-46.82-19.48-46.82-43.49,0-117.85,0,2.17,0-222.42a99.47,99.47,0,0,0,113.29-32.67c39.85,51.43,117.82,51.43,157.66,0,39.85,51.43,117.82,51.43,157.67,0a99.47,99.47,0,0,0,113.29,32.67C1156.4,2165.14,1156.43,2045.12,1156.44,2163ZM1064.08,1847l-.9-68.84-29.92-122.84c-8.77-36-45.37-17.32-41,0l30.58,122-.49,69.66c0,76.16-115.91,76.16-115.91,0l-.36-192.86c0-27.14-41-27.14-41,0L864.66,1847c0,76.16-115.91,76.16-115.91,0l.55-69.37,30.58-122c4.34-17.33-32.25-36-41,0l-29.92,122.83L707,1847c0,76.67-115.91,76.67-115.91,0l.35-67.36L695,1597.52h381l101.33,174L1180,1847C1180,1923.69,1064.08,1923.69,1064.08,1847Z" transform="translate(-549.32 -1554.04)"/><rect class="cls-4" x="407.11" y="435.81" width="122.33" height="122.33" rx="20.39"/></svg>