<svg xmlns="http://www.w3.org/2000/svg" xmlns:xlink="http://www.w3.org/1999/xlink" viewBox="0 0 2790.19 2989.9"><defs><style>.cls-1{fill:none;}.cls-2{isolation:isolate;}.cls-3{fill:#f4f7fa;}.cls-4{fill:url(#linear-gradient);}.cls-5{clip-path:url(#clip-path);}.cls-6{fill:#fcfdfe;}.cls-7{fill:url(#linear-gradient-2);}.cls-8{clip-path:url(#clip-path-2);}.cls-9{fill:#97a6b7;}.cls-10{fill:url(#linear-gradient-3);}.cls-11{fill:url(#linear-gradient-4);}.cls-12{fill:#fff;}.cls-13{fill:url(#linear-gradient-5);}.cls-14{fill:#9d3060;}.cls-15{fill:url(#linear-gradient-6);}.cls-16{fill:url(#linear-gradient-7);}.cls-17{fill:url(#linear-gradient-8);}.cls-18{fill:url(#linear-gradient-9);}.cls-19{opacity:0.48;mix-blend-mode:soft-light;}.cls-20{fill:url(#linear-gradient-10);}.cls-21{fill:url(#linear-gradient-11);}.cls-22{fill:url(#linear-gradient-12);}.cls-23{fill:url(#linear-gradient-13);}.cls-24{fill:url(#linear-gradient-14);}.cls-25{fill:url(#linear-gradient-15);}.cls-26{fill:url(#linear-gradient-16);}.cls-27{fill:#de8bdf;}.cls-28{fill:url(#linear-gradient-17);}.cls-29{fill:url(#linear-gradient-18);}.cls-30{fill:url(#linear-gradient-19);}.cls-31{fill:url(#linear-gradient-20);}.cls-32{fill:url(#linear-gradient-21);}.cls-33{fill:url(#linear-gradient-22);}.cls-34{fill:url(#linear-gradient-23);}</style><linearGradient id="linear-gradient" x1="2110.76" y1="2600.15" x2="506.73" y2="-173.48" gradientTransform="matrix(0.99, 0.11, -0.11, 0.99, 95.6, -262.38)" gradientUnits="userSpaceOnUse"><stop offset="0" stop-color="#aa80f9"/><stop offset="1" stop-color="#6165d7"/></linearGradient><clipPath id="clip-path" transform="translate(-440.29 -250.56)"><path class="cls-1" d="M1638.16,1505.23c8.88-51.43,110.94-404.89,40.38-507.77-80.38-117.22-177.41-95.79-162.93-227,22.63-205.08-97.07-421.13-371.74-306.46-271.09,113.17-187.37,869.61-9.41,1058.29,121.38,213.17,236.73,256.92,183.84,536.21C1281.25,2254.14,1604.79,1698.62,1638.16,1505.23Z"/></clipPath><linearGradient id="linear-gradient-2" x1="539.42" y1="1567.13" x2="1556.17" y2="1567.13" gradientUnits="userSpaceOnUse"><stop offset="0" stop-color="#e38ddd"/><stop offset="1" stop-color="#9571f6"/></linearGradient><clipPath id="clip-path-2" transform="translate(-440.29 -250.56)"><path class="cls-1" d="M1575.1,2242.78c-141.42,72.41-300.8,155-398-37-81-159.89-127.17-270.45-330.36-308.65S488,1705.91,555.28,1510.87c70.8-205.26-108.09-478.17,63.93-626.57,299.73-258.6,483,253.79,536.82,538.56s233.7,157.6,416.2,146.79C1821.38,1554.9,1689.36,2184.27,1575.1,2242.78Z"/></clipPath><linearGradient id="linear-gradient-3" x1="2138.32" y1="2173.27" x2="2144.8" y2="2416.44" gradientUnits="userSpaceOnUse"><stop offset="0" stop-color="#444b8c"/><stop offset="1" stop-color="#26264f"/></linearGradient><linearGradient id="linear-gradient-4" x1="2191.26" y1="1870.98" x2="1476.71" y2="-637.64" xlink:href="#linear-gradient-3"/><linearGradient id="linear-gradient-5" x1="1476.62" y1="248.7" x2="2778.85" y2="1646.83" gradientUnits="userSpaceOnUse"><stop offset="0" stop-color="#ff9085"/><stop offset="1" stop-color="#fb6fbb"/></linearGradient><linearGradient id="linear-gradient-6" x1="1053.14" y1="2075.37" x2="3048.75" y2="2075.37" xlink:href="#linear-gradient-3"/><linearGradient id="linear-gradient-7" x1="1234.04" y1="766.1" x2="1804.37" y2="2002.34" gradientUnits="userSpaceOnUse"><stop offset="0" stop-color="#ffc444"/><stop offset="1" stop-color="#f36f56"/></linearGradient><linearGradient id="linear-gradient-8" x1="1957.04" y1="491.09" x2="2482.8" y2="1630.72" xlink:href="#linear-gradient-7"/><linearGradient id="linear-gradient-9" x1="1328.7" y1="723.09" x2="1874.65" y2="1906.48" xlink:href="#linear-gradient-7"/><linearGradient id="linear-gradient-10" x1="1681.57" y1="2914.97" x2="1015.04" y2="2346.39" xlink:href="#linear-gradient-3"/><linearGradient id="linear-gradient-11" x1="-1355.86" y1="2519.96" x2="1011.43" y2="2608.02" gradientTransform="translate(-1389.03 1734.32) rotate(-90)" xlink:href="#linear-gradient-3"/><linearGradient id="linear-gradient-12" x1="436.78" y1="1780.53" x2="777.62" y2="2519.33" xlink:href="#linear-gradient-7"/><linearGradient id="linear-gradient-13" x1="599.02" y1="2199.05" x2="903.87" y2="2859.85" xlink:href="#linear-gradient-7"/><linearGradient id="linear-gradient-14" x1="1028.2" y1="1656.09" x2="1346.2" y2="2345.38" xlink:href="#linear-gradient-5"/><linearGradient id="linear-gradient-15" x1="633.19" y1="2517.35" x2="853.64" y2="2995.17" xlink:href="#linear-gradient-7"/><linearGradient id="linear-gradient-16" x1="852.32" y1="1799.8" x2="1143.91" y2="2431.85" xlink:href="#linear-gradient-7"/><linearGradient id="linear-gradient-17" x1="2044.28" y1="2960.03" x2="1629.16" y2="2605.92" xlink:href="#linear-gradient-3"/><linearGradient id="linear-gradient-18" x1="-1372.17" y1="3087.36" x2="239" y2="3147.29" gradientTransform="translate(-1389.03 1734.32) rotate(-90)" xlink:href="#linear-gradient-3"/><linearGradient id="linear-gradient-19" x1="1121.04" y1="2157.02" x2="1337.52" y2="2626.24" xlink:href="#linear-gradient-7"/><linearGradient id="linear-gradient-20" x1="1206.67" y1="2459.82" x2="1384.71" y2="2845.75" xlink:href="#linear-gradient-7"/><linearGradient id="linear-gradient-21" x1="1229.75" y1="2671.36" x2="1350.15" y2="2932.34" xlink:href="#linear-gradient-7"/><linearGradient id="linear-gradient-22" x1="1331.07" y1="2168.35" x2="1519.6" y2="2577.01" xlink:href="#linear-gradient-7"/><linearGradient id="linear-gradient-23" x1="1638.91" y1="2150.59" x2="1827.46" y2="2559.29" xlink:href="#linear-gradient-5"/></defs><title>ui</title><g class="cls-2"><g id="Illustration"><g id="Responsive_web_design" data-name="Responsive web design"><path class="cls-3" d="M1623.86,510.22c-378.33,6.42-963.68,144.69-1132.17,500-58.84,124.1-54.86,306.55-46.89,671.44,2.34,107.25,6.22,263.57,33.49,457.53,56.65,402.92,95.22,677.21,241.18,836.92,365.72,400.19,1686.79,388.63,2250.92-331.85,307.74-393,355.08-952.12,73.69-1414.19C2734.28,721.37,2130.35,501.62,1623.86,510.22Z" transform="translate(-440.29 -250.56)"/><path class="cls-4" d="M1317.9,2044.18c-10.65,45.14-24.48,81.06-36.94,124.67,193-30.24,384.7-24,580.48-54.32-147.14-208.75-275.82-294.25-226.51-586.26,23.14-137,108.89-400.34,42.65-525.36-75.46-142.44-178-94.52-162.49-230.13C1539.3,560.83,1418,350.89,1143.8,464.51c-270.66,112.13-187.73,868.07-9.12,1059.33C1254.05,1717.05,1373.53,1808.45,1317.9,2044.18Z" transform="translate(-440.29 -250.56)"/><g class="cls-5"><path class="cls-6" d="M1579.44,2117.7c-21.25-68.91-48.18-137-74.22-202.79l-9.85-24.92c-20.87-52.92-38.59-100.63-54.22-142.72-8.79-23.69-17.1-46-25.33-67.67-25-65.78-42.72-111.85-51.58-134.94-3-7.93-5-13.15-6-15.52-68.92-181.2-95.92-452.83-110.42-598.76-1.57-15.81-3-29.94-4.25-42.07-21.93-208.42-69.71-422.66-142-636.77l2.89-1C1176.87,464.89,1224.7,679.35,1246.66,888c1.27,12.14,2.68,26.28,4.25,42.09,14.49,145.79,41.46,417.16,110.23,598,.9,2.37,2.9,7.59,5.94,15.51,8.87,23.09,26.55,69.17,51.59,135,8.24,21.63,16.55,44,25.34,67.69,15.63,42.08,33.34,89.78,54.2,142.67l9.84,24.91c26.07,65.88,53,134,74.31,203Z" transform="translate(-440.29 -250.56)"/><path class="cls-6" d="M1449.32,1783.64c-39.83-121.86-37.52-281.07,6.69-460.42,36.83-149.41,102.17-307.78,179.27-434.49l2.6,1.58c-76.94,126.46-142.15,284.52-178.9,433.64-44.08,178.8-46.41,337.43-6.75,458.74Z" transform="translate(-440.29 -250.56)"/><path class="cls-6" d="M1253,954.36l-3-.46c16.89-109.61,47.74-217.73,77.58-322.29,20.42-71.58,41.54-145.6,58-219.5l3,.66c-16.5,74-37.63,148.05-58.07,219.67C1300.72,736.92,1269.89,845,1253,954.36Z" transform="translate(-440.29 -250.56)"/><path class="cls-6" d="M1299.15,1310.06C1226.29,1174,1067,1024.82,958.28,990.85l.91-2.91c109.36,34.17,269.48,184,342.65,320.68Z" transform="translate(-440.29 -250.56)"/></g><path class="cls-7" d="M1156.57,1418.88c53.86,260.85,204.33,204.12,399.6,140.1-32.7,245.9-55.49,486.54-77.77,730.84-131.32,40.9-226.14,67.76-300.51-81.75-84.1-169.11-127-269.48-331-310.42S488,1707.53,555.4,1510.81c70.9-207-108.84-475.44,63.79-626.66C920,620.66,1100.48,1147.26,1156.57,1418.88Z" transform="translate(-440.29 -250.56)"/><g class="cls-8"><path class="cls-6" d="M1459.85,1976.2c-202.28-97.36-368.11-184.12-507.91-338.55-133.76-147.76-199.44-307.21-219.62-533.17-10.47-117.23-31.23-200-61.7-313l3-.8c30.51,113.11,51.29,196,61.79,313.52,20.12,225.24,85.56,384.16,218.84,531.39,139.43,154,305,240.63,507,337.85Z" transform="translate(-440.29 -250.56)"/><path class="cls-6" d="M1204.45,2301.25l-2.37-1.92c46.53-57.34,96.69-104,153.37-142.63,29-19.75,58.69-33.17,94.4-47.25l1.12,2.84c-35.52,14-65.07,27.34-93.8,46.93C1300.74,2197.69,1250.79,2244.14,1204.45,2301.25Z" transform="translate(-440.29 -250.56)"/><path class="cls-6" d="M1042.38,1726.58c-152.82-73.91-342.44-91.31-533.92-49l-.66-3c192.15-42.47,382.47-25,535.91,49.22Z" transform="translate(-440.29 -250.56)"/><path class="cls-6" d="M778.83,1345.49c-2.41-19.83,23.37-185.82,48.3-334.56,25-149.34,53.94-309.75,59-319.69l2.73,1.37c-4.32,8.53-30.64,151.56-58.68,318.82-24.89,148.53-50.65,314.19-48.28,333.69Z" transform="translate(-440.29 -250.56)"/></g><path class="cls-9" d="M2363.31,2408.48a101.2,101.2,0,0,1-67.09-76.19l-49.87-246.81-426.58,15.15-52.5,257.12c-7.35,36,22.08,72.14,56,85.4L2001.72,2513a232.06,232.06,0,0,0,104.34,15.13l377.18-32.27a23.4,23.4,0,0,0,21.16-20.73c1.28-11.12,9-23.6-1.51-27.09Z" transform="translate(-440.29 -250.56)"/><path class="cls-10" d="M2367.54,2393.47a100.34,100.34,0,0,1-67-75.23l-49.82-243.71-416.18,15-52.45,253.89a74.3,74.3,0,0,0,46,84.31l178.3,68.95a234.23,234.23,0,0,0,104.23,14.93l376.8-31.86a23.25,23.25,0,0,0,5.29-45.25Z" transform="translate(-440.29 -250.56)"/><path class="cls-11" d="M3048.75,1913.88V807.19c0-22.69-18.7-42-41.62-42.93L1105.82,687.83c-28.93-1.17-52.68,18.83-52.68,44.43V1955.32Z" transform="translate(-440.29 -250.56)"/><path class="cls-12" d="M1112,902.47v955.39c0,23.84,22,42.73,48.91,42l1804.46-51.32c21.54-.61,39.12-18.51,39.12-39.78V956.63Z" transform="translate(-440.29 -250.56)"/><path class="cls-13" d="M3004.44,956.63V858.84c0-20.83-17.22-38.52-38.31-39.31L1159.86,752.15c-26.32-1-47.91,17.32-47.91,40.68V902.47Z" transform="translate(-440.29 -250.56)"/><path class="cls-14" d="M1244,828.09c0,8.21-7.49,14.63-16.73,14.33s-16.77-7.2-16.77-15.43,7.52-14.65,16.77-14.34S1244,819.88,1244,828.09Z" transform="translate(-440.29 -250.56)"/><path class="cls-14" d="M1316.07,830.46c0,8.16-7.39,14.54-16.52,14.25S1283,837.55,1283,829.37s7.43-14.57,16.58-14.26S1316.07,822.29,1316.07,830.46Z" transform="translate(-440.29 -250.56)"/><path class="cls-14" d="M1387.32,832.8c0,8.11-7.3,14.46-16.33,14.17s-16.38-7.11-16.38-15.25,7.34-14.48,16.38-14.17S1387.32,824.68,1387.32,832.8Z" transform="translate(-440.29 -250.56)"/><path class="cls-15" d="M1053.14,1955.32v244.26c0,25.6,23.75,45.54,52.68,44.32l1901.31-80.38c22.92-1,41.62-20.33,41.62-43V1906.78Z" transform="translate(-440.29 -250.56)"/><polygon class="cls-16" points="1858.63 1187.36 810.21 1193.04 810.21 755.27 1858.63 774.34 1858.63 1187.36"/><polygon class="cls-17" points="2450.65 1184.15 1920.14 1187.03 1920.14 775.46 2450.65 785.11 2450.65 1184.15"/><polygon class="cls-18" points="2450.65 1480.35 810.21 1517.98 810.21 1250.21 2450.65 1236.26 2450.65 1480.35"/><g class="cls-19"><path class="cls-12" d="M2842.82,1771c-156.16-52.74-285.35,54.84-397.6-29.87-126.55-95.5-24.26-279-141.32-387.05-162.61-150.14-487.71,82.71-628.9-58.84-97.08-97.32,17.43-253.13-64.77-417-41.79-83.34-120.11-140.15-215.17-178.77l-289.24-11.62c-28.93-1.17-52.68,18.83-52.68,44.43V2199.58c0,25.6,23.75,45.54,52.68,44.32l1901.31-80.38c22.92-1,41.62-20.33,41.62-43V1962.57C2981.79,1844.2,2907.88,1793,2842.82,1771Z" transform="translate(-440.29 -250.56)"/></g><path class="cls-20" d="M1593.65,1757.57V3037.86c0,19.14-21,24.76-44.72,27.07L727,3156.84l-12.56,1.22c-25.79,2.51-46.94-11.81-46.94-31.81V1788.39c0-20,21.15-37,46.94-37.85l17.05-.54,824.85,2.7C1580.09,1751.94,1593.65,1738.42,1593.65,1757.57Z" transform="translate(-440.29 -250.56)"/><path class="cls-21" d="M1619,1756.11V3036.05c0,19.14-19.39,36.69-43.14,39l-835.61,81.17c-25.78,2.5-46.91-11.81-46.91-31.81V1786.91c0-20,21.13-37,46.91-37.84l835.61-26.4C1599.61,1721.92,1619,1737,1619,1756.11Z" transform="translate(-440.29 -250.56)"/><path class="cls-12" d="M758.39,1824.74l796.52-27.8a35.89,35.89,0,0,1,37.13,35.82L1593.53,3008a42.81,42.81,0,0,1-38.68,42.66l-794.17,77.06a34.52,34.52,0,0,1-37.85-34.34l-.31-1231.44A37.17,37.17,0,0,1,758.39,1824.74Z" transform="translate(-440.29 -250.56)"/><polygon class="cls-22" points="345.12 1867.17 798.4 1845.36 798.72 2269.94 345.26 2301.15 345.12 1867.17"/><polygon class="cls-23" points="345.27 2355.78 1094.65 2302.25 1094.92 2557.36 345.36 2620.36 345.27 2355.78"/><path class="cls-24" d="M761.61,1824l793-27a36.44,36.44,0,0,1,37.68,36.38l.2,174.85L722.57,2047l-.05-182.58A40.47,40.47,0,0,1,761.61,1824Z" transform="translate(-440.29 -250.56)"/><polygon class="cls-25" points="345.38 2678.82 1094.98 2613.72 1095.1 2728.78 345.41 2798.15 345.38 2678.82"/><polygon class="cls-26" points="840.16 1843.35 1094.16 1831.13 1094.6 2249.58 840.5 2267.07 840.16 1843.35"/><path class="cls-27" d="M1181.86,1774.58c0,6.78-6.94,12.51-15.51,12.8s-15.54-5-15.54-11.76,7-12.51,15.54-12.8S1181.86,1767.81,1181.86,1774.58Z" transform="translate(-440.29 -250.56)"/><g class="cls-19"><path class="cls-12" d="M1348.88,2492.64c-76-152.56-253.69-116.14-320.44-282.52-39.81-99.25,9.75-146.32-20.1-267.4-20.19-82-64.3-147.25-114.27-198.51l-153.82,4.86c-25.77.81-46.91,17.84-46.91,37.84V3124.4c0,20,21.14,34.31,46.91,31.81l672.45-65.32c-49.8-69.19-71.11-134.27-78.79-190.73C1310.08,2725,1416.41,2628.15,1348.88,2492.64Z" transform="translate(-440.29 -250.56)"/></g><path class="cls-28" d="M1950.2,2197.67v883.56c0,13.21-11.3,16.87-24.1,18.21L1485,3154.06l-6.71.7c-13.78,1.45-25.08-8.61-25.08-22.36V2213.29a26,26,0,0,1,25.08-25.73l9.11-.27,442.68,6.79C1942.88,2193.7,1950.2,2184.46,1950.2,2197.67Z" transform="translate(-440.29 -250.56)"/><path class="cls-29" d="M1963.86,2196.81v883.44c0,13.21-10.45,25.11-23.26,26.46l-448.51,47.05c-13.77,1.45-25.07-8.61-25.07-22.36v-919a26,26,0,0,1,25.07-25.73l448.51-13.22C1953.41,2173.1,1963.86,2183.6,1963.86,2196.81Z" transform="translate(-440.29 -250.56)"/><path class="cls-12" d="M1507,2238.78l392.31-14.34a48.4,48.4,0,0,1,50.17,48.37l0,791.57a25.33,25.33,0,0,1-22.67,25.19l-420.27,44.23a21.61,21.61,0,0,1-23.87-21.49l0-848.22A25.33,25.33,0,0,1,1507,2238.78Z" transform="translate(-440.29 -250.56)"/><polygon class="cls-30" points="1091.11 2198.99 1322.29 2186.78 1322.28 2481.07 1091.12 2498.6 1091.11 2198.99"/><polygon class="cls-31" points="1091.12 2536.3 1463.44 2506.97 1463.43 2684.25 1091.12 2718.8 1091.12 2536.3"/><polygon class="cls-32" points="1091.12 2750.98 1463.43 2715.51 1463.43 2795.42 1091.12 2833.25 1091.12 2750.98"/><polygon class="cls-33" points="1347.15 2185.47 1463.46 2179.32 1463.44 2470.36 1347.14 2479.18 1347.15 2185.47"/><path class="cls-34" d="M1505.11,2238.85l419-15.32a24.43,24.43,0,0,1,25.32,24.41v122.49L1482.6,2393V2262.21A23.37,23.37,0,0,1,1505.11,2238.85Z" transform="translate(-440.29 -250.56)"/><path class="cls-27" d="M1728.67,2206.91a8.73,8.73,0,0,1-8.33,8.72,8.09,8.09,0,0,1-8.34-8.19,8.72,8.72,0,0,1,8.34-8.72A8.08,8.08,0,0,1,1728.67,2206.91Z" transform="translate(-440.29 -250.56)"/><g class="cls-19"><path class="cls-12" d="M1818.05,2725.92c-40.93-102.89-151.24-78.58-185.61-182.58-28-84.88,34.34-134.62,9.92-232.9-13.71-55.15-47.44-96.12-81.91-125.75l-68.36,2a26,26,0,0,0-25.07,25.73v919c0,13.75,11.3,23.81,25.07,22.36L1836,3117.69c-27.6-43.51-38.69-83.26-42.6-116.27C1779.09,2881.28,1855.55,2820.19,1818.05,2725.92Z" transform="translate(-440.29 -250.56)"/></g></g></g></g></svg>